<svg width="227" height="50" viewBox="0 0 227 50" fill="none" xmlns="http://www.w3.org/2000/svg">
<path fill-rule="evenodd" clip-rule="evenodd" d="M23.3669 16.6992C20.9107 15.227 18.1445 17.229 18.1445 19.8987V30.3593C18.1445 33.029 20.9107 35.031 23.3669 33.5589L32.0933 28.3286C34.4473 26.9176 34.4473 23.3405 32.0933 21.9295L23.3669 16.6992Z" fill="white"/>
<path fill-rule="evenodd" clip-rule="evenodd" d="M25 0C11.1929 0 0 11.1929 0 25C0 38.8072 11.1929 50 25 50C38.8072 50 50 38.8072 50 25C50 11.1929 38.8072 0 25 0ZM3.48837 25C3.48837 13.1195 13.1195 3.48837 25 3.48837C36.8805 3.48837 46.5116 13.1195 46.5116 25C46.5116 36.8805 36.8805 46.5116 25 46.5116C13.1195 46.5116 3.48837 36.8805 3.48837 25Z" fill="white"/>
<path d="M61.044 21.118C61.116 20.002 61.542 19.132 62.322 18.508C63.114 17.884 64.122 17.572 65.346 17.572C66.186 17.572 66.912 17.722 67.524 18.022C68.136 18.322 68.598 18.73 68.91 19.246C69.222 19.762 69.378 20.344 69.378 20.992C69.378 21.736 69.18 22.372 68.784 22.9C68.388 23.428 67.914 23.782 67.362 23.962V24.034C68.07 24.25 68.622 24.646 69.018 25.222C69.414 25.786 69.612 26.512 69.612 27.4C69.612 28.108 69.45 28.738 69.126 29.29C68.802 29.842 68.322 30.28 67.686 30.604C67.05 30.916 66.288 31.072 65.4 31.072C64.104 31.072 63.036 30.742 62.196 30.082C61.368 29.41 60.924 28.45 60.864 27.202H62.844C62.892 27.838 63.138 28.36 63.582 28.768C64.026 29.164 64.626 29.362 65.382 29.362C66.114 29.362 66.678 29.164 67.074 28.768C67.47 28.36 67.668 27.838 67.668 27.202C67.668 26.362 67.398 25.768 66.858 25.42C66.33 25.06 65.514 24.88 64.41 24.88H63.942V23.188H64.428C65.4 23.176 66.138 23.014 66.642 22.702C67.158 22.39 67.416 21.898 67.416 21.226C67.416 20.65 67.23 20.194 66.858 19.858C66.486 19.51 65.958 19.336 65.274 19.336C64.602 19.336 64.08 19.51 63.708 19.858C63.336 20.194 63.114 20.614 63.042 21.118H61.044ZM78.8235 20.92C78.6915 20.368 78.4515 19.954 78.1035 19.678C77.7555 19.402 77.2695 19.264 76.6455 19.264C75.6975 19.264 74.9895 19.63 74.5215 20.362C74.0535 21.082 73.8075 22.282 73.7835 23.962C74.0955 23.434 74.5515 23.026 75.1515 22.738C75.7515 22.45 76.3995 22.306 77.0955 22.306C77.8875 22.306 78.5835 22.48 79.1835 22.828C79.7955 23.164 80.2695 23.656 80.6055 24.304C80.9535 24.952 81.1275 25.726 81.1275 26.626C81.1275 27.466 80.9595 28.216 80.6235 28.876C80.2995 29.536 79.8135 30.058 79.1655 30.442C78.5175 30.814 77.7375 31 76.8255 31C75.5895 31 74.6175 30.73 73.9095 30.19C73.2135 29.638 72.7215 28.864 72.4335 27.868C72.1575 26.872 72.0195 25.63 72.0195 24.142C72.0195 19.75 73.5675 17.554 76.6635 17.554C77.8635 17.554 78.8055 17.878 79.4895 18.526C80.1855 19.174 80.5935 19.972 80.7135 20.92H78.8235ZM76.6455 24.034C75.9135 24.034 75.2895 24.256 74.7735 24.7C74.2695 25.132 74.0175 25.762 74.0175 26.59C74.0175 27.418 74.2515 28.078 74.7195 28.57C75.1995 29.05 75.8655 29.29 76.7175 29.29C77.4735 29.29 78.0675 29.056 78.4995 28.588C78.9435 28.12 79.1655 27.496 79.1655 26.716C79.1655 25.9 78.9495 25.252 78.5175 24.772C78.0975 24.28 77.4735 24.034 76.6455 24.034ZM83.3163 24.268C83.3163 22.192 83.6643 20.572 84.3603 19.408C85.0683 18.232 86.2803 17.644 87.9963 17.644C89.7123 17.644 90.9183 18.232 91.6143 19.408C92.3223 20.572 92.6763 22.192 92.6763 24.268C92.6763 26.368 92.3223 28.012 91.6143 29.2C90.9183 30.376 89.7123 30.964 87.9963 30.964C86.2803 30.964 85.0683 30.376 84.3603 29.2C83.6643 28.012 83.3163 26.368 83.3163 24.268ZM90.6603 24.268C90.6603 23.296 90.5943 22.474 90.4623 21.802C90.3423 21.13 90.0903 20.584 89.7063 20.164C89.3223 19.732 88.7523 19.516 87.9963 19.516C87.2403 19.516 86.6703 19.732 86.2863 20.164C85.9023 20.584 85.6443 21.13 85.5123 21.802C85.3923 22.474 85.3323 23.296 85.3323 24.268C85.3323 25.276 85.3923 26.122 85.5123 26.806C85.6323 27.49 85.8843 28.042 86.2683 28.462C86.6643 28.882 87.2403 29.092 87.9963 29.092C88.7523 29.092 89.3223 28.882 89.7063 28.462C90.1023 28.042 90.3603 27.49 90.4803 26.806C90.6003 26.122 90.6603 25.276 90.6603 24.268ZM103.785 24.718C103.785 23.494 104.067 22.396 104.631 21.424C105.207 20.452 105.981 19.696 106.953 19.156C107.937 18.604 109.011 18.328 110.175 18.328C111.507 18.328 112.689 18.658 113.721 19.318C114.765 19.966 115.521 20.89 115.989 22.09H113.523C113.199 21.43 112.749 20.938 112.173 20.614C111.597 20.29 110.931 20.128 110.175 20.128C109.347 20.128 108.609 20.314 107.961 20.686C107.313 21.058 106.803 21.592 106.431 22.288C106.071 22.984 105.891 23.794 105.891 24.718C105.891 25.642 106.071 26.452 106.431 27.148C106.803 27.844 107.313 28.384 107.961 28.768C108.609 29.14 109.347 29.326 110.175 29.326C110.931 29.326 111.597 29.164 112.173 28.84C112.749 28.516 113.199 28.024 113.523 27.364H115.989C115.521 28.564 114.765 29.488 113.721 30.136C112.689 30.784 111.507 31.108 110.175 31.108C108.999 31.108 107.925 30.838 106.953 30.298C105.981 29.746 105.207 28.984 104.631 28.012C104.067 27.04 103.785 25.942 103.785 24.718ZM117.707 25.996C117.707 25 117.911 24.118 118.319 23.35C118.739 22.582 119.303 21.988 120.011 21.568C120.731 21.136 121.523 20.92 122.387 20.92C123.167 20.92 123.845 21.076 124.421 21.388C125.009 21.688 125.477 22.066 125.825 22.522V21.082H127.895V31H125.825V29.524C125.477 29.992 125.003 30.382 124.403 30.694C123.803 31.006 123.119 31.162 122.351 31.162C121.499 31.162 120.719 30.946 120.011 30.514C119.303 30.07 118.739 29.458 118.319 28.678C117.911 27.886 117.707 26.992 117.707 25.996ZM125.825 26.032C125.825 25.348 125.681 24.754 125.393 24.25C125.117 23.746 124.751 23.362 124.295 23.098C123.839 22.834 123.347 22.702 122.819 22.702C122.291 22.702 121.799 22.834 121.343 23.098C120.887 23.35 120.515 23.728 120.227 24.232C119.951 24.724 119.813 25.312 119.813 25.996C119.813 26.68 119.951 27.28 120.227 27.796C120.515 28.312 120.887 28.708 121.343 28.984C121.811 29.248 122.303 29.38 122.819 29.38C123.347 29.38 123.839 29.248 124.295 28.984C124.751 28.72 125.117 28.336 125.393 27.832C125.681 27.316 125.825 26.716 125.825 26.032ZM142.596 20.92C143.376 20.92 144.072 21.082 144.684 21.406C145.308 21.73 145.794 22.21 146.142 22.846C146.502 23.482 146.682 24.25 146.682 25.15V31H144.648V25.456C144.648 24.568 144.426 23.89 143.982 23.422C143.538 22.942 142.932 22.702 142.164 22.702C141.396 22.702 140.784 22.942 140.328 23.422C139.884 23.89 139.662 24.568 139.662 25.456V31H137.628V25.456C137.628 24.568 137.406 23.89 136.962 23.422C136.518 22.942 135.912 22.702 135.144 22.702C134.376 22.702 133.764 22.942 133.308 23.422C132.864 23.89 132.642 24.568 132.642 25.456V31H130.59V21.082H132.642V22.216C132.978 21.808 133.404 21.49 133.92 21.262C134.436 21.034 134.988 20.92 135.576 20.92C136.368 20.92 137.076 21.088 137.7 21.424C138.324 21.76 138.804 22.246 139.14 22.882C139.44 22.282 139.908 21.808 140.544 21.46C141.18 21.1 141.864 20.92 142.596 20.92ZM151.345 22.54C151.693 22.084 152.167 21.7 152.767 21.388C153.367 21.076 154.045 20.92 154.801 20.92C155.665 20.92 156.451 21.136 157.159 21.568C157.879 21.988 158.443 22.582 158.851 23.35C159.259 24.118 159.463 25 159.463 25.996C159.463 26.992 159.259 27.886 158.851 28.678C158.443 29.458 157.879 30.07 157.159 30.514C156.451 30.946 155.665 31.162 154.801 31.162C154.045 31.162 153.373 31.012 152.785 30.712C152.197 30.4 151.717 30.016 151.345 29.56V35.716H149.293V21.082H151.345V22.54ZM157.375 25.996C157.375 25.312 157.231 24.724 156.943 24.232C156.667 23.728 156.295 23.35 155.827 23.098C155.371 22.834 154.879 22.702 154.351 22.702C153.835 22.702 153.343 22.834 152.875 23.098C152.419 23.362 152.047 23.746 151.759 24.25C151.483 24.754 151.345 25.348 151.345 26.032C151.345 26.716 151.483 27.316 151.759 27.832C152.047 28.336 152.419 28.72 152.875 28.984C153.343 29.248 153.835 29.38 154.351 29.38C154.879 29.38 155.371 29.248 155.827 28.984C156.295 28.708 156.667 28.312 156.943 27.796C157.231 27.28 157.375 26.68 157.375 25.996ZM170.475 21.082V31H168.423V29.83C168.099 30.238 167.673 30.562 167.145 30.802C166.629 31.03 166.077 31.144 165.489 31.144C164.709 31.144 164.007 30.982 163.383 30.658C162.771 30.334 162.285 29.854 161.925 29.218C161.577 28.582 161.403 27.814 161.403 26.914V21.082H163.437V26.608C163.437 27.496 163.659 28.18 164.103 28.66C164.547 29.128 165.153 29.362 165.921 29.362C166.689 29.362 167.295 29.128 167.739 28.66C168.195 28.18 168.423 27.496 168.423 26.608V21.082H170.475ZM176.782 31.162C176.002 31.162 175.3 31.024 174.676 30.748C174.064 30.46 173.578 30.076 173.218 29.596C172.858 29.104 172.666 28.558 172.642 27.958H174.766C174.802 28.378 175 28.732 175.36 29.02C175.732 29.296 176.194 29.434 176.746 29.434C177.322 29.434 177.766 29.326 178.078 29.11C178.402 28.882 178.564 28.594 178.564 28.246C178.564 27.874 178.384 27.598 178.024 27.418C177.676 27.238 177.118 27.04 176.35 26.824C175.606 26.62 175 26.422 174.532 26.23C174.064 26.038 173.656 25.744 173.308 25.348C172.972 24.952 172.804 24.43 172.804 23.782C172.804 23.254 172.96 22.774 173.272 22.342C173.584 21.898 174.028 21.55 174.604 21.298C175.192 21.046 175.864 20.92 176.62 20.92C177.748 20.92 178.654 21.208 179.338 21.784C180.034 22.348 180.406 23.122 180.454 24.106H178.402C178.366 23.662 178.186 23.308 177.862 23.044C177.538 22.78 177.1 22.648 176.548 22.648C176.008 22.648 175.594 22.75 175.306 22.954C175.018 23.158 174.874 23.428 174.874 23.764C174.874 24.028 174.97 24.25 175.162 24.43C175.354 24.61 175.588 24.754 175.864 24.862C176.14 24.958 176.548 25.084 177.088 25.24C177.808 25.432 178.396 25.63 178.852 25.834C179.32 26.026 179.722 26.314 180.058 26.698C180.394 27.082 180.568 27.592 180.58 28.228C180.58 28.792 180.424 29.296 180.112 29.74C179.8 30.184 179.356 30.532 178.78 30.784C178.216 31.036 177.55 31.162 176.782 31.162ZM195.555 18.49V20.164H192.225V31H190.173V20.164H186.825V18.49H195.555ZM201.935 31.162C200.999 31.162 200.153 30.952 199.397 30.532C198.641 30.1 198.047 29.5 197.615 28.732C197.183 27.952 196.967 27.052 196.967 26.032C196.967 25.024 197.189 24.13 197.633 23.35C198.077 22.57 198.683 21.97 199.451 21.55C200.219 21.13 201.077 20.92 202.025 20.92C202.973 20.92 203.831 21.13 204.599 21.55C205.367 21.97 205.973 22.57 206.417 23.35C206.861 24.13 207.083 25.024 207.083 26.032C207.083 27.04 206.855 27.934 206.399 28.714C205.943 29.494 205.319 30.1 204.527 30.532C203.747 30.952 202.883 31.162 201.935 31.162ZM201.935 29.38C202.463 29.38 202.955 29.254 203.411 29.002C203.879 28.75 204.257 28.372 204.545 27.868C204.833 27.364 204.977 26.752 204.977 26.032C204.977 25.312 204.839 24.706 204.563 24.214C204.287 23.71 203.921 23.332 203.465 23.08C203.009 22.828 202.517 22.702 201.989 22.702C201.461 22.702 200.969 22.828 200.513 23.08C200.069 23.332 199.715 23.71 199.451 24.214C199.187 24.706 199.055 25.312 199.055 26.032C199.055 27.1 199.325 27.928 199.865 28.516C200.417 29.092 201.107 29.38 201.935 29.38ZM218.094 21.082V31H216.042V29.83C215.718 30.238 215.292 30.562 214.764 30.802C214.248 31.03 213.696 31.144 213.108 31.144C212.328 31.144 211.626 30.982 211.002 30.658C210.39 30.334 209.904 29.854 209.544 29.218C209.196 28.582 209.022 27.814 209.022 26.914V21.082H211.056V26.608C211.056 27.496 211.278 28.18 211.722 28.66C212.166 29.128 212.772 29.362 213.54 29.362C214.308 29.362 214.914 29.128 215.358 28.66C215.814 28.18 216.042 27.496 216.042 26.608V21.082H218.094ZM222.853 22.522C223.153 22.018 223.549 21.628 224.041 21.352C224.545 21.064 225.139 20.92 225.823 20.92V23.044H225.301C224.497 23.044 223.885 23.248 223.465 23.656C223.057 24.064 222.853 24.772 222.853 25.78V31H220.801V21.082H222.853V22.522Z" fill="white"/>
</svg>
