<svg width="138" height="138" viewBox="0 0 138 138" fill="none" xmlns="http://www.w3.org/2000/svg">
<circle cx="69" cy="69" r="69" fill="#FFF5DD"/>
<path d="M86.9315 38.9681C84.7841 39.2815 82.8118 40.7653 81.8533 42.7837C81.374 43.7975 81.2266 44.4795 81.2266 45.733C81.2266 47.65 81.7519 48.9863 83.0422 50.3504C83.8624 51.2259 84.738 51.8065 85.7794 52.1844C86.3601 52.3964 86.6642 52.4425 87.678 52.4885C89.1895 52.5438 89.9637 52.3872 91.1526 51.7881C91.853 51.4471 92.1479 51.2259 92.83 50.5347C94.2216 49.1338 94.8391 47.6684 94.8391 45.733C94.8391 43.7422 94.2032 42.2307 92.7931 40.8483C91.2079 39.2999 89.1711 38.6456 86.9315 38.9681Z" fill="#FECC53"/>
<path d="M47.8071 40.9955C45.4017 41.613 43.4017 43.6498 42.8764 46.0092C42.6367 47.0691 42.7197 48.9032 43.0423 49.8156C43.7888 51.9261 45.4477 53.5021 47.6228 54.1749C48.5168 54.4606 50.3693 54.4791 51.3093 54.221C53.6134 53.6035 55.5489 51.6589 56.1664 49.3732C56.277 48.9585 56.323 48.4239 56.323 47.6221C56.3323 46.2581 56.194 45.6314 55.6226 44.4885C55.3092 43.8526 55.0696 43.5392 54.3507 42.8204C53.6042 42.0646 53.3462 41.8711 52.5996 41.5024C52.1204 41.272 51.4384 41.014 51.0789 40.9402C50.1573 40.7467 48.655 40.7743 47.8071 40.9955Z" fill="#FECC53"/>
<path d="M72.8112 45.7788C71.8988 45.9631 71.1799 46.5253 70.7652 47.364C70.5256 47.834 70.4795 48.0368 70.4795 48.5898C70.4795 49.9169 70.2399 49.6128 75.5116 54.903L80.2488 59.6494V61.4466V63.2438L77.1798 66.3128L74.1199 69.3726H68.498H62.876L60.1387 66.6354L57.3923 63.8889V62.6908V61.4927L62.0281 56.8384C67.2261 51.6219 67.0971 51.7878 67.0971 50.5252C67.0971 49.3178 66.3506 48.2211 65.2446 47.8064C64.5534 47.5391 63.5396 47.5852 62.9221 47.8893C62.6364 48.0368 61.3461 49.2625 58.8392 51.7602L55.1803 55.4099H49.5583H43.9456L40.2314 51.7141C36.7384 48.2303 36.4803 47.9999 35.9642 47.8064C35.5218 47.6405 35.273 47.6128 34.72 47.6405C33.6048 47.705 32.7385 48.2764 32.2592 49.2625C32.0473 49.6957 32.0012 49.9077 32.0012 50.4791C32.0012 51.797 31.7892 51.539 37.0333 56.7923L41.7244 61.4927L41.7429 74.4877L41.7705 87.4828L42.0101 87.9897C42.3512 88.6993 42.9041 89.2892 43.5861 89.6578C44.1391 89.962 44.2036 89.9712 45.1345 89.9712C46.0193 89.9712 46.1483 89.9435 46.6183 89.7039C47.2727 89.3813 47.8994 88.7454 48.2404 88.0818L48.4985 87.5749L48.5261 81.2341L48.5538 74.9025H49.5123H50.48V80.7825C50.48 86.8837 50.5076 87.4183 50.8671 88.1187C51.1528 88.6809 51.927 89.4366 52.4984 89.7131C52.9592 89.9435 53.1159 89.9712 53.9361 89.9712C54.7564 89.9712 54.913 89.9435 55.3647 89.7224C56.3324 89.2431 57.0697 88.3123 57.2909 87.2708C57.3646 86.9298 57.3923 84.5335 57.3923 79.483V72.1836L59.0051 73.7965L60.6088 75.4001L60.6364 88.3583C60.6641 100.459 60.6733 101.335 60.83 101.722C61.4106 103.224 63.0603 104.21 64.5534 103.962C66.0464 103.704 67.1616 102.625 67.4381 101.178C67.4934 100.874 67.5302 98.3949 67.5302 94.8006V88.9113H68.498H69.4565L69.4841 95.1969L69.5118 101.492L69.7698 102.008C70.0463 102.579 70.8021 103.353 71.3643 103.639C72.2582 104.091 73.5024 104.091 74.378 103.639C74.9863 103.335 75.6775 102.607 75.9724 101.971L76.2397 101.399L76.2674 88.4505L76.2858 75.5015L78.2028 73.5845C79.2535 72.5338 80.1382 71.6767 80.1751 71.6767C80.2212 71.6767 80.2488 74.7642 80.2488 78.5429C80.2488 85.2524 80.2488 85.4091 80.4424 85.916C81.152 87.8054 83.3363 88.6901 85.1243 87.7961C85.7878 87.4643 86.4422 86.7731 86.774 86.0727L87.0228 85.5473L87.0505 79.2987L87.0781 73.0592H88.0366H88.9951L89.0228 79.2987L89.0504 85.5473L89.2993 86.0727C89.6403 86.81 90.2854 87.4736 91.0135 87.8238C91.5481 88.0911 91.7048 88.1187 92.4052 88.1187C93.1056 88.1187 93.2715 88.0818 93.8153 87.833C94.5618 87.4828 95.1609 86.8929 95.5203 86.1648L95.7784 85.6395L95.806 72.6444L95.8245 59.6494L100.47 54.9951C103.695 51.7602 105.179 50.2118 105.327 49.9261C105.631 49.3086 105.677 48.2948 105.409 47.6036C104.82 46.0276 102.958 45.2995 101.373 46.0276C101.161 46.1198 99.6216 47.5852 97.3452 49.8524L93.6494 53.5205H88.0366H82.4147L78.9124 50.0091C76.9862 48.0829 75.2443 46.387 75.0416 46.2488C74.4241 45.8156 73.5393 45.6313 72.8112 45.7788Z" fill="#225354"/>
<path d="M67.1152 54.8569C64.7835 55.2717 62.6914 57.1518 61.9449 59.4651C61.6223 60.4605 61.5486 61.8521 61.7605 62.9212C62.0555 64.4419 63.0324 66.0087 64.2766 66.9764C65.53 67.9349 66.8111 68.3589 68.4793 68.3589C69.7327 68.3589 70.5345 68.1746 71.576 67.6584C72.2948 67.3082 72.5805 67.0962 73.2902 66.3866C74.0091 65.6769 74.2026 65.4189 74.5621 64.6723C75.1519 63.4742 75.2994 62.8291 75.2994 61.5388C75.2994 60.2301 75.0597 59.2808 74.4883 58.2762C73.7141 56.9214 72.7372 56.009 71.3179 55.3362C70.0829 54.7555 68.5899 54.5804 67.1152 54.8569Z" fill="#225354"/>
</svg>
