<svg width="64" height="64" viewBox="0 0 64 64" fill="none" xmlns="http://www.w3.org/2000/svg">
<circle cx="29.5" cy="35.5" r="24.5" fill="#F9F9EF"/>
<path d="M58.6663 14.6667C58.6663 13.6058 58.2449 12.5884 57.4948 11.8383C56.7446 11.0881 55.7272 10.6667 54.6663 10.6667H50.6663V9.33337C50.6663 8.27251 50.2449 7.25509 49.4948 6.50495C48.7446 5.7548 47.7272 5.33337 46.6663 5.33337H9.33301C8.27214 5.33337 7.25473 5.7548 6.50458 6.50495C5.75444 7.25509 5.33301 8.27251 5.33301 9.33337V54.6667C5.33301 55.7276 5.75444 56.745 6.50458 57.4951C7.25473 58.2453 8.27214 58.6667 9.33301 58.6667H46.6663C47.7272 58.6667 48.7446 58.2453 49.4948 57.4951C50.2449 56.745 50.6663 55.7276 50.6663 54.6667V53.3334H54.6663C55.7272 53.3334 56.7446 52.9119 57.4948 52.1618C58.2449 51.4117 58.6663 50.3942 58.6663 49.3334V41.3334C58.663 40.3461 58.2923 39.3955 57.6263 38.6667C58.2923 37.9379 58.663 36.9873 58.6663 36V28C58.663 27.0128 58.2923 26.0622 57.6263 25.3334C58.2923 24.6046 58.663 23.6539 58.6663 22.6667V14.6667ZM54.6663 13.3334C55.02 13.3334 55.3591 13.4738 55.6091 13.7239C55.8592 13.9739 55.9997 14.3131 55.9997 14.6667V22.6667C55.9997 23.0203 55.8592 23.3595 55.6091 23.6095C55.3591 23.8596 55.02 24 54.6663 24H50.6663V13.3334H54.6663ZM55.9997 28V36C55.9997 36.3537 55.8592 36.6928 55.6091 36.9428C55.3591 37.1929 55.02 37.3334 54.6663 37.3334H50.6663V26.6667H54.6663C55.02 26.6667 55.3591 26.8072 55.6091 27.0572C55.8592 27.3073 55.9997 27.6464 55.9997 28ZM39.9997 8.00004V19.44L36.933 16.4C36.8133 16.2725 36.6687 16.1708 36.5082 16.1013C36.3477 16.0318 36.1746 15.996 35.9997 15.996C35.8247 15.996 35.6517 16.0318 35.4912 16.1013C35.3306 16.1708 35.186 16.2725 35.0663 16.4L31.9997 19.44V8.00004H39.9997ZM47.9997 54.6667C47.9997 55.0203 47.8592 55.3595 47.6091 55.6095C47.3591 55.8596 47.02 56 46.6663 56H9.33301C8.97939 56 8.64025 55.8596 8.3902 55.6095C8.14015 55.3595 7.99967 55.0203 7.99967 54.6667V9.33337C7.99967 8.97975 8.14015 8.64061 8.3902 8.39057C8.64025 8.14052 8.97939 8.00004 9.33301 8.00004H29.333V22.6667C29.3343 22.9299 29.4135 23.1869 29.5606 23.4052C29.7077 23.6235 29.9162 23.7933 30.1597 23.8934C30.4008 23.9983 30.6683 24.0264 30.926 23.974C31.1836 23.9215 31.4188 23.7909 31.5997 23.6L35.9997 19.2267L40.3997 23.6C40.5187 23.7281 40.6633 23.8299 40.824 23.8988C40.9848 23.9677 41.1581 24.0022 41.333 24C41.4998 24.0378 41.6729 24.0378 41.8397 24C42.1007 23.8937 42.3213 23.7074 42.4699 23.4678C42.6184 23.2283 42.6872 22.9478 42.6663 22.6667V8.00004H46.6663C47.02 8.00004 47.3591 8.14052 47.6091 8.39057C47.8592 8.64061 47.9997 8.97975 47.9997 9.33337V54.6667ZM55.9997 49.3334C55.9997 49.687 55.8592 50.0261 55.6091 50.2762C55.3591 50.5262 55.02 50.6667 54.6663 50.6667H50.6663V40H54.6663C55.02 40 55.3591 40.1405 55.6091 40.3906C55.8592 40.6406 55.9997 40.9798 55.9997 41.3334V49.3334Z" fill="#979797"/>
<path d="M41.333 29.3334H14.6663C14.3127 29.3334 13.9736 29.4738 13.7235 29.7239C13.4735 29.9739 13.333 30.3131 13.333 30.6667V41.3334C13.333 41.687 13.4735 42.0261 13.7235 42.2762C13.9736 42.5262 14.3127 42.6667 14.6663 42.6667H41.333C41.6866 42.6667 42.0258 42.5262 42.2758 42.2762C42.5259 42.0261 42.6663 41.687 42.6663 41.3334V30.6667C42.6663 30.3131 42.5259 29.9739 42.2758 29.7239C42.0258 29.4738 41.6866 29.3334 41.333 29.3334ZM39.9997 40H15.9997V32H39.9997V40Z" fill="#979797"/>
<path d="M41.333 48H14.6663C14.3127 48 13.9736 48.1405 13.7235 48.3905C13.4735 48.6406 13.333 48.9797 13.333 49.3333C13.333 49.687 13.4735 50.0261 13.7235 50.2761C13.9736 50.5262 14.3127 50.6667 14.6663 50.6667H41.333C41.6866 50.6667 42.0258 50.5262 42.2758 50.2761C42.5259 50.0261 42.6663 49.687 42.6663 49.3333C42.6663 48.9797 42.5259 48.6406 42.2758 48.3905C42.0258 48.1405 41.6866 48 41.333 48Z" fill="#979797"/>
</svg>
