<svg width="103" height="103" viewBox="0 0 103 103" fill="none" xmlns="http://www.w3.org/2000/svg">
<rect width="103" height="103" fill="#F5F5F5"/>
<g clip-path="url(#clip0_0_1)">
<rect width="1920" height="7578" transform="translate(-392 -4688)" fill="white"/>
<circle cx="567.5" cy="-337.5" r="500" stroke="#F7FCF9" stroke-width="121"/>
<path d="M1528 494L-392 494L-392 -226L1528 -226L1528 494Z" fill="#F7FCF9"/>
<rect x="-113" y="-29" width="328.387" height="368" rx="10" fill="white"/>
<circle cx="51.4971" cy="51.4971" r="51.4971" fill="#F9F9EF"/>
<rect x="37" y="34" width="19" height="19" fill="#F8EE00"/>
<path d="M32.1818 28.1469C31.7727 28.3305 31.3909 28.6885 31.1727 29.1199C31 29.4504 31 29.992 31 51.5C31 73.008 31 73.5496 31.1727 73.8801C31.4 74.3207 31.7727 74.6787 32.2 74.8531C32.5 74.9816 34.5182 75 51 75C67.4818 75 69.5 74.9816 69.8 74.8531C70.2273 74.6787 70.6 74.3207 70.8273 73.8801C71 73.5496 71 73.008 71 51.5C71 29.992 71 29.4504 70.8273 29.1199C70.6 28.6793 70.2273 28.3213 69.8 28.1469C69.5 28.0184 67.4909 28 50.9818 28C34.6727 28.0092 32.4636 28.0275 32.1818 28.1469ZM47.8091 35.2979C49.1455 35.6191 50.3909 36.6289 50.9727 37.8773C51.8455 39.7316 51.4909 41.8338 50.0455 43.2842C49.4182 43.9268 48.4636 44.4775 47.8 44.5785C47.3909 44.652 47.3364 44.7988 47.7182 44.7988C48.1545 44.7988 49.5545 45.2486 50.1909 45.5975C51.7727 46.4604 53.0727 47.975 53.6455 49.6273C53.8636 50.2607 54.0909 51.3807 54.0909 51.8305V52.1426H46.7182H39.3364L39.4 51.5092C39.6273 49.0398 41.1 46.7725 43.2636 45.5975C43.9 45.2486 45.3 44.7988 45.7364 44.7988C46.1182 44.7988 46.0636 44.652 45.6636 44.5785C45 44.4775 44.0364 43.9268 43.4182 43.2934C41.5455 41.4115 41.5364 38.4648 43.3909 36.6014C44.5909 35.3896 46.2 34.9215 47.8091 35.2979ZM62.0273 37.2623C62.3909 37.4092 62.9273 37.9324 63.1 38.3271C63.5273 39.2818 63.1 40.4109 62.1364 40.8607C61.8182 41.0076 61.5182 41.0352 59.6545 41.0352C57.3545 41.0352 57.1182 40.9984 56.6 40.5027C55.6364 39.5848 55.9 37.9324 57.1182 37.3266C57.3545 37.2072 57.7818 37.1797 59.6091 37.1797C60.8182 37.1797 61.9091 37.2164 62.0273 37.2623ZM62.1909 46.5154C62.5091 46.6898 62.7727 46.9102 62.9545 47.1672C63.2 47.5252 63.2273 47.6445 63.2273 48.2229C63.2273 48.7828 63.1909 48.9389 62.9818 49.2693C62.8364 49.4805 62.5364 49.765 62.3 49.9119L61.8636 50.1689H59.6364C57.4273 50.1689 57.4091 50.1689 57 49.9395C56.7818 49.8109 56.4727 49.5264 56.3182 49.3152C56.0727 48.9572 56.0455 48.8379 56.0455 48.2412C56.0455 47.6445 56.0727 47.5252 56.3182 47.1672C56.5 46.9102 56.7636 46.6898 57.0818 46.5154L57.5818 46.2676H59.6364H61.6909L62.1909 46.5154ZM62.1364 55.6217C62.3364 55.7135 62.6091 55.9062 62.7455 56.0531C63.6455 57.0262 63.3364 58.5684 62.1364 59.1283C61.7909 59.2936 61.2909 59.3027 51.0182 59.3027C41.5 59.3027 40.2273 59.2844 39.9273 59.1559C38.3727 58.5041 38.3364 56.3377 39.8636 55.6217C40.2091 55.4564 40.7091 55.4473 51 55.4473C61.2909 55.4473 61.7909 55.4564 62.1364 55.6217ZM61.9455 63.3602C62.4091 63.507 63.0273 64.1129 63.1818 64.5811C63.4636 65.4439 63.0364 66.4996 62.2273 66.9127L61.7818 67.1514H51H40.2182L39.7727 66.9127C38.8818 66.4537 38.4818 65.2971 38.9091 64.3975C39.1273 63.9385 39.5545 63.5438 40.0182 63.3693C40.4636 63.2133 61.4182 63.2041 61.9455 63.3602Z" fill="#225354"/>
</g>
<defs>
<clipPath id="clip0_0_1">
<rect width="1920" height="7578" fill="white" transform="translate(-392 -4688)"/>
</clipPath>
</defs>
</svg>
