<svg width="103" height="103" viewBox="0 0 103 103" fill="none" xmlns="http://www.w3.org/2000/svg">
<g id="Group 238040">
<circle id="Ellipse 310" cx="51.4971" cy="51.4971" r="51.4971" fill="#F9F9EF"/>
<path id="Vector" d="M44.8722 31.4657C41.6393 33.0038 38.9902 34.2998 38.9902 34.3426C38.9902 34.3853 41.6535 35.8522 44.9007 37.604L50.8254 40.78L56.152 37.9173C59.0858 36.3365 61.5212 35.0547 61.564 35.0547C61.6067 35.0547 61.6352 36.5786 61.6352 38.4443V41.8481L60.7094 43.073C60.1967 43.7566 59.7837 44.369 59.7837 44.4545C59.7837 44.6396 62.1906 47.8726 62.3188 47.8726C62.4185 47.8726 64.5121 45.1523 64.8112 44.6396C64.8966 44.4972 64.6118 44.0129 63.8854 43.0587L62.8458 41.6772L62.7745 37.9885L62.7033 34.2856L56.7929 31.4799C53.5457 29.9275 50.8539 28.6742 50.8112 28.6742C50.7685 28.6742 48.0909 29.9275 44.8722 31.4657Z" fill="#F8EE00"/>
<path id="Vector_2" d="M43.9775 41.5355C43.9775 43.9424 43.949 44.213 43.6784 44.7399C43.4221 45.2384 43.3793 45.4948 43.4363 46.4917C43.5075 47.8162 43.8636 48.6707 44.5472 49.1835C44.7893 49.3544 44.9745 49.568 44.9745 49.6535C44.9745 49.7389 45.2023 50.2659 45.4587 50.8355C47.182 54.4103 50.0874 55.9342 52.7364 54.6382C54.2318 53.9118 55.6703 52.2313 56.4536 50.2943C56.653 49.7816 57.009 49.2404 57.2796 48.9983C57.5645 48.7562 57.8636 48.3005 57.9917 47.9159C58.3051 47.0187 58.2908 45.452 57.9775 44.7684C57.7639 44.3411 57.7069 43.7145 57.6499 41.5782L57.5787 38.9149L54.2033 40.6952L50.8137 42.4754L48.2929 41.1367C46.8971 40.3961 45.359 39.5843 44.8748 39.3422L43.9775 38.9007V41.5355Z" fill="#F8EE00"/>
<path id="Union" fill-rule="evenodd" clip-rule="evenodd" d="M44.8721 31.4658C41.6392 33.0039 38.9901 34.2999 38.9901 34.3427C38.9901 34.3854 41.6534 35.8523 44.9006 37.6041L50.8253 40.7801L56.1519 37.9174C59.0857 36.3366 61.5211 35.0548 61.5639 35.0548C61.6066 35.0548 61.6351 36.5787 61.6351 38.4444V41.8483L60.7093 43.0731C60.1966 43.7567 59.7836 44.3691 59.7836 44.4546C59.7836 44.6397 62.1905 47.8727 62.3187 47.8727C62.4184 47.8727 64.512 45.1524 64.8111 44.6397C64.8965 44.4973 64.6117 44.0131 63.8853 43.0588L62.8457 41.6774L62.7744 37.9887L62.7032 34.2857L56.7928 31.48C53.5456 29.9276 50.8538 28.6743 50.8111 28.6743C50.7684 28.6743 48.0908 29.9276 44.8721 31.4658ZM43.9772 41.5353C43.9772 43.9422 43.9488 44.2128 43.6782 44.7398C43.4218 45.2382 43.3791 45.4946 43.436 46.4915C43.5073 47.8161 43.8633 48.6706 44.5469 49.1833C44.789 49.3542 44.9742 49.5678 44.9742 49.6533C44.9742 49.7387 45.2021 50.2657 45.4584 50.8354C47.1817 54.4102 50.0871 55.9341 52.7361 54.638C54.2316 53.9117 55.67 52.2311 56.4533 50.2942C56.6527 49.7815 57.0088 49.2403 57.2794 48.9982C57.5642 48.756 57.8633 48.3003 57.9915 47.9158C58.3048 47.0185 58.2906 45.4519 57.9772 44.7683C57.7636 44.341 57.7066 43.7143 57.6497 41.578L57.5785 38.9148L54.2031 40.695L50.8135 42.4753L48.2926 41.1365C46.8969 40.3959 45.3587 39.5841 44.8745 39.342L43.9772 38.9005V41.5353ZM25.4903 54.5239C26.1597 54.3387 26.8861 54.0396 27.0997 53.883L27.4985 53.5696L28.0682 54.2248C28.8088 55.0793 29.5636 55.4069 30.6745 55.4211C31.9847 55.4211 33.0814 54.7802 33.8077 53.5981C33.822 53.5696 34.0783 53.7121 34.3917 53.8972C34.6907 54.0966 35.4456 54.3957 36.0722 54.5666C36.6989 54.7375 37.4822 55.0223 37.8098 55.2075C38.3652 55.535 39.5615 56.7599 39.5615 57.002C39.5615 57.059 39.3479 57.2299 39.0916 57.4008C38.5646 57.7283 37.1261 59.1383 36.6989 59.7649C35.9441 60.8616 35.4029 62.2716 34.648 65.0488C34.5626 65.3336 32.5972 65.59 30.589 65.5757C29.0651 65.5615 28.2106 65.4618 26.4588 65.12C23.8667 64.6073 21.7162 63.9664 21.0326 63.4964L20.5483 63.1688L20.5768 61.8158C20.5911 60.8474 20.6908 60.1352 20.9614 59.2238C21.4314 57.6429 21.7589 56.9877 22.5137 56.1759C23.2828 55.3357 23.9949 54.9369 25.4903 54.5239ZM68.0614 53.9257C67.7908 54.1108 67.2069 54.3529 66.7797 54.4384C65.0848 54.8087 63.9027 55.5493 63.0625 56.7741L62.6494 57.3865L63.7603 58.5116C65.0564 59.8362 65.9394 61.4313 66.5945 63.6815L66.979 65.0345L68.2608 65.2909C69.1296 65.4618 70.2262 65.5472 71.6789 65.5615C73.5304 65.5615 74.1001 65.5188 75.9516 65.1342C79.4266 64.4221 81.3636 63.7812 81.862 63.183C82.2893 62.6561 81.6627 58.9816 80.8793 57.4292C80.1245 55.9481 78.5579 54.8229 76.7206 54.4384C76.2934 54.3529 75.7094 54.1251 75.4389 53.9399L74.9546 53.6124L74.3992 54.2533C73.6586 55.0793 72.918 55.4069 71.8071 55.4211C70.7105 55.4211 69.5996 54.9084 69.0584 54.1251C68.859 53.826 68.6596 53.5839 68.6169 53.5839C68.5742 53.5839 68.332 53.7405 68.0614 53.9257ZM42.2814 57.2012C44.0331 56.7597 44.6313 56.5318 45.258 56.0619C45.614 55.7913 45.9131 55.5776 45.9131 55.5776C45.9273 55.5634 46.1125 56.1188 46.3261 56.8024C47.024 59.0812 48.1633 60.9896 49.317 61.8441L49.8866 62.2714L49.9863 61.659C50.0291 61.3172 50.086 60.6051 50.086 60.0639C50.1003 59.2236 50.0433 58.9672 49.673 58.3121C49.4451 57.8991 49.2457 57.5145 49.2457 57.4433C49.2457 57.3864 49.6018 57.13 50.0148 56.8737L50.7981 56.4179L51.553 56.8737C51.8036 57.0206 52.0385 57.1623 52.1908 57.2541C52.2895 57.3137 52.3536 57.3523 52.3648 57.3579C52.3932 57.3864 52.2081 57.7567 51.966 58.1839C51.5387 58.9388 51.5245 59.0385 51.5245 60.6193C51.5245 61.8014 51.5672 62.2572 51.6954 62.2572C52.0514 62.2572 53.7463 60.3202 54.2447 59.3375C54.6862 58.4973 54.9141 57.8848 55.5977 55.7343C55.6404 55.5919 55.7829 55.6488 56.0962 55.9194C56.7941 56.4891 57.4777 56.7882 58.7167 57.0446C60.967 57.5003 63.0891 58.9388 64.1857 60.7617C65.3108 62.6275 66.3363 66.4728 66.3363 68.837C66.3363 69.9052 66.2935 70.0761 66.0087 70.3467C64.8551 71.4433 60.6394 72.483 55.5123 72.953C53.1623 73.1666 46.0128 73.0384 43.9192 72.7394C39.5469 72.1127 36.5703 71.2439 35.6445 70.3182C35.3312 69.9906 35.2885 69.8482 35.2885 68.837C35.2885 66.7149 36.0291 63.482 36.9406 61.6163C38.0657 59.3091 39.9029 57.7994 42.2814 57.2012ZM26.9275 37.4475C24.7912 38.5157 23.0395 39.4271 23.0395 39.4841C23.0395 39.5268 24.8055 40.4099 26.9703 41.4495L30.8869 43.3437L34.2622 41.7201L37.6376 40.0823L37.6803 42.1474L37.7231 44.1983L37.1391 44.9673L36.5552 45.7364L37.4382 46.89L38.307 48.0294L39.1615 46.89L40.016 45.7364L39.4321 44.9531L38.8482 44.184L38.8339 41.7913V39.3987L34.8746 37.4333C32.6956 36.3651 30.8869 35.4821 30.8584 35.4963C30.8299 35.4963 29.0496 36.3793 26.9275 37.4475ZM64.0575 39.4841C64.0575 39.4271 65.8093 38.5157 67.9456 37.4475C70.0677 36.3793 71.848 35.4963 71.8907 35.4963C71.9334 35.4963 73.7279 36.3793 75.8785 37.4475L79.7951 39.4129L79.8378 41.8056L79.8663 44.1983L80.4502 44.9673L81.0341 45.7364L80.1796 46.89L79.3251 48.0294L78.4563 46.89L77.5733 45.7364L78.1572 44.9673L78.7411 44.1983L78.6984 42.1474L78.6557 40.0823L75.2803 41.7201L71.9049 43.3437L67.9884 41.4495C65.8236 40.4099 64.0575 39.5268 64.0575 39.4841ZM26.3167 43.8709C26.3167 44.9676 26.2598 45.5372 26.1031 45.8221C25.6901 46.6196 25.9322 47.9442 26.6158 48.6705C26.7725 48.8414 27.0858 49.3684 27.3137 49.8384C28.0543 51.4192 29.6209 52.7153 30.7888 52.7153C32.1418 52.7153 33.4948 51.6613 34.4205 49.8811C34.7338 49.2687 35.1041 48.6847 35.2323 48.5708C35.8305 48.0723 36.0583 46.4772 35.6453 45.6797C35.4887 45.3948 35.4317 44.8394 35.4317 43.7997V42.3185L33.1529 43.4579L30.8885 44.5973L28.6809 43.4579C27.4704 42.8312 26.4449 42.3185 26.4022 42.3185C26.3595 42.3185 26.3167 43.0164 26.3167 43.8709ZM67.1192 45.8221C67.2759 45.5372 67.3328 44.9676 67.3328 43.8709C67.3328 43.0164 67.3613 42.3185 67.404 42.3185C67.4468 42.3185 68.4722 42.8312 69.697 43.4579L71.8903 44.5973L74.169 43.4579L76.4478 42.3185V43.8424C76.462 44.9106 76.519 45.4945 76.6614 45.7366C77.0744 46.463 76.8465 48.0866 76.2484 48.5708C76.1202 48.6847 75.7499 49.2687 75.4366 49.8811C74.5108 51.6613 73.1578 52.7153 71.8048 52.7153C70.637 52.7153 69.0704 51.4192 68.3298 49.8384C68.1019 49.3684 67.7601 48.7987 67.5749 48.5993C66.9198 47.9014 66.7062 46.6054 67.1192 45.8221Z" fill="#225354"/>
<path id="Vector_3" d="M26.9281 37.4474C24.7918 38.5156 23.04 39.4271 23.04 39.484C23.04 39.5268 24.8061 40.4098 26.9709 41.4494L30.8874 43.3436L34.2628 41.72L37.6382 40.0822L37.6809 42.1473L37.7236 44.1982L37.1397 44.9672L36.5558 45.7363L37.4388 46.8899L38.3076 48.0293L39.1621 46.8899L40.0166 45.7363L39.4327 44.953L38.8488 44.1839L38.8345 41.7913V39.3986L34.8752 37.4332C32.6962 36.365 30.8874 35.482 30.859 35.4962C30.8305 35.4962 29.0502 36.3793 26.9281 37.4474Z" fill="#F8EE00"/>
<path id="Vector_4" d="M67.9457 37.4474C65.8094 38.5156 64.0576 39.4271 64.0576 39.484C64.0576 39.5268 65.8236 40.4098 67.9884 41.4494L71.905 43.3436L75.2804 41.72L78.6558 40.0822L78.6985 42.1473L78.7412 44.1982L78.1573 44.9672L77.5734 45.7363L78.4564 46.8899L79.3251 48.0293L80.1797 46.8899L81.0342 45.7363L80.4503 44.9672L79.8663 44.1982L79.8379 41.8055L79.7951 39.4128L75.8786 37.4474C73.728 36.3793 71.9335 35.4962 71.8908 35.4962C71.848 35.4962 70.0678 36.3793 67.9457 37.4474Z" fill="#F8EE00"/>
<path id="Vector_5" d="M26.3176 43.871C26.3176 44.9676 26.2606 45.5373 26.1039 45.8222C25.6909 46.6197 25.933 47.9442 26.6166 48.6706C26.7733 48.8415 27.0866 49.3684 27.3145 49.8384C28.0551 51.4193 29.6217 52.7153 30.7896 52.7153C32.1426 52.7153 33.4956 51.6614 34.4213 49.8812C34.7346 49.2687 35.1049 48.6848 35.2331 48.5709C35.8313 48.0724 36.0591 46.4773 35.6461 45.6797C35.4895 45.3949 35.4325 44.8394 35.4325 43.7998V42.3186L33.1538 43.458L30.8893 44.5973L28.6817 43.458C27.4712 42.8313 26.4457 42.3186 26.403 42.3186C26.3603 42.3186 26.3176 43.0165 26.3176 43.871Z" fill="#F8EE00"/>
<path id="Vector_6" d="M67.3332 43.871C67.3332 44.9676 67.2762 45.5373 67.1195 45.8222C66.7065 46.6055 66.9201 47.9015 67.5753 48.5994C67.7604 48.7988 68.1022 49.3684 68.3301 49.8384C69.0707 51.4193 70.6373 52.7153 71.8052 52.7153C73.1582 52.7153 74.5112 51.6614 75.4369 49.8812C75.7502 49.2687 76.1205 48.6848 76.2487 48.5709C76.8469 48.0866 77.0748 46.463 76.6617 45.7367C76.5193 45.4946 76.4623 44.9107 76.4481 43.8425V42.3186L74.1694 43.458L71.8906 44.5973L69.6974 43.458C68.4725 42.8313 67.4471 42.3186 67.4044 42.3186C67.3616 42.3186 67.3332 43.0165 67.3332 43.871Z" fill="#F8EE00"/>
</g>
</svg>
