<svg width="103" height="103" viewBox="0 0 103 103" fill="none" xmlns="http://www.w3.org/2000/svg">
<circle cx="51.4971" cy="51.4971" r="51.4971" fill="#F9F9EF"/>
<path d="M50.3495 19.7924C50.0822 19.8346 49.6952 20.2356 49.646 20.5311C49.5826 20.9814 49.66 21.094 51.4542 23.1555C51.8271 23.5776 52.1296 23.9435 52.1296 23.9646C52.1296 23.9857 51.5808 24.0068 50.9124 24.0068C47.289 24.042 44.0384 24.8019 40.8019 26.3709C39.0711 27.2081 37.9454 27.9047 36.5452 28.9952C32.3026 32.295 29.3265 36.8754 28.0108 42.1171C27.6801 43.4257 27.659 43.9182 27.9123 44.2067C28.2007 44.5374 28.7355 44.6218 29.1084 44.3967C29.3898 44.2348 29.4953 43.9675 29.7557 42.7995C30.417 39.7812 31.9508 36.615 33.9842 34.0821C35.2155 32.5483 37.284 30.6487 38.8952 29.5651C41.4914 27.8273 44.3972 26.6664 47.4508 26.1457C47.9151 26.0683 48.3795 26.005 48.478 26.005C48.5765 26.005 48.6821 25.9839 48.7032 25.9558C48.7594 25.9065 51.9185 25.8291 51.9185 25.8784C51.9185 25.8995 51.3064 26.4412 50.5536 27.0885C49.7304 27.7991 49.1535 28.3479 49.1042 28.4746C48.9565 28.8193 49.055 29.2415 49.3434 29.5018C49.5545 29.6988 49.646 29.734 49.9415 29.734C50.2792 29.734 50.3214 29.7129 51.018 29.1219C52.6784 27.7147 53.9237 26.6101 53.9097 26.5538C53.8956 26.5257 53.9167 26.5045 53.9519 26.5186C53.98 26.5257 54.2685 26.3216 54.5781 26.0613C55.0424 25.6743 55.155 25.5336 55.1972 25.3366C55.3028 24.7808 55.2957 24.7667 53.6775 22.9092C53.1568 22.3042 52.5729 21.6217 52.3759 21.3965C51.0039 19.7853 50.9124 19.715 50.3495 19.7924Z" fill="#225354"/>
<path d="M56.2447 24.6541C55.6819 24.837 55.4356 25.421 55.6889 25.9628C55.8296 26.2442 56.0688 26.3849 56.702 26.5397C57.8981 26.8282 59.7345 27.5177 60.9939 28.1509C67.0729 31.2045 71.421 36.9176 72.7367 43.5946C72.997 44.8962 73.1166 46.1626 73.1237 47.6753C73.1307 49.0825 73.0604 50.2082 72.9689 50.2082C72.9407 50.2012 72.6804 49.8565 72.392 49.4273C70.9778 47.3587 70.8792 47.2532 70.3797 47.2532C69.9927 47.2532 69.6058 47.5276 69.5002 47.8794C69.3877 48.2593 69.4862 48.5196 70.0912 49.3639C70.3727 49.7509 70.8019 50.363 71.0481 50.7148C72.3638 52.6145 72.9759 53.4307 73.1378 53.5081C73.2363 53.5503 73.4403 53.5854 73.5951 53.5854C73.8976 53.5854 74.2072 53.3884 77.0919 51.334C77.6618 50.9259 78.2669 50.4967 78.4357 50.3841C78.6116 50.2645 78.8086 50.0746 78.879 49.962C79.1464 49.5187 78.9494 48.8855 78.4779 48.6885C78.0277 48.5056 77.711 48.59 77.1411 49.0473C76.9864 49.1669 76.7893 49.3077 76.6979 49.3569C76.6135 49.4062 76.5572 49.4695 76.5783 49.4976C76.5923 49.5328 76.5572 49.6032 76.4938 49.6524C76.4094 49.7228 76.3953 49.7228 76.4305 49.6595C76.529 49.4976 76.3883 49.575 75.6144 50.1168L74.8334 50.6515L74.8826 50.166C74.9108 49.8987 74.946 49.1318 74.9671 48.4634C75.2344 39.0776 69.9435 30.4094 61.4512 26.3286C60.1426 25.6954 58.5947 25.1255 57.2297 24.7808C56.498 24.5908 56.4699 24.5837 56.2447 24.6541ZM77.0708 49.5047C77.1411 49.5821 77.1834 49.6454 77.1622 49.6454C77.1411 49.6454 77.0708 49.5821 77.0004 49.5047C76.9301 49.4273 76.8878 49.3639 76.909 49.3639C76.9301 49.3639 77.0004 49.4273 77.0708 49.5047Z" fill="#225354"/>
<path d="M49.1819 32.8372C48.8934 32.8723 48.5909 32.9427 48.5135 32.999C48.4009 33.0693 48.218 33.5407 47.8029 34.8283L47.24 36.5591L46.9938 36.6435C46.8601 36.6858 46.4098 36.8757 45.9876 37.0587L45.2348 37.3964L44.9323 37.2697C44.7704 37.1994 44.2287 36.939 43.7221 36.6998C42.1812 35.9681 41.935 35.8555 41.8365 35.8555C41.5902 35.8555 39.9157 37.3823 39.0292 38.4095C38.5578 38.9513 38.5367 39.085 38.804 39.5704C38.9096 39.7534 39.0855 40.077 39.2051 40.2881C39.3177 40.4992 39.5217 40.858 39.6483 41.0831C39.782 41.3083 39.8876 41.5053 39.8876 41.5194C39.8876 41.5334 39.9861 41.7093 40.0986 41.9134L40.3167 42.2722L40.1127 42.6662C40.0072 42.8914 39.7891 43.4402 39.6413 43.8975L39.3599 44.7277L37.622 45.2835C36.6651 45.5931 35.8631 45.8816 35.8349 45.9238C35.7505 46.0716 35.5957 47.3661 35.5957 48.0275C35.5957 48.7592 35.7786 50.4549 35.8842 50.6448C35.9264 50.7222 36.5385 50.9544 37.6994 51.3344L39.4513 51.9043L39.6413 52.3757C39.7398 52.636 39.9368 53.0863 40.0775 53.3888L40.3238 53.9235L39.7609 55.1126C38.7266 57.2867 38.7337 57.2726 38.8463 57.4766C38.9448 57.6736 39.6906 58.539 40.0353 58.8627C40.1831 58.9964 40.4856 59.2848 40.7108 59.503C41.2807 60.0447 41.8857 60.5302 42.0757 60.5865C42.2024 60.6287 42.6175 60.4528 43.898 59.8125L45.5655 58.9823L46.0298 59.2004C46.3887 59.3693 47.444 59.7774 47.5214 59.7774C47.5566 59.7774 47.7958 60.4106 48.1898 61.5363C48.7527 63.1264 48.816 63.2812 48.9638 63.3305C49.4985 63.4993 51.1941 63.5486 52.4747 63.429C53.7341 63.3164 53.5793 63.4923 54.2547 61.4448L54.8387 59.6859L55.4719 59.4256C55.8237 59.2848 56.267 59.0878 56.4569 58.9893L56.8087 58.8064L57.1254 58.9612C58.7506 59.7422 60.0804 60.3402 60.2141 60.3402C60.6573 60.3402 63.3521 57.6314 63.5069 57.0334C63.542 56.8997 63.3661 56.4916 62.7259 55.2392L61.8956 53.621L62.1489 53.0652C62.2897 52.7556 62.4726 52.2983 62.55 52.0379L62.6907 51.5806L63.1621 51.4118C65.294 50.666 66.0468 50.3775 66.1594 50.279C66.2438 50.1946 66.3071 49.9905 66.3493 49.6387C66.49 48.3723 66.3493 45.7479 66.1242 45.5298C66.0679 45.4805 65.4698 45.2554 64.7944 45.0373C63.5069 44.6222 63.0495 44.4674 62.747 44.3548C62.6133 44.3126 62.5359 44.2 62.4655 43.996C62.4163 43.8342 62.2404 43.405 62.0715 43.0391C61.9027 42.6803 61.769 42.3496 61.769 42.3074C61.769 42.237 62.0856 41.5475 63.0425 39.5423C63.1551 39.3101 63.2465 39.0357 63.2465 38.9302C63.2465 38.4306 60.397 35.6444 59.8834 35.6444C59.7779 35.6444 58.9828 36.0033 58.1104 36.4465L56.5273 37.2486L56.1403 37.0727C55.9293 36.9742 55.4719 36.7913 55.1272 36.6646L54.501 36.4395L54.2336 35.7078C54.0859 35.3067 53.8115 34.5328 53.6215 33.991C53.3753 33.2945 53.2205 32.9779 53.1079 32.9005C52.9812 32.816 52.6365 32.7949 51.3278 32.7809C50.4343 32.7738 49.4704 32.802 49.1819 32.8372ZM44.4679 42.1667C44.5594 42.2792 44.5523 42.2863 44.4468 42.1948C44.3764 42.1456 44.3201 42.0893 44.3201 42.0752C44.3201 42.0189 44.3764 42.0541 44.4679 42.1667ZM51.8485 42.5396C55.3594 43.0461 57.5334 46.6837 56.3373 50.0327C55.7463 51.6791 54.3884 52.9667 52.6576 53.5155C52.0455 53.7054 50.7509 53.7828 50.0473 53.6632C47.6199 53.2481 45.7414 51.257 45.4388 48.7803C45.1152 46.0997 46.7475 43.5809 49.3648 42.7225C50.0473 42.4974 51.0534 42.42 51.8485 42.5396ZM57.9767 55.6755C58.0682 55.788 58.0611 55.7951 57.9556 55.7036C57.8852 55.6544 57.8289 55.5981 57.8289 55.584C57.8289 55.5277 57.8852 55.5629 57.9767 55.6755Z" fill="#F8EE00"/>
<path d="M27.6654 45.466C27.4824 45.6138 27.201 45.8389 27.0462 45.9796C26.8914 46.1204 26.5607 46.4088 26.3074 46.6199C25.8501 47.0069 24.443 48.2241 23.676 48.8854C23.0217 49.4553 22.8669 49.8212 23.1061 50.2785C23.275 50.6092 23.5424 50.771 23.9082 50.771C24.3304 50.771 24.3374 50.764 25.9838 49.3287C26.9266 48.5125 27.2784 48.2311 27.3136 48.2874C27.3276 48.3155 27.3488 48.5829 27.3558 48.8714C27.3839 50.1026 27.7076 52.3823 28.0172 53.5854C28.5026 55.4217 29.0092 56.7726 29.8324 58.426C30.5571 59.8825 31.0777 60.7408 31.8798 61.8314L32.2316 62.3098H33.4277H34.6238L34.272 61.9088C32.1542 59.4392 30.4797 56.069 29.7198 52.7411C29.4736 51.6646 29.1921 49.6242 29.1921 48.9347V48.5759L29.5088 48.9277C29.6846 49.1247 29.9168 49.385 30.0224 49.5187C30.6978 50.37 31.5491 51.2636 31.7391 51.3269C32.2457 51.5028 32.7312 51.2987 32.9071 50.8273C33.09 50.3559 32.9915 50.1589 32.0557 49.0613C31.5843 48.5125 30.6908 47.4783 30.0787 46.7606C29.4595 46.043 28.8755 45.4027 28.777 45.3394C28.4674 45.1283 28.0594 45.1776 27.6654 45.466Z" fill="#225354"/>
<path d="M72.6394 53.9653C72.3158 54.106 72.2032 54.2819 71.9429 54.9996C71.38 56.5756 70.6905 58.0461 69.9658 59.214C69.3607 60.1991 68.2561 61.7188 67.9324 62.0213C67.8339 62.1198 67.7495 62.2183 67.7495 62.2535C67.7495 62.2817 68.2702 62.3098 68.9034 62.3098H70.0643L70.3035 62.0073C71.387 60.6634 72.7801 58.0883 73.5119 56.0761C74.0114 54.7041 73.9762 54.2819 73.35 53.9794C73.0616 53.8457 72.9208 53.8387 72.6394 53.9653Z" fill="#225354"/>
<path d="M30.6335 65.624C30.5561 65.6732 30.4716 65.7436 30.4435 65.7858C30.4154 65.828 30.3872 68.5298 30.3872 71.7874V77.7115L30.5701 77.8522C30.7531 78 30.8164 78 34.6228 78H38.4854L38.6543 77.8241L38.8302 77.6552V71.7874C38.8302 66.1094 38.8232 65.9054 38.6965 65.7506L38.5628 65.5818L34.665 65.5606C31.7662 65.5466 30.739 65.5677 30.6335 65.624Z" fill="#225354"/>
<path d="M41.5903 65.6172C41.5058 65.6524 41.4003 65.765 41.3651 65.8705C41.3159 65.9901 41.3018 68.1149 41.3088 71.8861C41.3299 77.3741 41.337 77.7188 41.4566 77.8384C41.5762 77.9581 41.8365 77.9651 45.5585 77.9651C49.4141 77.9651 49.5408 77.9581 49.6393 77.8314C49.787 77.6274 49.787 65.9197 49.6393 65.7157C49.5408 65.5891 49.4071 65.582 45.6429 65.568C43.3774 65.5609 41.6888 65.582 41.5903 65.6172ZM44.3976 68.2697C44.489 68.3823 44.482 68.3893 44.3765 68.2979C44.3061 68.2486 44.2498 68.1923 44.2498 68.1782C44.2498 68.122 44.3061 68.1571 44.3976 68.2697ZM45.5233 69.3954C45.6148 69.508 45.6077 69.5151 45.5022 69.4236C45.4318 69.3743 45.3755 69.318 45.3755 69.304C45.3755 69.2477 45.4318 69.2829 45.5233 69.3954ZM49.1045 77.1841C49.1045 77.1982 49.0482 77.2545 48.9849 77.3037C48.8723 77.3952 48.8653 77.3881 48.9568 77.2756C49.0482 77.163 49.1045 77.1278 49.1045 77.1841Z" fill="#225354"/>
<path d="M52.5852 65.5961C52.2615 65.6735 52.2686 65.5257 52.2686 71.7736C52.2686 76.776 52.2826 77.7118 52.3671 77.8314C52.4656 77.9581 52.5922 77.9651 56.4549 77.9651H60.4442L60.5779 77.7962C60.7045 77.6414 60.7116 77.4374 60.7116 71.8017C60.7116 67.6717 60.6905 65.9268 60.6342 65.8001C60.5849 65.7016 60.4723 65.6172 60.3527 65.5891C60.1135 65.5468 52.7892 65.5468 52.5852 65.5961ZM58.1083 68.1782C58.1083 68.1923 58.052 68.2486 57.9887 68.2979C57.8761 68.3893 57.8691 68.3823 57.9606 68.2697C58.052 68.1571 58.1083 68.122 58.1083 68.1782ZM56.9826 69.304C56.9826 69.318 56.9263 69.3743 56.863 69.4236C56.7504 69.5151 56.7434 69.508 56.8348 69.3954C56.9263 69.2829 56.9826 69.2477 56.9826 69.304ZM55.8568 70.4297C55.8568 70.4438 55.8006 70.5001 55.7372 70.5493C55.6247 70.6408 55.6176 70.6337 55.7091 70.5212C55.8006 70.4086 55.8568 70.3734 55.8568 70.4297ZM54.7311 71.5554C54.7311 71.5695 54.6748 71.6258 54.6115 71.6751C54.4989 71.7665 54.4919 71.7595 54.5834 71.6469C54.6748 71.5343 54.7311 71.4992 54.7311 71.5554ZM53.6054 72.6812C53.6054 72.6952 53.5491 72.7515 53.4858 72.8008C53.3732 72.8923 53.3662 72.8852 53.4576 72.7726C53.5491 72.6601 53.6054 72.6249 53.6054 72.6812Z" fill="#225354"/>
<path d="M63.4778 65.6169C63.3934 65.6521 63.2949 65.7435 63.2527 65.8209C63.1964 65.9124 63.1753 67.798 63.1753 71.7944C63.1753 77.4371 63.1823 77.6411 63.309 77.7959L63.4427 77.9648L67.2701 77.9859C69.3668 77.9929 71.161 77.9859 71.2454 77.9648C71.6324 77.8733 71.6183 78.0562 71.6183 73.6096C71.6183 70.4294 71.5972 69.4936 71.5339 69.4233C71.4635 69.3459 71.4635 69.3318 71.5339 69.374C71.6675 69.4514 71.6535 65.9054 71.5198 65.7154C71.4213 65.5887 71.2876 65.5817 67.5234 65.5676C65.3634 65.5606 63.5623 65.5817 63.4778 65.6169Z" fill="#225354"/>
</svg>
