<svg width="103" height="103" viewBox="0 0 103 103" fill="none" xmlns="http://www.w3.org/2000/svg">
<g id="Group 238042">
<circle id="Ellipse 310" cx="51.4971" cy="51.4971" r="51.4971" fill="#F9F9EF"/>
<path id="Union" fill-rule="evenodd" clip-rule="evenodd" d="M47.3653 31.4987C47.9551 30.8598 48.7413 30.3684 49.5276 30.1595C52.2919 29.4101 55.0317 31.3881 55.2774 34.2875C55.388 35.6513 54.8105 37.0273 53.7048 38.0224C52.8325 38.8087 51.9479 39.1281 50.6456 39.1281C49.7242 39.1281 49.5031 39.079 48.7905 38.735C46.8862 37.8258 45.8419 35.8355 46.2105 33.8452C46.3948 32.8378 46.7019 32.2235 47.3653 31.4987ZM24.3772 37.8257C25.0775 36.3146 26.4781 35.2948 28.0384 35.1597C29.5618 35.0123 30.6429 35.3563 31.6995 36.3146C33.1247 37.6046 33.567 39.73 32.7684 41.5114C32.3998 42.3223 32.1541 42.6295 31.4047 43.256C30.2867 44.1897 28.6035 44.4723 27.1538 43.9809C25.7778 43.5263 25.0283 42.8383 24.3772 41.4377C24.0946 40.8357 24.0455 40.5777 24.0455 39.6317C24.0455 38.698 24.1069 38.4154 24.3772 37.8257ZM72.0213 35.1473C69.5642 35.5528 67.8319 38.0591 68.3356 40.4916C69.0236 43.8579 72.6847 45.32 75.4859 43.3542C76.2353 42.8259 76.653 42.3099 77.0708 41.3516C77.4885 40.4302 77.4762 38.7839 77.0339 37.8379C76.1493 35.8968 74.1222 34.8156 72.0213 35.1473ZM43.3596 41.782C43.5439 41.5609 43.9124 41.2783 44.195 41.1555C44.6496 40.9466 45.1287 40.922 50.6819 40.922C55.8174 40.922 56.7388 40.9466 57.1319 41.1063C57.6725 41.3398 58.0657 41.6838 58.4219 42.2735C58.68 42.6789 58.6922 42.8755 58.7537 46.1435L58.8151 49.5835L59.8594 49.7432C61.9848 50.0504 64.27 50.5418 66.2234 51.0824C67.3291 51.3895 68.2629 51.5984 68.312 51.5492C68.3611 51.5001 68.398 50.9595 68.398 50.3452C68.4103 48.9569 68.5946 48.2935 69.1474 47.6792C69.9337 46.8192 70.1672 46.7578 72.9437 46.7578C75.2658 46.7578 75.4255 46.7701 75.9292 47.0404C76.5312 47.3598 77.1209 48.1215 77.3052 48.7972C77.3912 49.1044 77.4281 52.0284 77.4035 57.1024L77.3666 64.9408L77.0226 65.6533C75.8063 68.1105 71.9732 70.2974 66.3217 71.7471C65.2774 72.0174 63.9383 72.3245 63.3363 72.4351C62.4148 72.6071 60.0191 72.9879 59.9085 72.9879C59.884 72.9879 59.8594 71.7348 59.8348 70.1868C59.798 67.5453 59.7857 67.3733 59.5154 66.8451C59.1222 66.1079 58.7045 65.6779 58.0288 65.3462L57.4637 65.0636H50.7065C43.9739 65.0636 43.9493 65.0636 43.4456 65.3339C42.6716 65.7516 42.2539 66.1448 41.9221 66.7959C41.6273 67.3733 41.615 67.4962 41.5781 70.1991L41.5413 73.0002L41.1481 72.9265C40.927 72.8897 40.3987 72.8037 39.9564 72.7422C35.7792 72.1525 31.6267 70.9362 28.7886 69.4619C26.4789 68.2702 25.0906 67.0785 24.4026 65.6779L24.0463 64.9408L24.0095 57.0164C23.9849 49.9275 23.9972 49.0307 24.1815 48.5638C24.4395 47.8758 24.8818 47.3598 25.5083 47.0281C25.9752 46.7701 26.1718 46.7578 28.4692 46.7578C30.7544 46.7578 30.9632 46.7824 31.4178 47.0281C31.9461 47.2984 32.2901 47.6424 32.6587 48.2321C32.8429 48.5147 32.9044 48.9078 32.9535 50.1364C33.0027 51.4141 33.0395 51.6598 33.1992 51.6352C33.2975 51.6107 34.047 51.4018 34.8578 51.1684C36.6638 50.6401 39.1824 50.0995 41.0621 49.8292C41.8361 49.7064 42.5119 49.5958 42.5733 49.559C42.6224 49.5344 42.6593 48.0478 42.6593 46.2786C42.6593 42.7772 42.6961 42.5683 43.3596 41.782ZM53.0899 53.1955C52.8073 53.0604 52.2176 52.8638 51.7631 52.7655C50.4976 52.5075 49.5885 52.6058 48.495 53.1341C45.3744 54.6698 44.5882 58.6996 46.9225 61.2059C48.0159 62.373 49.2199 62.9136 50.6942 62.9013C52.6968 62.889 54.5642 61.685 55.4119 59.879C55.7068 59.2401 55.7436 59.0313 55.7436 57.7536C55.7436 56.4267 55.7191 56.2916 55.3751 55.6036C54.9574 54.7681 53.8271 53.5764 53.0899 53.1955Z" fill="#225354"/>
<path id="Vector" d="M49.5273 30.1596C48.741 30.3684 47.9547 30.8598 47.365 31.4987C46.7015 32.2236 46.3944 32.8379 46.2101 33.8453C45.8415 35.8356 46.8858 37.8259 48.7901 38.735C49.5027 39.079 49.7238 39.1282 50.6453 39.1282C51.9476 39.1282 52.8321 38.8087 53.7044 38.0225C54.8102 37.0273 55.3876 35.6513 55.277 34.2876C55.0313 31.3881 52.2916 29.4101 49.5273 30.1596Z" fill="#F8EE00"/>
<path id="Vector_2" d="M28.0388 35.1597C26.4785 35.2948 25.0779 36.3146 24.3776 37.8257C24.1073 38.4154 24.0459 38.698 24.0459 39.6317C24.0459 40.5777 24.095 40.8357 24.3776 41.4377C25.0288 42.8383 25.7782 43.5263 27.1542 43.9809C28.6039 44.4723 30.2871 44.1898 31.4051 43.256C32.1545 42.6295 32.4002 42.3223 32.7688 41.5114C33.5674 39.73 33.1251 37.6046 31.6999 36.3146C30.6434 35.3563 29.5622 35.0123 28.0388 35.1597Z" fill="#F8EE00"/>
<path id="Vector_3" d="M72.0212 35.1475C69.564 35.5529 67.8317 38.0592 68.3354 40.4918C69.0235 43.8581 72.6846 45.3201 75.4858 43.3544C76.2352 42.8261 76.6529 42.3101 77.0706 41.3518C77.4884 40.4304 77.4761 38.7841 77.0338 37.8381C76.1492 35.8969 74.1221 34.8158 72.0212 35.1475Z" fill="#F8EE00"/>
</g>
</svg>
