<svg width="1690" height="1660" viewBox="0 0 1690 1660" fill="none" xmlns="http://www.w3.org/2000/svg">
<rect width="1690" height="1660" fill="#F5F5F5"/>
<g clip-path="url(#clip0_0_1)">
<rect width="1920" height="7578" transform="translate(-115 -2443)" fill="white"/>
<circle cx="844.5" cy="1907.5" r="328.5" fill="#F7FCF9"/>
<circle cx="844.5" cy="1907.5" r="500" stroke="#F7FCF9" stroke-width="121"/>
<path opacity="0.3" d="M191.242 591.394L1254.16 588.906L1280.82 588.906C1281.19 588.906 1281.92 588.906 1282.28 588.906L1509.79 588.906C1554.71 588.906 1591.23 547.012 1590.87 496.408C1590.87 445.39 1553.98 403.911 1509.43 404.326L1280.46 405.155L264.921 407.644C179.832 408.059 110.446 329.665 110.08 232.605C109.715 135.96 178.736 57.1503 264.19 56.7355L1511.94 54.2467C1523.26 32.6778 1543.71 18.1603 1567.45 18.1603C1590.82 18.1603 1621.27 32.263 1632.59 53.4171L1642.08 53.4171L1642.08 89.9182C1642.08 90.333 1642.08 90.7478 1642.08 91.1626C1642.08 91.5774 1642.08 91.9922 1642.08 92.407L1642.08 94.0661C1640.62 133.056 1602.5 164.58 1567.81 164.58C1547.36 164.58 1529.1 153.795 1517.41 137.204C1517.05 137.204 1516.68 137.204 1516.68 137.204L264.19 139.693C219.272 139.693 182.753 181.586 183.118 232.19C183.118 283.209 220.002 324.687 264.555 324.272L1280.09 321.784L1509.06 320.954C1584.29 320.954 1647.47 381.927 1661.35 462.811L1664.27 462.811L1664.27 497.238C1663.9 593.468 1594.88 671.448 1510.16 671.863L1254.53 671.863L191.607 674.352C146.689 674.352 110.17 716.245 110.535 766.849C110.535 817.867 147.419 859.346 191.972 858.931L1404.89 856.442L1431.55 856.442L1464.05 856.442C1549.14 856.028 1618.53 934.422 1618.89 1031.48C1619.26 1128.13 1550.24 1206.94 1464.78 1207.35L1388.09 1207.77C1385.54 1207.77 1383.35 1207.35 1380.79 1206.94L552.872 1208.6C507.954 1208.6 471.435 1250.49 471.8 1301.09C471.8 1352.11 508.684 1393.59 553.237 1393.18L843.352 1392.35C848.465 1392.35 852.847 1393.59 857.229 1395.25C853.212 1408.94 849.925 1422.62 848.465 1436.73C847.369 1448.76 847.369 1460.79 849.56 1472.4C851.021 1481.11 854.308 1491.89 861.977 1496.04C870.011 1500.6 878.775 1496.04 884.984 1489.82L911.642 1493.14L913.468 1531.3L913.468 1531.71L913.468 1532.13C913.468 1534.2 913.103 1536.28 912.008 1538.35L853.943 1653.25C849.56 1661.96 838.239 1661.96 833.857 1653.25L775.427 1538.76C774.331 1536.69 773.966 1534.62 773.966 1532.54L773.966 1532.13C773.966 1532.13 773.966 1532.13 773.966 1531.71L772.14 1491.48L807.198 1490.65L807.198 1485.67C807.198 1485.67 807.198 1485.67 807.198 1485.26L807.198 1484.43C807.198 1479.45 803.546 1475.3 799.164 1474.89L553.602 1475.72C468.513 1476.13 399.127 1397.74 398.762 1300.68C398.397 1204.03 467.418 1125.22 552.872 1124.81L1431.92 1123.15C1434.47 1123.15 1436.66 1123.56 1439.22 1123.98L1464.78 1123.98C1509.7 1123.98 1546.22 1082.09 1545.86 1031.48C1545.86 980.463 1508.97 938.985 1464.42 939.4L1431.92 939.4L1405.26 939.4L192.337 941.888C107.248 942.303 37.8625 863.909 37.4974 766.849L37.4974 726.2L41.5145 726.2C57.5827 649.464 118.569 591.809 191.242 591.394Z" fill="#AFAEB4"/>
<path opacity="0.6" d="M1437 84.0374L1522.82 84.0374L1522.82 138.789L1437 138.789L1437 84.0374Z" fill="url(#paint0_linear_0_1)"/>
<path d="M181.807 230.531C171.217 222.65 161.722 213.11 152.592 203.155C143.828 193.615 135.794 183.66 128.125 172.876C125.933 169.557 123.377 166.239 121.186 162.506C144.923 100.288 199.336 56.7355 262.514 56.7355L273.47 56.7355C273.835 58.8094 273.835 60.8834 274.2 62.9573C275.661 78.3044 277.487 94.0662 278.582 109.413C279.313 119.368 280.043 129.738 280.773 139.693L262.879 139.693C218.691 139.693 182.538 180.342 181.807 230.531Z" fill="url(#paint1_linear_0_1)"/>
<path d="M1479.47 330.909C1479.47 327.59 1479.84 324.687 1479.84 321.368L1508.69 321.368C1572.96 320.954 1628.47 366.165 1651.84 430.042C1647.83 438.338 1643.44 445.804 1638.33 452.856C1630.3 463.64 1621.17 473.18 1610.58 481.061C1604.37 486.038 1597.43 490.186 1590.49 493.919C1589.4 444.145 1553.24 403.911 1509.05 403.911L1476.19 403.911C1476.92 379.853 1478.38 355.381 1479.47 330.909Z" fill="url(#paint2_linear_0_1)"/>
<path d="M120.055 816.159C119.69 816.159 119.69 816.159 119.325 816.159C118.96 816.159 118.594 816.159 118.229 816.574C113.482 812.426 109.099 807.864 104.717 803.716C99.2394 797.909 83.7616 728.273 78.6489 721.637C69.5192 710.023 61.485 697.165 54.5464 683.891C78.6489 633.288 123.567 597.616 176.52 592.224C177.98 598.031 179.076 604.253 180.537 610.06C185.284 631.214 189.301 652.782 192.223 674.351L190.032 674.351C131.675 674.351 89 740.773 120.055 816.159Z" fill="url(#paint3_linear_0_1)"/>
<path d="M472.123 1288.65C465.549 1291.55 459.341 1294.46 453.133 1297.36C451.307 1295.7 449.481 1294.04 447.655 1292.38C445.099 1289.89 442.177 1287.4 439.256 1284.92C427.935 1274.13 417.344 1262.52 407.484 1250.07C406.754 1249.24 406.389 1248.41 405.658 1247.59C424.648 1180.39 478.331 1131.03 542.969 1126.47C547.717 1139.33 552.099 1152.6 556.116 1165.46C560.498 1179.56 564.15 1194.08 567.072 1209.01L552.464 1209.01C511.563 1208.6 477.601 1243.44 472.123 1288.65Z" fill="url(#paint4_linear_0_1)"/>
<path d="M705.311 1393.17L844.082 1392.76C849.195 1392.76 853.577 1394 857.959 1395.66C853.942 1409.35 850.656 1423.04 849.195 1437.14C848.099 1449.17 848.099 1461.2 850.29 1472.81C851.021 1477.38 852.482 1482.77 854.673 1487.33L807.563 1487.33L807.563 1485.67C807.563 1485.67 807.563 1485.67 807.563 1485.26L807.563 1484.43C807.563 1479.45 803.912 1475.3 799.529 1474.89L706.041 1475.3C706.041 1471.57 706.041 1467.84 706.406 1464.1C706.406 1440.88 705.311 1417.23 705.311 1393.17Z" fill="url(#paint5_linear_0_1)"/>
<path d="M1444.28 929.03C1445.74 904.972 1445.37 880.915 1445.01 856.857L1465.09 856.857C1525.35 856.857 1577.93 896.262 1603.5 953.502C1602.04 956.406 1600.94 959.309 1599.48 961.798C1596.92 966.36 1594 970.923 1590.72 975.486C1587.79 980.048 1584.51 984.196 1581.22 988.344C1570.63 1002.03 1559.31 1014.89 1546.53 1025.67C1543.61 977.56 1508.18 939.399 1465.09 939.814L1443.55 939.814C1443.55 936.081 1443.91 932.763 1444.28 929.03Z" fill="url(#paint6_linear_0_1)"/>
<path d="M179.632 571.16L1254.89 571.16L1281.55 571.16C1281.92 571.16 1282.65 571.16 1283.01 571.16L1510.52 571.99C1555.44 571.99 1591.96 530.511 1591.96 479.492C1591.96 428.474 1555.44 386.995 1510.52 386.995L1281.55 386.995L266.016 386.995C180.927 386.995 111.541 308.186 111.541 211.541C111.541 114.896 180.927 36.0865 266.016 36.0865L1523.76 36.0864C1535.08 14.5175 1555.53 4.76089e-05 1579.27 4.52519e-05C1615.06 4.16983e-05 1653.91 32.7681 1653.91 73.4171C1653.91 114.066 1615.06 146.834 1579.27 146.834C1558.82 146.834 1540.56 136.05 1528.88 119.044C1528.51 119.044 1528.15 119.044 1528.15 119.044L266.016 119.044C221.098 119.044 184.579 160.522 184.579 211.541C184.579 262.559 221.098 304.038 266.016 304.038L1281.55 304.038L1510.52 304.038C1595.61 304.038 1665 382.847 1665 479.492C1665 576.137 1595.61 654.947 1510.52 654.947L1254.89 654.117L179.632 654.117C134.714 654.117 98.1948 695.596 98.1948 746.614C98.1948 797.633 134.714 839.112 179.632 839.112L1404.89 839.112L1431.55 839.112L1464.05 839.112C1549.14 839.112 1618.53 917.921 1618.53 1014.57C1618.53 1111.21 1549.14 1190.02 1464.05 1190.02L1387.36 1190.02C1384.81 1190.02 1382.62 1189.61 1380.06 1189.19L552.142 1189.19C507.224 1189.19 470.705 1230.67 470.705 1281.69C470.705 1332.71 507.224 1374.19 552.142 1374.19L842.257 1374.19C862.342 1374.19 878.776 1392.85 878.776 1415.66L878.776 1500.69L878.776 1491.15C878.776 1496.55 882.793 1500.69 887.54 1500.69L900.687 1500.69C909.452 1500.69 915.295 1511.48 910.547 1520.6L852.117 1635.5C847.735 1644.21 836.414 1644.21 832.032 1635.5L773.601 1520.6C769.219 1511.89 774.697 1500.69 783.461 1500.69L796.608 1500.69C800.991 1500.69 804.642 1496.55 805.008 1491.57L805.008 1467.1C805.008 1467.1 805.008 1467.1 805.008 1466.68L805.008 1465.85C805.008 1460.88 801.356 1456.73 796.973 1456.31L551.412 1456.31C466.323 1456.31 396.937 1377.5 396.937 1280.86C396.937 1184.21 466.323 1105.4 551.412 1105.4L1431.55 1105.4C1434.11 1105.4 1436.3 1105.82 1438.86 1106.23L1464.42 1106.23C1509.34 1106.23 1545.86 1064.75 1545.86 1013.74C1545.86 962.718 1509.34 921.239 1464.42 921.239L1431.92 921.239L1405.26 921.239L179.997 921.239C94.9079 921.239 25.522 842.43 25.522 745.785C25.1568 649.969 94.5428 571.16 179.632 571.16Z" fill="#225354"/>
<path d="M842.495 1497.56V1414.86H552.66C552.66 1414.86 426.563 1407.15 430.487 1285.21C434.412 1163.26 552.66 1147.85 552.66 1147.85H1473.78C1473.78 1147.85 1584.85 1130.33 1584.85 1019.59C1584.85 892.043 1473.78 881.53 1473.78 881.53H167.463C167.463 881.53 61.333 861.206 61.333 746.97C61.333 632.735 167.463 612.411 167.463 612.411H1537.27C1537.27 612.411 1633.53 591.386 1633.53 478.552C1633.53 365.718 1537.27 344.693 1537.27 344.693H242.123C242.123 344.693 149.569 325.069 149.569 214.338C149.569 95.8974 242.123 76.274 242.123 76.274H1384.35" stroke="#F8EE00" stroke-width="4" stroke-dasharray="20 16"/>
<circle cx="1626.58" cy="479.584" r="62.5837" fill="#F8EE00"/>
<text fill="black" xml:space="preserve" style="white-space: pre" font-family="Frank Ruhl Libre" font-size="36" font-weight="bold" letter-spacing="0em"><tspan x="1616.43" y="483.214">3</tspan></text>
<text fill="#393939" xml:space="preserve" style="white-space: pre" font-family="Segoe UI" font-size="14" letter-spacing="0em"><tspan x="1610" y="506.691">YEAR</tspan></text>
<circle cx="1585.58" cy="74.5837" r="62.5837" fill="#F8EE00"/>
<text fill="black" xml:space="preserve" style="white-space: pre" font-family="Frank Ruhl Libre" font-size="36" font-weight="bold" letter-spacing="0em"><tspan x="1575.14" y="78.6082">1</tspan></text>
<text fill="#393939" xml:space="preserve" style="white-space: pre" font-family="Segoe UI" font-size="14" letter-spacing="0em"><tspan x="1568" y="102.085">YEAR</tspan></text>
<circle cx="62.5837" cy="746.584" r="62.5837" fill="#F8EE00"/>
<text fill="black" xml:space="preserve" style="white-space: pre" font-family="Frank Ruhl Libre" font-size="36" font-weight="bold" letter-spacing="0em"><tspan x="52.4277" y="750.214">4</tspan></text>
<text fill="#393939" xml:space="preserve" style="white-space: pre" font-family="Segoe UI" font-size="14" letter-spacing="0em"><tspan x="46" y="773.691">YEAR</tspan></text>
<text fill="#393939" xml:space="preserve" style="white-space: pre" font-family="Poppins" font-size="14" letter-spacing="0em"><tspan x="231" y="160.905">Human Anatomy and </tspan><tspan x="231" y="180.905">Physiology: This subject </tspan><tspan x="231" y="200.905">covers the structure and </tspan><tspan x="231" y="220.905">functions of the human </tspan><tspan x="231" y="240.905">body, including the various </tspan><tspan x="231" y="260.905">organs and systems.</tspan></text>
<circle cx="257" cy="77.0052" r="26" fill="#F8EE00"/>
<text fill="black" xml:space="preserve" style="white-space: pre" font-family="Segoe UI" font-size="24" letter-spacing="0em"><tspan x="252.172" y="85.9427">1</tspan></text>
<text fill="#393939" xml:space="preserve" style="white-space: pre" font-family="Poppins" font-size="14" letter-spacing="0em"><tspan x="457" y="160.905">Pharmaceutical Analysis: </tspan><tspan x="457" y="180.905">This subject focuses on the </tspan><tspan x="457" y="200.905">principles and techniques of </tspan><tspan x="457" y="220.905">drug analysis, including the </tspan><tspan x="457" y="240.905">analysis of pharmaceuticals </tspan><tspan x="457" y="260.905">using various analytical </tspan><tspan x="457" y="280.905">methods.</tspan></text>
<circle cx="483" cy="77.0052" r="26" fill="#F8EE00"/>
<text fill="black" xml:space="preserve" style="white-space: pre" font-family="Segoe UI" font-size="24" letter-spacing="0em"><tspan x="476.332" y="84.9427">2</tspan></text>
<text fill="#393939" xml:space="preserve" style="white-space: pre" font-family="Poppins" font-size="14" letter-spacing="0em"><tspan x="683" y="160.905">Pharmaceutics-I: This </tspan><tspan x="683" y="180.905">subject covers the </tspan><tspan x="683" y="200.905">fundamentals of pharmacy </tspan><tspan x="683" y="220.905">practice, including the </tspan><tspan x="683" y="240.905">preparation, dispensing, </tspan><tspan x="683" y="260.905">and storage of drugs.</tspan></text>
<circle cx="709" cy="77.0052" r="26" fill="#F8EE00"/>
<text fill="black" xml:space="preserve" style="white-space: pre" font-family="Segoe UI" font-size="24" letter-spacing="0em"><tspan x="702.332" y="84.9427">3</tspan></text>
<text fill="#393939" xml:space="preserve" style="white-space: pre" font-family="Poppins" font-size="14" letter-spacing="0em"><tspan x="909" y="160.905">Pharmacognosy: This </tspan><tspan x="909" y="180.905">subject covers the study of </tspan><tspan x="909" y="200.905">medicinal plants and </tspan><tspan x="909" y="220.905">natural products and their </tspan><tspan x="909" y="240.905">use in the preparation of </tspan><tspan x="909" y="260.905">drugs.</tspan></text>
<circle cx="935" cy="77.0052" r="26" fill="#F8EE00"/>
<text fill="black" xml:space="preserve" style="white-space: pre" font-family="Segoe UI" font-size="24" letter-spacing="0em"><tspan x="928.086" y="84.9427">4</tspan></text>
<text fill="#393939" xml:space="preserve" style="white-space: pre" font-family="Poppins" font-size="14" letter-spacing="0em"><tspan x="1135" y="160.905">Biochemistry: This subject </tspan><tspan x="1135" y="180.905">covers the biochemical </tspan><tspan x="1135" y="200.905">basis of human physiology </tspan><tspan x="1135" y="220.905">and the role of enzymes, </tspan><tspan x="1135" y="240.905">proteins, and nucleic acids </tspan><tspan x="1135" y="260.905">in living organisms.</tspan></text>
<circle cx="1161" cy="77.0052" r="26" fill="#F8EE00"/>
<text fill="black" xml:space="preserve" style="white-space: pre" font-family="Segoe UI" font-size="24" letter-spacing="0em"><tspan x="1154.33" y="84.9427">5</tspan></text>
<text fill="#393939" xml:space="preserve" style="white-space: pre" font-family="Poppins" font-size="14" letter-spacing="0em"><tspan x="1361" y="160.905">Pharmaceutical </tspan><tspan x="1361" y="180.905">Microbiology: This subject </tspan><tspan x="1361" y="200.905">covers the study of </tspan><tspan x="1361" y="220.905">microorganisms and their </tspan><tspan x="1361" y="240.905">role in the production, </tspan><tspan x="1361" y="260.905">processing, and </tspan><tspan x="1361" y="280.905">preservation of drugs.</tspan></text>
<circle cx="1387" cy="77.0052" r="26" fill="#F8EE00"/>
<text fill="black" xml:space="preserve" style="white-space: pre" font-family="Segoe UI" font-size="24" letter-spacing="0em"><tspan x="1380.3" y="84.9427">6</tspan></text>
<text fill="#393939" xml:space="preserve" style="white-space: pre" font-family="Poppins" font-size="14" letter-spacing="0em"><tspan x="218" y="431.905">Pharmaceutical Organic </tspan><tspan x="218" y="451.905">Chemistry: This subject </tspan><tspan x="218" y="471.905">covers the study of organic </tspan><tspan x="218" y="491.905">chemistry as it relates to </tspan><tspan x="218" y="511.905">drug development and&#10;</tspan><tspan x="218" y="531.905">design.</tspan></text>
<circle cx="244" cy="346.005" r="26" fill="#F8EE00"/>
<text fill="black" xml:space="preserve" style="white-space: pre" font-family="Segoe UI" font-size="24" letter-spacing="0em"><tspan x="239.172" y="354.943">1</tspan></text>
<text fill="#393939" xml:space="preserve" style="white-space: pre" font-family="Poppins" font-size="14" letter-spacing="0em"><tspan x="442" y="431.905">Pharmaceutical Inorganic </tspan><tspan x="442" y="451.905">Chemistry: This subject </tspan><tspan x="442" y="471.905">covers the study of </tspan><tspan x="442" y="491.905">inorganic chemistry as it </tspan><tspan x="442" y="511.905">relates to drug </tspan><tspan x="442" y="531.905">development and design.</tspan></text>
<circle cx="468" cy="346.005" r="26" fill="#F8EE00"/>
<text fill="black" xml:space="preserve" style="white-space: pre" font-family="Segoe UI" font-size="24" letter-spacing="0em"><tspan x="461.332" y="353.943">2</tspan></text>
<text fill="#393939" xml:space="preserve" style="white-space: pre" font-family="Poppins" font-size="14" letter-spacing="0em"><tspan x="656" y="431.905">Physical Pharmaceutics: This </tspan><tspan x="656" y="451.905">subject covers the principles </tspan><tspan x="656" y="471.905">and techniques of drug </tspan><tspan x="656" y="491.905">formulation and delivery, </tspan><tspan x="656" y="511.905">including the physicochemical </tspan><tspan x="656" y="531.905">properties of drugs and their </tspan><tspan x="656" y="551.905">effect on dosage form design.</tspan></text>
<circle cx="682" cy="346.005" r="26" fill="#F8EE00"/>
<text fill="black" xml:space="preserve" style="white-space: pre" font-family="Segoe UI" font-size="24" letter-spacing="0em"><tspan x="675.332" y="353.943">3</tspan></text>
<text fill="#393939" xml:space="preserve" style="white-space: pre" font-family="Poppins" font-size="14" letter-spacing="0em"><tspan x="900" y="431.905">Pharmacology: This subject </tspan><tspan x="900" y="451.905">covers the study of drugs </tspan><tspan x="900" y="471.905">and their effects on the </tspan><tspan x="900" y="491.905">body, including the </tspan><tspan x="900" y="511.905">mechanisms of action and </tspan><tspan x="900" y="531.905">adverse effects of drugs.</tspan></text>
<circle cx="926" cy="346.005" r="26" fill="#F8EE00"/>
<text fill="black" xml:space="preserve" style="white-space: pre" font-family="Segoe UI" font-size="24" letter-spacing="0em"><tspan x="919.086" y="353.943">4</tspan></text>
<text fill="#393939" xml:space="preserve" style="white-space: pre" font-family="Poppins" font-size="14" letter-spacing="0em"><tspan x="1124" y="431.905">Pharmacognosy and </tspan><tspan x="1124" y="451.905">Phytochemistry: This subject </tspan><tspan x="1124" y="471.905">covers the study of plant-</tspan><tspan x="1124" y="491.905">derived drugs and their </tspan><tspan x="1124" y="511.905">isolation, identification, and </tspan><tspan x="1124" y="531.905">characterisation.</tspan></text>
<circle cx="1150" cy="346.005" r="26" fill="#F8EE00"/>
<text fill="black" xml:space="preserve" style="white-space: pre" font-family="Segoe UI" font-size="24" letter-spacing="0em"><tspan x="1143.33" y="353.943">5</tspan></text>
<text fill="#393939" xml:space="preserve" style="white-space: pre" font-family="Poppins" font-size="14" letter-spacing="0em"><tspan x="1348" y="431.905">Computer Applications in </tspan><tspan x="1348" y="451.905">Pharmacy: This subject </tspan><tspan x="1348" y="471.905">covers the use of computers </tspan><tspan x="1348" y="491.905">and software in pharmacy </tspan><tspan x="1348" y="511.905">practice, including drug </tspan><tspan x="1348" y="531.905">information management </tspan><tspan x="1348" y="551.905">and analysis.</tspan></text>
<circle cx="1374" cy="346.005" r="26" fill="#F8EE00"/>
<text fill="black" xml:space="preserve" style="white-space: pre" font-family="Segoe UI" font-size="24" letter-spacing="0em"><tspan x="1367.3" y="353.943">6</tspan></text>
<text fill="#393939" xml:space="preserve" style="white-space: pre" font-family="Poppins" font-size="14" letter-spacing="0em"><tspan x="163" y="700.905">Medicinal Chemistry: This </tspan><tspan x="163" y="720.905">subject covers the principles </tspan><tspan x="163" y="740.905">and techniques of drug </tspan><tspan x="163" y="760.905">design and development, </tspan><tspan x="163" y="780.905">including the synthesis and </tspan><tspan x="163" y="800.905">evaluation of new drugs.</tspan></text>
<circle cx="189" cy="612.005" r="26" fill="#F8EE00"/>
<text fill="black" xml:space="preserve" style="white-space: pre" font-family="Segoe UI" font-size="24" letter-spacing="0em"><tspan x="184.172" y="620.943">1</tspan></text>
<text fill="#393939" xml:space="preserve" style="white-space: pre" font-family="Poppins" font-size="14" letter-spacing="0em"><tspan x="389" y="700.905">Pharmaceutical </tspan><tspan x="389" y="720.905">Biotechnology: This subject </tspan><tspan x="389" y="740.905">covers the use of </tspan><tspan x="389" y="760.905">biotechnology in drug </tspan><tspan x="389" y="780.905">development and design, </tspan><tspan x="389" y="800.905">including the production of </tspan><tspan x="389" y="820.905">recombinant proteins and </tspan><tspan x="389" y="840.905">monoclonal antibodies.</tspan></text>
<circle cx="415" cy="612.005" r="26" fill="#F8EE00"/>
<text fill="black" xml:space="preserve" style="white-space: pre" font-family="Segoe UI" font-size="24" letter-spacing="0em"><tspan x="408.332" y="619.943">2</tspan></text>
<text fill="#393939" xml:space="preserve" style="white-space: pre" font-family="Poppins" font-size="14" letter-spacing="0em"><tspan x="615" y="700.905">Pharmaceutical Engineering: </tspan><tspan x="615" y="720.905">This subject covers the </tspan><tspan x="615" y="740.905">principles and techniques of </tspan><tspan x="615" y="760.905">drug formulation and </tspan><tspan x="615" y="780.905">delivery, including the design </tspan><tspan x="615" y="800.905">and development of drug </tspan><tspan x="615" y="820.905">delivery systems.</tspan></text>
<circle cx="641" cy="612.005" r="26" fill="#F8EE00"/>
<text fill="black" xml:space="preserve" style="white-space: pre" font-family="Segoe UI" font-size="24" letter-spacing="0em"><tspan x="634.332" y="619.943">3</tspan></text>
<text fill="#393939" xml:space="preserve" style="white-space: pre" font-family="Poppins" font-size="14" letter-spacing="0em"><tspan x="841" y="700.905">Pharmacology and </tspan><tspan x="841" y="720.905">Toxicology: This subject </tspan><tspan x="841" y="740.905">covers the study of drugs </tspan><tspan x="841" y="760.905">and their effects on the </tspan><tspan x="841" y="780.905">body, including the </tspan><tspan x="841" y="800.905">mechanisms of action and </tspan><tspan x="841" y="820.905">adverse effects of drugs.</tspan></text>
<circle cx="867" cy="612.005" r="26" fill="#F8EE00"/>
<text fill="black" xml:space="preserve" style="white-space: pre" font-family="Segoe UI" font-size="24" letter-spacing="0em"><tspan x="860.086" y="619.943">4</tspan></text>
<text fill="#393939" xml:space="preserve" style="white-space: pre" font-family="Poppins" font-size="14" letter-spacing="0em"><tspan x="1067" y="700.905">Pharmacotherapy: This </tspan><tspan x="1067" y="720.905">subject covers the principles </tspan><tspan x="1067" y="740.905">and techniques of drug </tspan><tspan x="1067" y="760.905">therapy and the </tspan><tspan x="1067" y="780.905">management of various </tspan><tspan x="1067" y="800.905">diseases using&#10;</tspan><tspan x="1067" y="820.905">drugs.</tspan></text>
<circle cx="1093" cy="612.005" r="26" fill="#F8EE00"/>
<text fill="black" xml:space="preserve" style="white-space: pre" font-family="Segoe UI" font-size="24" letter-spacing="0em"><tspan x="1086.33" y="619.943">5</tspan></text>
<text fill="#393939" xml:space="preserve" style="white-space: pre" font-family="Poppins" font-size="14" letter-spacing="0em"><tspan x="1293" y="700.905">Clinical Research and Bio-</tspan><tspan x="1293" y="720.905">Statistics: This subject covers </tspan><tspan x="1293" y="740.905">the principles and techniques </tspan><tspan x="1293" y="760.905">of clinical research, including </tspan><tspan x="1293" y="780.905">the design and conduct of </tspan><tspan x="1293" y="800.905">clinical trials and the analysis </tspan><tspan x="1293" y="820.905">of clinical data.</tspan></text>
<circle cx="1319" cy="612.005" r="26" fill="#F8EE00"/>
<text fill="black" xml:space="preserve" style="white-space: pre" font-family="Segoe UI" font-size="24" letter-spacing="0em"><tspan x="1312.3" y="619.943">6</tspan></text>
<text fill="#393939" xml:space="preserve" style="white-space: pre" font-family="Poppins" font-size="14" letter-spacing="0em"><tspan x="127" y="961.905">Pharmaceutical </tspan><tspan x="127" y="981.905">Management: This subject </tspan><tspan x="127" y="1001.91">covers the principles and </tspan><tspan x="127" y="1021.91">techniques of pharmacy </tspan><tspan x="127" y="1041.91">management, including </tspan><tspan x="127" y="1061.91">inventory control, financial </tspan><tspan x="127" y="1081.91">management, and </tspan><tspan x="127" y="1101.91">marketing.</tspan></text>
<circle cx="153" cy="882.005" r="26" fill="#F8EE00"/>
<text fill="black" xml:space="preserve" style="white-space: pre" font-family="Segoe UI" font-size="24" letter-spacing="0em"><tspan x="148.172" y="890.943">1</tspan></text>
<text fill="#393939" xml:space="preserve" style="white-space: pre" font-family="Poppins" font-size="14" letter-spacing="0em"><tspan x="346" y="961.905">Pharmaceutical Marketing: </tspan><tspan x="346" y="981.905">This subject covers the </tspan><tspan x="346" y="1001.91">principles and techniques of </tspan><tspan x="346" y="1021.91">pharmaceutical marketing, </tspan><tspan x="346" y="1041.91">including market research, </tspan><tspan x="346" y="1061.91">product promotion, and </tspan><tspan x="346" y="1081.91">distribution.</tspan></text>
<circle cx="372" cy="882.005" r="26" fill="#F8EE00"/>
<text fill="black" xml:space="preserve" style="white-space: pre" font-family="Segoe UI" font-size="24" letter-spacing="0em"><tspan x="365.332" y="889.943">2</tspan></text>
<text fill="#393939" xml:space="preserve" style="white-space: pre" font-family="Poppins" font-size="14" letter-spacing="0em"><tspan x="565" y="961.905">Regulatory Affairs: This </tspan><tspan x="565" y="981.905">subject covers the laws and </tspan><tspan x="565" y="1001.91">regulations governing the </tspan><tspan x="565" y="1021.91">production, marketing, and </tspan><tspan x="565" y="1041.91">distribution of drugs, </tspan><tspan x="565" y="1061.91">including drug control laws </tspan><tspan x="565" y="1081.91">and regulations.</tspan></text>
<circle cx="591" cy="882.005" r="26" fill="#F8EE00"/>
<text fill="black" xml:space="preserve" style="white-space: pre" font-family="Segoe UI" font-size="24" letter-spacing="0em"><tspan x="584.332" y="889.943">3</tspan></text>
<text fill="#393939" xml:space="preserve" style="white-space: pre" font-family="Poppins" font-size="14" letter-spacing="0em"><tspan x="784" y="961.905">Pharmaceutical Quality Assurance: </tspan><tspan x="784" y="981.905">This subject covers the principles </tspan><tspan x="784" y="1001.91">and techniques of quality control </tspan><tspan x="784" y="1021.91">and assurance in pharmaceutical </tspan><tspan x="784" y="1041.91">production, including the design </tspan><tspan x="784" y="1061.91">and implementation of quality </tspan><tspan x="784" y="1081.91">management systems.</tspan></text>
<circle cx="810" cy="882.005" r="26" fill="#F8EE00"/>
<text fill="black" xml:space="preserve" style="white-space: pre" font-family="Segoe UI" font-size="24" letter-spacing="0em"><tspan x="803.086" y="889.943">4</tspan></text>
<text fill="#393939" xml:space="preserve" style="white-space: pre" font-family="Poppins" font-size="14" letter-spacing="0em"><tspan x="1053" y="961.905">Pharmaceutical Formulation </tspan><tspan x="1053" y="981.905">Development: This subject </tspan><tspan x="1053" y="1001.91">covers the design and </tspan><tspan x="1053" y="1021.91">development of various </tspan><tspan x="1053" y="1041.91">drug dosage forms, </tspan><tspan x="1053" y="1061.91">including tablets, capsules, </tspan><tspan x="1053" y="1081.91">and parenteral products.</tspan></text>
<circle cx="1079" cy="882.005" r="26" fill="#F8EE00"/>
<text fill="black" xml:space="preserve" style="white-space: pre" font-family="Segoe UI" font-size="24" letter-spacing="0em"><tspan x="1072.33" y="889.943">5</tspan></text>
<text fill="#393939" xml:space="preserve" style="white-space: pre" font-family="Poppins" font-size="14" letter-spacing="0em"><tspan x="1272" y="961.9">Industrial Pharmacy: This </tspan><tspan x="1272" y="981.9">subject covers the principles </tspan><tspan x="1272" y="1001.9">and techniques of </tspan><tspan x="1272" y="1021.9">pharmaceutical production and </tspan><tspan x="1272" y="1041.9">manufacturing, including the </tspan><tspan x="1272" y="1061.9">development and scale-up of </tspan><tspan x="1272" y="1081.9">drug manufacturing processes.</tspan></text>
<circle cx="1298" cy="882.005" r="26" fill="#F8EE00"/>
<text fill="black" xml:space="preserve" style="white-space: pre" font-family="Segoe UI" font-size="24" letter-spacing="0em"><tspan x="1291.3" y="889.943">6</tspan></text>
<circle cx="152.584" cy="212.584" r="62.5837" fill="#F8EE00"/>
<text fill="black" xml:space="preserve" style="white-space: pre" font-family="Frank Ruhl Libre" font-size="36" font-weight="bold" letter-spacing="0em"><tspan x="142.217" y="216.214">2</tspan></text>
<text fill="#393939" xml:space="preserve" style="white-space: pre" font-family="Segoe UI" font-size="14" letter-spacing="0em"><tspan x="136" y="239.691">YEAR</tspan></text>
</g>
<defs>
<linearGradient id="paint0_linear_0_1" x1="1522.68" y1="111.636" x2="1437.03" y2="111.636" gradientUnits="userSpaceOnUse">
<stop stop-color="#96959B"/>
<stop offset="0.0515952" stop-color="#96959B" stop-opacity="0.9322"/>
<stop offset="0.7609" stop-color="#96959B" stop-opacity="0"/>
</linearGradient>
<linearGradient id="paint1_linear_0_1" x1="147.93" y1="211.542" x2="309.377" y2="53.5127" gradientUnits="userSpaceOnUse">
<stop stop-color="#96959B"/>
<stop offset="0.0515952" stop-color="#96959B" stop-opacity="0.9322"/>
<stop offset="0.7609" stop-color="#96959B" stop-opacity="0"/>
</linearGradient>
<linearGradient id="paint2_linear_0_1" x1="1606.77" y1="495.532" x2="1498.27" y2="337.781" gradientUnits="userSpaceOnUse">
<stop stop-color="#96959B"/>
<stop offset="0.0515952" stop-color="#96959B" stop-opacity="0.9322"/>
<stop offset="0.7609" stop-color="#96959B" stop-opacity="0"/>
</linearGradient>
<linearGradient id="paint3_linear_0_1" x1="62.1599" y1="764.487" x2="216.283" y2="593.155" gradientUnits="userSpaceOnUse">
<stop stop-color="#96959B"/>
<stop offset="0.0515952" stop-color="#96959B" stop-opacity="0.9322"/>
<stop offset="0.7609" stop-color="#96959B" stop-opacity="0"/>
</linearGradient>
<linearGradient id="paint4_linear_0_1" x1="438.843" y1="1307.55" x2="563.389" y2="1135.36" gradientUnits="userSpaceOnUse">
<stop stop-color="#96959B"/>
<stop offset="0.0515952" stop-color="#96959B" stop-opacity="0.9322"/>
<stop offset="0.7609" stop-color="#96959B" stop-opacity="0"/>
</linearGradient>
<linearGradient id="paint5_linear_0_1" x1="829.279" y1="1440.13" x2="694.571" y2="1440.13" gradientUnits="userSpaceOnUse">
<stop stop-color="#96959B"/>
<stop offset="0.0515952" stop-color="#96959B" stop-opacity="0.9322"/>
<stop offset="0.7609" stop-color="#96959B" stop-opacity="0"/>
</linearGradient>
<linearGradient id="paint6_linear_0_1" x1="1597.3" y1="1040.27" x2="1432.31" y2="871.396" gradientUnits="userSpaceOnUse">
<stop stop-color="#96959B"/>
<stop offset="0.0515952" stop-color="#96959B" stop-opacity="0.9322"/>
<stop offset="0.7609" stop-color="#96959B" stop-opacity="0"/>
</linearGradient>
<clipPath id="clip0_0_1">
<rect width="1920" height="7578" fill="white" transform="translate(-115 -2443)"/>
</clipPath>
</defs>
</svg>
