<svg width="14" height="15" viewBox="0 0 14 15" fill="none" xmlns="http://www.w3.org/2000/svg">
<path d="M7.0436 14.3079C5.22444 14.3079 4.98102 14.3 4.24649 14.2664C3.68382 14.2546 3.12715 14.1481 2.59986 13.9514C2.1471 13.781 1.73707 13.5137 1.39854 13.1682C1.05368 12.8293 0.786886 12.4194 0.616751 11.9668C0.420035 11.4395 0.313543 10.8829 0.301744 10.3202C0.266664 9.58424 0.258789 9.34154 0.258789 7.52309C0.258789 5.70465 0.266664 5.46338 0.300313 4.72598C0.311996 4.16293 0.41899 3.60594 0.616751 3.07864C0.787046 2.62636 1.05355 2.21647 1.39782 1.87732C1.73687 1.53256 2.1471 1.26599 2.59986 1.09624C3.1271 0.899329 3.68379 0.792831 4.24649 0.781237C4.98389 0.746156 5.22515 0.738281 7.04288 0.738281C8.86062 0.738281 9.10403 0.746156 9.83928 0.779805C10.4019 0.791794 10.9586 0.898279 11.4859 1.09481C11.9387 1.26478 12.3487 1.53188 12.6872 1.87732C13.0325 2.2161 13.2998 2.62605 13.4705 3.07864C13.6666 3.60609 13.7731 4.16265 13.7855 4.72526C13.8191 5.46052 13.827 5.70321 13.827 7.52238C13.827 9.34154 13.8191 9.58424 13.7855 10.3188C13.7729 10.8814 13.6664 11.4379 13.4705 11.9654C13.2957 12.4158 13.0291 12.8249 12.6875 13.1666C12.346 13.5083 11.937 13.775 11.4866 13.9499C10.9593 14.1467 10.4027 14.2531 9.84 14.2649C9.10475 14.3 8.86205 14.3079 7.0436 14.3079ZM6.42433 1.86873C5.15428 1.86873 4.90943 1.87875 4.25651 1.90739C3.82027 1.91323 3.38827 1.99386 2.9793 2.14579C2.67963 2.2564 2.40857 2.43279 2.18606 2.66197C1.9567 2.88434 1.78029 3.15544 1.66988 3.45521C1.51778 3.86538 1.43715 4.29858 1.43147 4.736C1.39639 5.46338 1.38923 5.67816 1.38923 7.52238C1.38923 9.3666 1.39639 9.58352 1.42861 10.3102C1.43408 10.7474 1.51473 11.1804 1.66701 11.5903C1.77762 11.8899 1.95401 12.161 2.18319 12.3835C2.40571 12.6127 2.67677 12.7891 2.97644 12.8997C3.3866 13.0518 3.81981 13.1324 4.25722 13.1381C4.98246 13.171 5.2001 13.1775 7.0436 13.1775C8.8871 13.1775 9.10475 13.1703 9.82998 13.1381C10.2674 13.1327 10.7007 13.052 11.1108 12.8997C11.4077 12.7846 11.6774 12.6088 11.9026 12.3836C12.1279 12.1584 12.3036 11.8887 12.4188 11.5917C12.571 11.1818 12.6517 10.7488 12.6572 10.3116C12.6901 9.58567 12.6965 9.36731 12.6965 7.52524C12.6965 5.68317 12.6894 5.46481 12.6572 4.73958C12.652 4.30218 12.5716 3.86893 12.4195 3.45879C12.3089 3.15912 12.1325 2.88806 11.9033 2.66555C11.681 2.43642 11.4102 2.26003 11.1108 2.14937C10.7006 1.99726 10.2674 1.91686 9.82998 1.91168C9.1205 1.87875 8.905 1.8723 7.0436 1.8723H6.42433V1.86873ZM7.0436 10.9151C6.37272 10.9151 5.7169 10.7162 5.15908 10.3435C4.60126 9.97075 4.16649 9.44099 3.90976 8.82117C3.65302 8.20136 3.58585 7.51933 3.71673 6.86134C3.84761 6.20334 4.17067 5.59894 4.64506 5.12455C5.11945 4.65017 5.72385 4.32711 6.38184 4.19622C7.03984 4.06534 7.72187 4.13251 8.34168 4.38925C8.9615 4.64599 9.49126 5.08075 9.86399 5.63857C10.2367 6.19639 10.4356 6.85221 10.4356 7.52309C10.4345 8.42237 10.0768 9.28449 9.44089 9.92038C8.805 10.5563 7.94288 10.914 7.0436 10.9151ZM7.0436 5.25934C6.5963 5.25934 6.15904 5.39198 5.78712 5.64049C5.4152 5.889 5.12533 6.24221 4.95415 6.65547C4.78298 7.06872 4.73819 7.52345 4.82545 7.96216C4.91272 8.40087 5.12811 8.80385 5.44441 9.12014C5.7607 9.43643 6.16368 9.65183 6.60238 9.73909C7.04109 9.82636 7.49582 9.78157 7.90908 9.61039C8.32233 9.43922 8.67555 9.14934 8.92406 8.77742C9.17256 8.40551 9.3052 7.96825 9.3052 7.52095C9.30388 6.92174 9.06511 6.34748 8.6412 5.92397C8.21729 5.50047 7.64281 5.26225 7.0436 5.26149V5.25934ZM9.87078 4.12818C9.75906 4.12818 9.64985 4.09505 9.55696 4.03298C9.46407 3.97092 9.39167 3.8827 9.34892 3.77948C9.30616 3.67627 9.29498 3.56269 9.31677 3.45312C9.33857 3.34354 9.39237 3.2429 9.47136 3.1639C9.55036 3.0849 9.65101 3.0311 9.76058 3.00931C9.87016 2.98751 9.98373 2.9987 10.0869 3.04145C10.1902 3.0842 10.2784 3.1566 10.3405 3.2495C10.4025 3.34239 10.4356 3.4516 10.4356 3.56332C10.4358 3.63765 10.4214 3.71129 10.3931 3.78003C10.3648 3.84877 10.3232 3.91125 10.2708 3.96392C10.2183 4.01658 10.156 4.05838 10.0873 4.08693C10.0187 4.11549 9.94512 4.13024 9.87078 4.13033V4.12818Z" fill="#072F32"/>
</svg>
