<svg width="16" height="16" viewBox="0 0 16 16" fill="none" xmlns="http://www.w3.org/2000/svg">
<path d="M5.95688 15.138C5.95688 15.138 5.99984 6.39725 5.95688 5.4959H9.19357V6.85615C9.48872 6.35033 9.91634 5.93465 10.4303 5.65395C10.9443 5.37324 11.5251 5.23814 12.1102 5.26322C14.2401 5.26322 15.8366 6.64209 15.8366 9.60458V15.1344H12.6007V9.97686C12.6007 8.68033 12.1324 7.79616 10.9605 7.79616C10.5967 7.79741 10.2421 7.91063 9.94498 8.12044C9.64781 8.33025 9.42245 8.62647 9.29953 8.96884C9.21703 9.22109 9.18112 9.48625 9.19357 9.75135V15.138H5.95688ZM0.928948 15.138V5.4916H4.16492V15.1372L0.928948 15.138ZM2.52761 4.17573C2.29702 4.19176 2.06561 4.15981 1.84799 4.08191C1.63037 4.004 1.43126 3.88183 1.26323 3.7231C1.0952 3.56438 0.961896 3.37254 0.871734 3.15971C0.781572 2.94687 0.736508 2.71766 0.739388 2.48653C0.742267 2.2554 0.793026 2.02738 0.888462 1.81686C0.983898 1.60633 1.12194 1.41788 1.29387 1.26339C1.4658 1.10889 1.66789 0.991721 1.88739 0.919261C2.10688 0.846801 2.33901 0.820627 2.56913 0.842392C2.80042 0.823644 3.03308 0.853213 3.25232 0.929218C3.47157 1.00522 3.67261 1.126 3.84267 1.28389C4.01272 1.44177 4.14808 1.6333 4.24013 1.8463C4.33219 2.05931 4.37893 2.28913 4.37738 2.52118C4.37584 2.75322 4.32604 2.9824 4.23116 3.19416C4.13628 3.40592 3.99838 3.59563 3.82624 3.75124C3.65409 3.90684 3.45146 4.02493 3.23123 4.09801C3.01099 4.17109 2.77795 4.19756 2.54694 4.17573H2.52761Z" fill="#072F32"/>
</svg>
