<svg width="17" height="15" viewBox="0 0 17 15" fill="none" xmlns="http://www.w3.org/2000/svg">
<path d="M8.34407 4.38099L8.38039 4.97937L7.77509 4.90587C5.59338 4.6315 3.56647 3.63418 2.01787 2.07309L1.21975 1.27929L1.01395 1.86556C0.792381 2.47857 0.745149 3.14101 0.8775 3.77926C1.00985 4.4175 1.3166 5.00654 1.76365 5.4809C2.24788 5.99367 2.13893 6.06717 1.30362 5.76193C1.12512 5.67906 0.931399 5.63402 0.734645 5.62963C0.770818 6.19821 0.917685 6.75424 1.167 7.26652C1.55321 7.9411 2.13187 8.48514 2.82897 8.82905L3.42129 9.11008L2.72347 9.11959C2.04641 9.11959 2.02219 9.13169 2.09483 9.38851C2.30744 9.86421 2.61925 10.289 3.00938 10.6344C3.39951 10.9798 3.85894 11.2378 4.3569 11.3912L5.10661 11.6506L4.45375 12.0414C3.46576 12.6091 2.35114 12.9198 1.21196 12.9451C0.8771 12.93 0.541781 12.962 0.21582 13.0402C0.93995 13.5059 1.72585 13.8677 2.55053 14.115C3.86614 14.5049 5.24681 14.6259 6.61018 14.4706C7.97355 14.3154 9.29168 13.8871 10.4859 13.2114C12.2716 12.0693 13.6747 10.419 14.5146 8.47279C14.9702 7.29947 15.2474 6.0645 15.337 4.80902C15.337 4.24696 15.3733 4.17433 16.0503 3.50245C16.357 3.21205 16.64 2.89775 16.8969 2.56251C17.018 2.33077 17.0058 2.33077 16.3884 2.5383C15.3603 2.90494 15.215 2.85565 15.7235 2.30656C16.0906 1.93617 16.3716 1.4895 16.5467 0.998258C16.5467 0.96194 16.3651 1.02247 16.1593 1.13229C15.8169 1.3005 15.4608 1.43935 15.0948 1.54735L14.442 1.75488L13.8488 1.35279C13.5285 1.13361 13.1834 0.953072 12.8207 0.81494C12.1228 0.646973 11.3933 0.663662 10.7039 0.863363C9.97986 1.11079 9.35699 1.58884 8.93075 2.22422C8.50451 2.85961 8.29842 3.61725 8.34407 4.38099Z" fill="#072F32"/>
</svg>
