<svg width="227" height="50" viewBox="0 0 227 50" fill="none" xmlns="http://www.w3.org/2000/svg">
<path fill-rule="evenodd" clip-rule="evenodd" d="M23.3669 16.6992C20.9107 15.227 18.1445 17.229 18.1445 19.8987V30.3593C18.1445 33.029 20.9107 35.031 23.3669 33.5589L32.0933 28.3286C34.4473 26.9176 34.4473 23.3405 32.0933 21.9295L23.3669 16.6992Z" fill="black"/>
<path fill-rule="evenodd" clip-rule="evenodd" d="M25 0C11.1929 0 0 11.1929 0 25C0 38.8072 11.1929 50 25 50C38.8072 50 50 38.8072 50 25C50 11.1929 38.8072 0 25 0ZM3.48837 25C3.48837 13.1195 13.1195 3.48837 25 3.48837C36.8805 3.48837 46.5116 13.1195 46.5116 25C46.5116 36.8805 36.8805 46.5116 25 46.5116C13.1195 46.5116 3.48837 36.8805 3.48837 25Z" fill="#F8EE00"/>
<path d="M61.044 22.118C61.116 21.002 61.542 20.132 62.322 19.508C63.114 18.884 64.122 18.572 65.346 18.572C66.186 18.572 66.912 18.722 67.524 19.022C68.136 19.322 68.598 19.73 68.91 20.246C69.222 20.762 69.378 21.344 69.378 21.992C69.378 22.736 69.18 23.372 68.784 23.9C68.388 24.428 67.914 24.782 67.362 24.962V25.034C68.07 25.25 68.622 25.646 69.018 26.222C69.414 26.786 69.612 27.512 69.612 28.4C69.612 29.108 69.45 29.738 69.126 30.29C68.802 30.842 68.322 31.28 67.686 31.604C67.05 31.916 66.288 32.072 65.4 32.072C64.104 32.072 63.036 31.742 62.196 31.082C61.368 30.41 60.924 29.45 60.864 28.202H62.844C62.892 28.838 63.138 29.36 63.582 29.768C64.026 30.164 64.626 30.362 65.382 30.362C66.114 30.362 66.678 30.164 67.074 29.768C67.47 29.36 67.668 28.838 67.668 28.202C67.668 27.362 67.398 26.768 66.858 26.42C66.33 26.06 65.514 25.88 64.41 25.88H63.942V24.188H64.428C65.4 24.176 66.138 24.014 66.642 23.702C67.158 23.39 67.416 22.898 67.416 22.226C67.416 21.65 67.23 21.194 66.858 20.858C66.486 20.51 65.958 20.336 65.274 20.336C64.602 20.336 64.08 20.51 63.708 20.858C63.336 21.194 63.114 21.614 63.042 22.118H61.044ZM78.8235 21.92C78.6915 21.368 78.4515 20.954 78.1035 20.678C77.7555 20.402 77.2695 20.264 76.6455 20.264C75.6975 20.264 74.9895 20.63 74.5215 21.362C74.0535 22.082 73.8075 23.282 73.7835 24.962C74.0955 24.434 74.5515 24.026 75.1515 23.738C75.7515 23.45 76.3995 23.306 77.0955 23.306C77.8875 23.306 78.5835 23.48 79.1835 23.828C79.7955 24.164 80.2695 24.656 80.6055 25.304C80.9535 25.952 81.1275 26.726 81.1275 27.626C81.1275 28.466 80.9595 29.216 80.6235 29.876C80.2995 30.536 79.8135 31.058 79.1655 31.442C78.5175 31.814 77.7375 32 76.8255 32C75.5895 32 74.6175 31.73 73.9095 31.19C73.2135 30.638 72.7215 29.864 72.4335 28.868C72.1575 27.872 72.0195 26.63 72.0195 25.142C72.0195 20.75 73.5675 18.554 76.6635 18.554C77.8635 18.554 78.8055 18.878 79.4895 19.526C80.1855 20.174 80.5935 20.972 80.7135 21.92H78.8235ZM76.6455 25.034C75.9135 25.034 75.2895 25.256 74.7735 25.7C74.2695 26.132 74.0175 26.762 74.0175 27.59C74.0175 28.418 74.2515 29.078 74.7195 29.57C75.1995 30.05 75.8655 30.29 76.7175 30.29C77.4735 30.29 78.0675 30.056 78.4995 29.588C78.9435 29.12 79.1655 28.496 79.1655 27.716C79.1655 26.9 78.9495 26.252 78.5175 25.772C78.0975 25.28 77.4735 25.034 76.6455 25.034ZM83.3163 25.268C83.3163 23.192 83.6643 21.572 84.3603 20.408C85.0683 19.232 86.2803 18.644 87.9963 18.644C89.7123 18.644 90.9183 19.232 91.6143 20.408C92.3223 21.572 92.6763 23.192 92.6763 25.268C92.6763 27.368 92.3223 29.012 91.6143 30.2C90.9183 31.376 89.7123 31.964 87.9963 31.964C86.2803 31.964 85.0683 31.376 84.3603 30.2C83.6643 29.012 83.3163 27.368 83.3163 25.268ZM90.6603 25.268C90.6603 24.296 90.5943 23.474 90.4623 22.802C90.3423 22.13 90.0903 21.584 89.7063 21.164C89.3223 20.732 88.7523 20.516 87.9963 20.516C87.2403 20.516 86.6703 20.732 86.2863 21.164C85.9023 21.584 85.6443 22.13 85.5123 22.802C85.3923 23.474 85.3323 24.296 85.3323 25.268C85.3323 26.276 85.3923 27.122 85.5123 27.806C85.6323 28.49 85.8843 29.042 86.2683 29.462C86.6643 29.882 87.2403 30.092 87.9963 30.092C88.7523 30.092 89.3223 29.882 89.7063 29.462C90.1023 29.042 90.3603 28.49 90.4803 27.806C90.6003 27.122 90.6603 26.276 90.6603 25.268ZM103.785 25.718C103.785 24.494 104.067 23.396 104.631 22.424C105.207 21.452 105.981 20.696 106.953 20.156C107.937 19.604 109.011 19.328 110.175 19.328C111.507 19.328 112.689 19.658 113.721 20.318C114.765 20.966 115.521 21.89 115.989 23.09H113.523C113.199 22.43 112.749 21.938 112.173 21.614C111.597 21.29 110.931 21.128 110.175 21.128C109.347 21.128 108.609 21.314 107.961 21.686C107.313 22.058 106.803 22.592 106.431 23.288C106.071 23.984 105.891 24.794 105.891 25.718C105.891 26.642 106.071 27.452 106.431 28.148C106.803 28.844 107.313 29.384 107.961 29.768C108.609 30.14 109.347 30.326 110.175 30.326C110.931 30.326 111.597 30.164 112.173 29.84C112.749 29.516 113.199 29.024 113.523 28.364H115.989C115.521 29.564 114.765 30.488 113.721 31.136C112.689 31.784 111.507 32.108 110.175 32.108C108.999 32.108 107.925 31.838 106.953 31.298C105.981 30.746 105.207 29.984 104.631 29.012C104.067 28.04 103.785 26.942 103.785 25.718ZM117.707 26.996C117.707 26 117.911 25.118 118.319 24.35C118.739 23.582 119.303 22.988 120.011 22.568C120.731 22.136 121.523 21.92 122.387 21.92C123.167 21.92 123.845 22.076 124.421 22.388C125.009 22.688 125.477 23.066 125.825 23.522V22.082H127.895V32H125.825V30.524C125.477 30.992 125.003 31.382 124.403 31.694C123.803 32.006 123.119 32.162 122.351 32.162C121.499 32.162 120.719 31.946 120.011 31.514C119.303 31.07 118.739 30.458 118.319 29.678C117.911 28.886 117.707 27.992 117.707 26.996ZM125.825 27.032C125.825 26.348 125.681 25.754 125.393 25.25C125.117 24.746 124.751 24.362 124.295 24.098C123.839 23.834 123.347 23.702 122.819 23.702C122.291 23.702 121.799 23.834 121.343 24.098C120.887 24.35 120.515 24.728 120.227 25.232C119.951 25.724 119.813 26.312 119.813 26.996C119.813 27.68 119.951 28.28 120.227 28.796C120.515 29.312 120.887 29.708 121.343 29.984C121.811 30.248 122.303 30.38 122.819 30.38C123.347 30.38 123.839 30.248 124.295 29.984C124.751 29.72 125.117 29.336 125.393 28.832C125.681 28.316 125.825 27.716 125.825 27.032ZM142.596 21.92C143.376 21.92 144.072 22.082 144.684 22.406C145.308 22.73 145.794 23.21 146.142 23.846C146.502 24.482 146.682 25.25 146.682 26.15V32H144.648V26.456C144.648 25.568 144.426 24.89 143.982 24.422C143.538 23.942 142.932 23.702 142.164 23.702C141.396 23.702 140.784 23.942 140.328 24.422C139.884 24.89 139.662 25.568 139.662 26.456V32H137.628V26.456C137.628 25.568 137.406 24.89 136.962 24.422C136.518 23.942 135.912 23.702 135.144 23.702C134.376 23.702 133.764 23.942 133.308 24.422C132.864 24.89 132.642 25.568 132.642 26.456V32H130.59V22.082H132.642V23.216C132.978 22.808 133.404 22.49 133.92 22.262C134.436 22.034 134.988 21.92 135.576 21.92C136.368 21.92 137.076 22.088 137.7 22.424C138.324 22.76 138.804 23.246 139.14 23.882C139.44 23.282 139.908 22.808 140.544 22.46C141.18 22.1 141.864 21.92 142.596 21.92ZM151.345 23.54C151.693 23.084 152.167 22.7 152.767 22.388C153.367 22.076 154.045 21.92 154.801 21.92C155.665 21.92 156.451 22.136 157.159 22.568C157.879 22.988 158.443 23.582 158.851 24.35C159.259 25.118 159.463 26 159.463 26.996C159.463 27.992 159.259 28.886 158.851 29.678C158.443 30.458 157.879 31.07 157.159 31.514C156.451 31.946 155.665 32.162 154.801 32.162C154.045 32.162 153.373 32.012 152.785 31.712C152.197 31.4 151.717 31.016 151.345 30.56V36.716H149.293V22.082H151.345V23.54ZM157.375 26.996C157.375 26.312 157.231 25.724 156.943 25.232C156.667 24.728 156.295 24.35 155.827 24.098C155.371 23.834 154.879 23.702 154.351 23.702C153.835 23.702 153.343 23.834 152.875 24.098C152.419 24.362 152.047 24.746 151.759 25.25C151.483 25.754 151.345 26.348 151.345 27.032C151.345 27.716 151.483 28.316 151.759 28.832C152.047 29.336 152.419 29.72 152.875 29.984C153.343 30.248 153.835 30.38 154.351 30.38C154.879 30.38 155.371 30.248 155.827 29.984C156.295 29.708 156.667 29.312 156.943 28.796C157.231 28.28 157.375 27.68 157.375 26.996ZM170.475 22.082V32H168.423V30.83C168.099 31.238 167.673 31.562 167.145 31.802C166.629 32.03 166.077 32.144 165.489 32.144C164.709 32.144 164.007 31.982 163.383 31.658C162.771 31.334 162.285 30.854 161.925 30.218C161.577 29.582 161.403 28.814 161.403 27.914V22.082H163.437V27.608C163.437 28.496 163.659 29.18 164.103 29.66C164.547 30.128 165.153 30.362 165.921 30.362C166.689 30.362 167.295 30.128 167.739 29.66C168.195 29.18 168.423 28.496 168.423 27.608V22.082H170.475ZM176.782 32.162C176.002 32.162 175.3 32.024 174.676 31.748C174.064 31.46 173.578 31.076 173.218 30.596C172.858 30.104 172.666 29.558 172.642 28.958H174.766C174.802 29.378 175 29.732 175.36 30.02C175.732 30.296 176.194 30.434 176.746 30.434C177.322 30.434 177.766 30.326 178.078 30.11C178.402 29.882 178.564 29.594 178.564 29.246C178.564 28.874 178.384 28.598 178.024 28.418C177.676 28.238 177.118 28.04 176.35 27.824C175.606 27.62 175 27.422 174.532 27.23C174.064 27.038 173.656 26.744 173.308 26.348C172.972 25.952 172.804 25.43 172.804 24.782C172.804 24.254 172.96 23.774 173.272 23.342C173.584 22.898 174.028 22.55 174.604 22.298C175.192 22.046 175.864 21.92 176.62 21.92C177.748 21.92 178.654 22.208 179.338 22.784C180.034 23.348 180.406 24.122 180.454 25.106H178.402C178.366 24.662 178.186 24.308 177.862 24.044C177.538 23.78 177.1 23.648 176.548 23.648C176.008 23.648 175.594 23.75 175.306 23.954C175.018 24.158 174.874 24.428 174.874 24.764C174.874 25.028 174.97 25.25 175.162 25.43C175.354 25.61 175.588 25.754 175.864 25.862C176.14 25.958 176.548 26.084 177.088 26.24C177.808 26.432 178.396 26.63 178.852 26.834C179.32 27.026 179.722 27.314 180.058 27.698C180.394 28.082 180.568 28.592 180.58 29.228C180.58 29.792 180.424 30.296 180.112 30.74C179.8 31.184 179.356 31.532 178.78 31.784C178.216 32.036 177.55 32.162 176.782 32.162ZM195.555 19.49V21.164H192.225V32H190.173V21.164H186.825V19.49H195.555ZM201.935 32.162C200.999 32.162 200.153 31.952 199.397 31.532C198.641 31.1 198.047 30.5 197.615 29.732C197.183 28.952 196.967 28.052 196.967 27.032C196.967 26.024 197.189 25.13 197.633 24.35C198.077 23.57 198.683 22.97 199.451 22.55C200.219 22.13 201.077 21.92 202.025 21.92C202.973 21.92 203.831 22.13 204.599 22.55C205.367 22.97 205.973 23.57 206.417 24.35C206.861 25.13 207.083 26.024 207.083 27.032C207.083 28.04 206.855 28.934 206.399 29.714C205.943 30.494 205.319 31.1 204.527 31.532C203.747 31.952 202.883 32.162 201.935 32.162ZM201.935 30.38C202.463 30.38 202.955 30.254 203.411 30.002C203.879 29.75 204.257 29.372 204.545 28.868C204.833 28.364 204.977 27.752 204.977 27.032C204.977 26.312 204.839 25.706 204.563 25.214C204.287 24.71 203.921 24.332 203.465 24.08C203.009 23.828 202.517 23.702 201.989 23.702C201.461 23.702 200.969 23.828 200.513 24.08C200.069 24.332 199.715 24.71 199.451 25.214C199.187 25.706 199.055 26.312 199.055 27.032C199.055 28.1 199.325 28.928 199.865 29.516C200.417 30.092 201.107 30.38 201.935 30.38ZM218.094 22.082V32H216.042V30.83C215.718 31.238 215.292 31.562 214.764 31.802C214.248 32.03 213.696 32.144 213.108 32.144C212.328 32.144 211.626 31.982 211.002 31.658C210.39 31.334 209.904 30.854 209.544 30.218C209.196 29.582 209.022 28.814 209.022 27.914V22.082H211.056V27.608C211.056 28.496 211.278 29.18 211.722 29.66C212.166 30.128 212.772 30.362 213.54 30.362C214.308 30.362 214.914 30.128 215.358 29.66C215.814 29.18 216.042 28.496 216.042 27.608V22.082H218.094ZM222.853 23.522C223.153 23.018 223.549 22.628 224.041 22.352C224.545 22.064 225.139 21.92 225.823 21.92V24.044H225.301C224.497 24.044 223.885 24.248 223.465 24.656C223.057 25.064 222.853 25.772 222.853 26.78V32H220.801V22.082H222.853V23.522Z" fill="black"/>
</svg>
