<svg width="64" height="64" viewBox="0 0 64 64" fill="none" xmlns="http://www.w3.org/2000/svg">
<g clip-path="url(#clip0_197_391)">
<circle cx="31.5" cy="35.5" r="24.5" fill="#F9F9EF"/>
<path d="M47.9766 45.3768V50.8064C47.9766 51.5277 48.5667 52.1178 49.288 52.1178H54.6913C55.4126 52.1178 56.0028 51.5277 55.9897 50.8064V45.3768C55.9897 45.0227 55.8454 44.6818 55.5962 44.4326L52.8946 41.8227C52.3831 41.3244 51.5831 41.3244 51.0716 41.8227L48.37 44.4326C48.1208 44.6818 47.9766 45.0227 47.9766 45.3768ZM50.5995 45.9277L51.9897 44.5768L53.3798 45.9277V49.4949H50.6126H50.5995V45.9277Z" fill="#979797"/>
<path d="M32.9345 35.1079C32.6853 34.8587 32.3574 34.7145 32.0033 34.7145C31.6492 34.7145 31.3214 34.8587 31.0722 35.1079L28.3706 37.8227C28.1214 38.0587 27.9902 38.3997 27.9902 38.7407V42.7669C27.9902 43.4883 28.5804 44.0784 29.3017 44.0784H34.705C35.4263 44.0784 36.0165 43.4883 36.0165 42.7669V38.7407C36.0165 38.3997 35.8853 38.0719 35.6361 37.8227L32.9345 35.1079ZM33.3935 41.4555H30.6132V39.2915L32.0033 37.9014L33.3935 39.2915V41.4555Z" fill="#979797"/>
<path d="M11.098 41.8227L8.39637 44.4326C8.14719 44.6818 8.00293 45.0227 8.00293 45.3768V50.8064C8.00293 51.5277 8.59309 52.1178 9.31441 52.1178H14.7046C15.439 52.1178 16.016 51.5277 16.016 50.8064V45.3768C16.016 45.0227 15.8718 44.6818 15.6226 44.4326L12.921 41.8227C12.4095 41.3244 11.6095 41.3244 11.098 41.8227ZM13.4062 49.4949H10.6259V45.9277L12.016 44.5768L13.4062 45.9277V49.4949Z" fill="#979797"/>
<path d="M28.3706 25.7441C28.1214 25.9801 27.9902 26.3211 27.9902 26.6621V30.6883C27.9902 31.4096 28.5804 31.9998 29.3017 31.9998H34.705C35.4263 31.9998 36.0165 31.4227 36.0165 30.6883V26.6621C36.0165 26.3211 35.8853 25.9932 35.6361 25.7441L32.9345 23.0293C32.6853 22.7801 32.3574 22.6359 32.0033 22.6359C31.6492 22.6359 31.3214 22.7801 31.0722 23.0293L28.3706 25.7441ZM33.3935 27.1998V29.3768H30.6132V27.1998L32.0033 25.8096L33.3935 27.1998Z" fill="#979797"/>
<path d="M63.6098 40.4197L47.1115 24.3279C46.6656 23.8951 45.9705 23.8295 45.4459 24.1836L42.1934 26.4263L33.3016 16.7082V14.505H43.9902C44.7115 14.505 45.3016 13.9148 45.3016 13.1935V5.15413C45.3016 4.43282 44.7115 3.84265 43.9902 3.84265H32.0033C31.282 3.84265 30.6918 4.43282 30.6918 5.15413V16.7082L21.6295 26.623L18.0492 24.1836C17.5246 23.8295 16.8295 23.8951 16.3836 24.341L3.08525 37.7181L0.383607 40.4328C-0.127869 40.9443 -0.127869 41.7705 0.383607 42.282C0.645902 42.5312 0.973771 42.6623 1.30164 42.6623C1.64262 42.6623 1.97049 42.5312 2.23279 42.2689L2.6918 41.8099V58.8459C2.6918 59.5672 3.28197 60.1574 4.00328 60.1574H59.9771C60.6984 60.1574 61.2885 59.5672 61.2885 58.8459V41.8361L61.7607 42.2951C62.0098 42.5443 62.3508 42.6623 62.6787 42.6623C63.0197 42.6623 63.3607 42.5312 63.623 42.2689C64.1344 41.7443 64.1213 40.9181 63.6098 40.4197ZM33.3148 6.4656H42.6918V11.882H33.3148V6.4656ZM15.1246 35.6722C15.6623 36.1574 16.4885 36.1181 16.9738 35.5935L18.6918 33.7181V57.5345H5.31475V39.1738H5.32787L17.4721 26.9508L19.8459 28.564L15.0459 33.823C14.5607 34.3607 14.6 35.1869 15.1246 35.6722ZM34.6918 57.5476H29.3148V52.2099L32.0033 49.8492L34.6918 52.2099V57.5476ZM42.6918 57.5345H37.3148V51.6066C37.3148 51.2394 37.1574 50.8722 36.8689 50.623L32.8689 47.1082C32.3705 46.6754 31.6361 46.6754 31.1377 47.1082L27.1377 50.623C26.8492 50.8722 26.6918 51.2262 26.6918 51.6066V57.5345H21.3148V30.8459L32.0033 19.1607L42.6918 30.8459V57.5345ZM48.9475 33.8492L43.9639 28.4066L46.0361 26.9771L58.6656 39.2918V57.5476H45.3016V33.7312L47.0197 35.6066C47.282 35.8951 47.6361 36.0394 47.9902 36.0394C48.3049 36.0394 48.6197 35.9213 48.8689 35.6984C49.4066 35.2131 49.4459 34.3738 48.9475 33.8492Z" fill="#979797"/>
</g>
<defs>
<clipPath id="clip0_197_391">
<rect width="64" height="64" fill="white"/>
</clipPath>
</defs>
</svg>
