<svg width="105" height="105" viewBox="0 0 105 105" fill="none" xmlns="http://www.w3.org/2000/svg">
<circle cx="52.0114" cy="52.0114" r="52.0114" fill="#F8EE00"/>
<path d="M64.2022 64.6638C62.7446 63.5009 58.2036 61.2633 57.0833 61.0054C55.9652 60.7454 54.6117 61.8267 54.2389 63.1694C53.8641 64.5128 53.1649 64.3857 53.1649 64.3857C53.1649 64.3857 50.4715 63.3961 45.5448 58.4882C40.6173 53.5788 39.6213 50.889 39.6213 50.889C39.6213 50.889 39.4898 50.1899 40.8325 49.8099C42.1724 49.4336 43.2493 48.0757 42.9864 46.9575C42.7249 45.8394 40.4692 41.305 39.302 39.8538C38.1319 38.4028 35.8719 39.1511 35.375 39.5129C34.8752 39.8735 29.6227 43.2126 31.2024 49.3614C32.7841 55.511 36.1775 60.4305 39.9066 64.1474C43.6365 67.8628 48.5682 71.2373 54.7229 72.796C60.8767 74.3554 64.1971 69.0907 64.5562 68.5909C64.9158 68.0926 65.6554 65.8289 64.2022 64.6638Z" fill="black"/>
<path d="M51.2717 46.4845C52.0879 46.8846 53.3859 47.6271 54.8904 49.1309C56.395 50.6355 57.1367 51.9334 57.5368 52.7488C57.9572 53.6062 58.2677 53.7789 58.5191 53.7203C58.9337 53.6242 59.0716 53.513 59.11 52.6485C59.1417 51.9118 58.7893 49.7145 56.548 47.4733C54.3067 45.232 52.1088 44.8803 51.3735 44.912C50.5082 44.9489 50.3984 45.0876 50.3024 45.5036C50.2438 45.7535 50.4143 46.0648 51.2717 46.4845Z" fill="black"/>
<path opacity="0.5" d="M52.5861 37.8337C51.5302 37.833 51.2636 38.4867 51.2318 38.7402C51.1668 39.2523 51.5446 39.6676 52.3289 39.8923C53.226 40.1487 56.7797 41.2884 59.757 44.2657C62.735 47.243 63.8755 50.7973 64.1311 51.6944C64.3551 52.4781 64.7696 52.8552 65.2824 52.7909C65.5373 52.7605 66.1902 52.4933 66.1888 51.4373C66.1896 50.6016 65.6788 46.2253 61.7381 42.283C57.7982 38.3429 53.4196 37.8329 52.5861 37.8337Z" fill="black"/>
<path opacity="0.5" d="M66.9596 37.0624C61.3148 31.4177 55.3597 30.9316 54.3361 30.9049C53.0865 30.8731 52.5911 31.4336 52.5918 32.0085C52.5911 32.4982 53.0931 33.0016 53.8399 33.1938C54.9609 33.4812 59.4044 34.1811 64.6221 39.399C69.8414 44.6168 70.5399 49.061 70.8288 50.1828C71.0202 50.9281 71.5243 51.4309 72.0133 51.4309C72.5889 51.4309 73.1495 50.936 73.1162 49.6873C73.0903 48.6631 72.6042 42.7078 66.9596 37.0624Z" fill="black"/>
</svg>
