<svg width="105" height="105" viewBox="0 0 105 105" fill="none" xmlns="http://www.w3.org/2000/svg">
<circle cx="52.0114" cy="52.0114" r="52.0114" fill="#F8EE00"/>
<path fill-rule="evenodd" clip-rule="evenodd" d="M68.181 43.1565L67.5149 42.7274V48.0226C67.5167 49.108 67.2057 50.1708 66.619 51.0839C66.0322 51.9971 65.1947 52.7217 64.2068 53.171L54.9938 57.3484C54.1082 57.7544 53.1455 57.9645 52.1712 57.9645C51.197 57.9645 50.2343 57.7544 49.3487 57.3484C46.8083 56.2194 42.7777 54.3678 40.1357 53.171C39.1477 52.7217 38.3102 51.9971 37.7235 51.0839C37.1368 50.1708 36.8258 49.108 36.8276 48.0226V42.7274L36.1615 43.1565C35.529 43.5729 35.0114 44.1417 34.6563 44.8105C34.3012 45.4793 34.1199 46.2267 34.1292 46.9839V64.4839C34.1292 65.6817 34.6051 66.8304 35.452 67.6773C36.2989 68.5243 37.4476 69.0001 38.6454 69.0001H65.7423C66.94 69.0001 68.0887 68.5243 68.9357 67.6773C69.7826 66.8304 70.2584 65.6817 70.2584 64.4839V46.9839C70.2628 46.2225 70.0747 45.4724 69.7115 44.8032C69.3483 44.1341 68.8218 43.5676 68.181 43.1565Z" fill="black"/>
<path opacity="0.5" fill-rule="evenodd" clip-rule="evenodd" d="M41.117 51.1162L50.3186 55.2936C50.9055 55.5603 51.5426 55.6983 52.1872 55.6983C52.8318 55.6983 53.4689 55.5603 54.0558 55.2936L63.2687 51.1162C63.8626 50.8466 64.366 50.4113 64.7185 49.8625C65.071 49.3137 65.2576 48.6749 65.2558 48.0226V37.3871C65.2558 36.4888 64.8989 35.6273 64.2637 34.9921C63.6285 34.3569 62.767 34 61.8687 34H42.517C41.6187 34 40.7572 34.3569 40.122 34.9921C39.4868 35.6273 39.1299 36.4888 39.1299 37.3871V48.0226C39.1281 48.6749 39.3147 49.3137 39.6672 49.8625C40.0196 50.4113 40.5231 50.8466 41.117 51.1162ZM48.2412 42.2307H51.0638V39.4081C51.0638 39.1086 51.1828 38.8215 51.3945 38.6097C51.6062 38.398 51.8934 38.279 52.1928 38.279C52.4923 38.279 52.7795 38.398 52.9912 38.6097C53.2029 38.8215 53.3219 39.1086 53.3219 39.4081V42.2307H56.1445C56.4439 42.2307 56.7311 42.3496 56.9428 42.5614C57.1546 42.7731 57.2735 43.0603 57.2735 43.3597C57.2735 43.6592 57.1546 43.9463 56.9428 44.1581C56.7311 44.3698 56.4439 44.4887 56.1445 44.4887H53.3219V47.3113C53.3219 47.6108 53.2029 47.898 52.9912 48.1097C52.7795 48.3214 52.4923 48.4404 52.1928 48.4404C51.8934 48.4404 51.6062 48.3214 51.3945 48.1097C51.1828 47.898 51.0638 47.6108 51.0638 47.3113V44.4887H48.2412C47.9418 44.4887 47.6546 44.3698 47.4429 44.1581C47.2311 43.9463 47.1122 43.6592 47.1122 43.3597C47.1122 43.0603 47.2311 42.7731 47.4429 42.5614C47.6546 42.3496 47.9418 42.2307 48.2412 42.2307Z" fill="black"/>
</svg>
