<svg width="224" height="299" viewBox="0 0 224 299" fill="none" xmlns="http://www.w3.org/2000/svg">
<path d="M47.5 76C54.1667 69.8333 68.6 57.2 73 56H160L185.5 83.5L188.5 107.5L180.5 136.5L156 268L142 290L121.5 292.5L105 284L82 290L63.5 275.5L47.5 265.5L50.5 164L47.5 139.5L40 117.5V98L47.5 76Z" fill="white"/>
<path d="M78.1563 76.2292C79.2128 76.2292 80.2502 76.3244 81.2687 76.4482C80.0694 77.8092 79.3175 79.4939 79.3175 81.3594C79.3175 85.7853 83.3912 89.3736 88.3786 89.3736C91.9002 89.3736 94.9269 87.5747 96.4403 84.9572C98.6961 88.003 100.029 91.6388 100.029 95.5507C100.029 106.23 90.2346 114.882 78.1563 114.882C66.0684 114.882 56.2649 106.23 56.2649 95.5507C56.2649 84.8716 66.0684 76.2292 78.1563 76.2292Z" fill="#225354"/>
<path d="M152.482 114.977C140.347 114.977 130.486 106.287 130.486 95.5509C130.486 84.8147 140.347 76.1248 152.482 76.1248C154.786 76.1248 157.022 76.4293 159.107 77.029C158.193 78.2853 157.641 79.7606 157.641 81.3596C157.641 85.7855 161.696 89.3738 166.702 89.3738C168.91 89.3738 170.9 88.6504 172.47 87.4892C173.745 89.9544 174.469 92.667 174.469 95.5604C174.478 106.287 164.627 114.977 152.482 114.977Z" fill="#225354"/>
<path d="M40.5982 129.939C40.5982 129.939 41.4168 130.577 42.7778 131.776C38.5233 124.133 36.1629 115.32 36.1629 105.421C36.1629 90.2875 39.1134 79.5226 48.4696 68.1487C46.5945 66.1689 45.4238 63.6372 44.6053 60.9721L43.7106 60.7151V56.9841C42.9111 51.7492 43.2823 46.5334 43.7106 43.4495V14.2579H27.6443V47.2091H35.6679V75.0873H10.6833V47.2091H16.0419V14.2579H6.21931V0H224V14.2579H190.973V60.7247L182.644 63.047C181.873 64.9126 180.931 66.7019 179.551 68.1582C188.907 79.5322 191.858 90.297 191.858 105.431C191.858 116.195 189.069 125.675 184.101 133.785C184.472 134.356 184.862 134.917 185.214 135.507C196.588 138.877 228.987 152.944 216.243 202.114C200.919 261.344 157.755 286.12 157.755 286.12C157.755 286.12 156.137 283.721 153.891 279.248C152.301 289.879 141.527 298.122 128.478 298.122C119.141 298.122 110.965 293.877 106.472 287.576C101.77 292.268 94.746 295.286 86.8651 295.286C72.7309 295.286 61.2237 285.587 61.2237 273.689C61.2237 273.489 61.2617 273.299 61.2617 273.09C58.0256 279.105 55.589 282.36 55.589 282.36C55.589 282.36 13.9003 255.691 1.94574 195.87C-9.98027 136.031 40.5982 129.939 40.5982 129.939ZM45.519 95.5509C45.519 111.446 60.1577 124.381 78.1561 124.381C96.1641 124.381 110.784 111.446 110.784 95.5509C110.784 89.25 108.404 83.4631 104.521 78.7136L68.6762 68.1011C55.313 71.7274 45.519 82.5969 45.519 95.5509ZM115.105 81.8546L113.658 81.4167C113.972 82.0449 114.363 82.6445 114.648 83.2918C114.876 82.7492 115.219 82.2733 115.476 81.7498L115.105 81.8546ZM114.191 109.628C106.739 110.066 106.139 117.185 106.139 117.185L113.858 126.094L123.148 117.185C123.148 117.185 121.663 109.2 114.191 109.628ZM53.4285 64.5033L55.9412 67.1683C57.0358 66.4925 58.2255 65.9405 59.4057 65.3599L52.7908 63.4087C53.0192 63.7419 53.1524 64.1987 53.4285 64.5033ZM171.461 66.1499C171.813 66.3403 172.194 66.483 172.536 66.6829L173.583 65.5693L171.461 66.1499ZM162.542 68.6341L124.223 79.3133C120.635 83.939 118.512 89.526 118.512 95.5509C118.512 111.446 133.151 124.381 151.14 124.381C169.138 124.381 183.777 111.446 183.777 95.5509C183.768 83.2156 174.906 72.7458 162.542 68.6341ZM128.478 289.556C137.272 289.556 144.439 283.721 144.439 276.545C144.439 269.349 137.272 263.515 128.478 263.515C119.683 263.515 112.526 269.349 112.526 276.545C112.526 283.721 119.683 289.556 128.478 289.556ZM86.8841 286.7C95.6787 286.7 102.855 280.866 102.855 273.689C102.855 266.503 95.6787 260.659 86.8841 260.659C78.0895 260.659 70.932 266.503 70.932 273.689C70.932 280.866 78.0895 286.7 86.8841 286.7ZM77.4232 204.741C77.9087 227.356 72.9118 246.116 67.5912 259.517C72.2931 254.967 79.2126 252.102 86.8841 252.102C96.2308 252.102 104.416 256.357 108.89 262.648C113.592 257.956 120.635 254.948 128.487 254.948C135.559 254.948 141.974 257.375 146.609 261.278C142.26 247.772 138.7 229.355 140.404 207.606C142.193 184.887 151.806 167.117 161.277 154.762C148.17 161.929 131.79 165.746 114.01 165.794C92.2903 165.746 72.6643 160.045 58.5301 149.508C67.6198 162.329 76.8902 181.06 77.4232 204.741ZM114.001 160.092C150.455 160.016 180.57 143.084 184.862 112.94C178.066 123.182 165.503 130.101 151.13 130.101C140.413 130.101 130.705 126.256 123.633 120.069L122.833 120.821L113.991 132.652L105.102 120.488C98.0963 126.427 88.5974 130.101 78.1371 130.101C62.5467 130.101 49.0978 121.973 42.835 110.285C45.6903 142.084 76.4905 160.016 114.001 160.092Z" fill="#FECC53"/>
</svg>
