<svg width="131" height="131" viewBox="0 0 131 131" fill="none" xmlns="http://www.w3.org/2000/svg">
<g id="Group 238196">
<circle id="Ellipse 325" cx="65.4133" cy="65.093" r="65.093" fill="#1C494A"/>
<g id="Group 238193">
<path id="Vector" d="M96.5876 33.752H34.9792C34.4786 33.752 34.0723 34.1583 34.0723 34.6589V63.5939C34.0723 64.0945 34.4786 64.5009 34.9792 64.5009H44.941C42.2837 66.1388 40.4934 69.0519 40.4934 72.3967V73.1857C40.4934 73.6863 40.8997 74.0927 41.4003 74.0927H58.1824C58.683 74.0927 59.0893 73.6863 59.0893 73.1857V72.3967C59.0893 69.0519 57.299 66.1388 54.6417 64.5009H96.5858C97.0865 64.5009 97.4928 64.0945 97.4928 63.5939V34.6589C97.4946 34.1583 97.0883 33.752 96.5876 33.752ZM49.7932 63.0969C46.9508 63.0969 44.6363 60.7842 44.6363 57.94C44.6363 55.0959 46.949 52.7832 49.7932 52.7832C52.6373 52.7832 54.95 55.0959 54.95 57.94C54.95 60.7842 52.6355 63.0969 49.7932 63.0969ZM57.2754 72.2788H42.3091C42.3726 68.2048 45.7047 64.9108 49.7914 64.9108C53.8798 64.9108 57.2137 68.2048 57.2754 72.2788ZM95.6807 62.687H54.8684C56.0347 61.4408 56.7621 59.7793 56.7621 57.9419C56.7621 54.0982 53.635 50.9711 49.7914 50.9711C45.9477 50.9711 42.8206 54.0982 42.8206 57.9419C42.8206 59.7793 43.5498 61.4408 44.7143 62.687H35.8861V35.5658H95.6807V62.687Z" fill="white"/>
<path id="Vector_2" d="M40.6533 95.7612V96.3307C40.6533 96.8314 41.0596 97.2377 41.5603 97.2377H53.6879H65.8155H77.9431H90.0707C90.5713 97.2377 90.9776 96.8314 90.9776 96.3307V95.7612C90.9776 93.0458 89.4014 90.7132 87.1286 89.5632C88.4364 88.6 89.2961 87.0618 89.2961 85.3169C89.2961 82.402 86.9236 80.0276 84.0069 80.0276C81.0902 80.0276 78.7176 82.4001 78.7176 85.3169C78.7176 87.0618 79.5774 88.6 80.8852 89.5632C79.6409 90.1926 78.6215 91.1775 77.9431 92.391C77.2647 91.1757 76.2453 90.1926 75.001 89.5632C76.3088 88.6 77.1685 87.0618 77.1685 85.3169C77.1685 82.402 74.796 80.0276 71.8793 80.0276C68.9626 80.0276 66.59 82.4001 66.59 85.3169C66.59 87.0618 67.4498 88.6 68.7576 89.5632C67.5133 90.1926 66.4939 91.1775 65.8155 92.391C65.1371 91.1757 64.1177 90.1926 62.8734 89.5632C64.1812 88.6 65.0409 87.0618 65.0409 85.3169C65.0409 82.402 62.6684 80.0276 59.7517 80.0276C56.8349 80.0276 54.4624 82.4001 54.4624 85.3169C54.4624 87.0618 55.3222 88.6 56.63 89.5632C55.3857 90.1926 54.3663 91.1775 53.6879 92.391C53.0095 91.1757 51.9901 90.1926 50.7458 89.5632C52.0536 88.6 52.9133 87.0618 52.9133 85.3169C52.9133 82.402 50.5408 80.0276 47.6241 80.0276C44.7073 80.0276 42.3348 82.4001 42.3348 85.3169C42.3348 87.0618 43.1946 88.6 44.5024 89.5632C42.2314 90.7113 40.6533 93.044 40.6533 95.7612ZM80.5315 85.315C80.5315 83.3996 82.0896 81.8397 84.0069 81.8397C85.9241 81.8397 87.4823 83.3978 87.4823 85.315C87.4823 87.2323 85.9241 88.7904 84.0069 88.7904C82.0896 88.7904 80.5315 87.2305 80.5315 85.315ZM84.0069 90.6043C86.7368 90.6043 88.9787 92.7374 89.1529 95.4238H78.8609C79.035 92.7374 81.2752 90.6043 84.0069 90.6043ZM68.4039 85.315C68.4039 83.3996 69.962 81.8397 71.8793 81.8397C73.7965 81.8397 75.3547 83.3978 75.3547 85.315C75.3547 87.2323 73.7965 88.7904 71.8793 88.7904C69.962 88.7904 68.4039 87.2305 68.4039 85.315ZM71.8793 90.6043C74.6092 90.6043 76.8511 92.7374 77.0252 95.4238H66.7333C66.9074 92.7374 69.1476 90.6043 71.8793 90.6043ZM56.2781 85.315C56.2781 83.3996 57.8362 81.8397 59.7535 81.8397C61.6708 81.8397 63.2289 83.3978 63.2289 85.315C63.2289 87.2323 61.6708 88.7904 59.7535 88.7904C57.8362 88.7904 56.2781 87.2305 56.2781 85.315ZM59.7517 90.6043C62.4816 90.6043 64.7235 92.7374 64.8976 95.4238H54.6057C54.7798 92.7374 57.0218 90.6043 59.7517 90.6043ZM44.1505 85.315C44.1505 83.3996 45.7086 81.8397 47.6259 81.8397C49.5431 81.8397 51.1013 83.3978 51.1013 85.315C51.1013 87.2323 49.5431 88.7904 47.6259 88.7904C45.7086 88.7904 44.1505 87.2305 44.1505 85.315ZM47.6241 90.6043C50.354 90.6043 52.5959 92.7374 52.77 95.4238H42.4781C42.6522 92.7374 44.8942 90.6043 47.6241 90.6043Z" fill="white"/>
<path id="Vector_3" d="M44.0612 42.941H87.5944C88.095 42.941 88.5013 42.5346 88.5013 42.034C88.5013 41.5334 88.095 41.1271 87.5944 41.1271H44.0612C43.5606 41.1271 43.1543 41.5334 43.1543 42.034C43.1543 42.5346 43.5588 42.941 44.0612 42.941Z" fill="white"/>
<path id="Vector_4" d="M87.5942 48.2302H64.1462C63.6456 48.2302 63.2393 48.6365 63.2393 49.1372C63.2393 49.6378 63.6456 50.0441 64.1462 50.0441H87.5942C88.0949 50.0441 88.5012 49.6378 88.5012 49.1372C88.5012 48.6365 88.0949 48.2302 87.5942 48.2302Z" fill="white"/>
<path id="Vector_5" d="M87.5942 55.3352H64.1462C63.6456 55.3352 63.2393 55.7415 63.2393 56.2421C63.2393 56.7428 63.6456 57.1491 64.1462 57.1491H87.5942C88.0949 57.1491 88.5012 56.7428 88.5012 56.2421C88.5012 55.7415 88.0949 55.3352 87.5942 55.3352Z" fill="white"/>
</g>
</g>
</svg>
