<svg width="138" height="138" viewBox="0 0 138 138" fill="none" xmlns="http://www.w3.org/2000/svg">
<circle cx="69" cy="69" r="69" fill="#FFF5DD"/>
<path fill-rule="evenodd" clip-rule="evenodd" d="M69.4789 35.1031C67.6503 35.3023 65.1518 35.9903 63.7215 36.7145C59.5754 38.8147 57.7468 42.1099 57.9278 47.2517L57.9821 49.1528L57.1855 50.058C55.3569 52.1401 53.7636 55.0913 52.9308 57.9519C52.2428 60.3056 52.1885 61.1384 52.623 61.8445C53.2567 62.8584 54.9042 62.967 55.6828 62.0256C55.8095 61.8807 56.1173 60.9574 56.3708 59.9797C57.276 56.3949 58.652 53.9325 61.1324 51.4521C64.3189 48.2837 68.4288 46.1654 73.0819 45.3145C76.033 44.7713 81.5551 44.7894 81.7361 45.3507C81.7724 45.4593 80.8128 45.7309 79.3825 46.0206C75.0191 46.8715 70.5471 48.5915 67.4511 50.5831C65.7674 51.6694 63.2326 54.2222 62.3274 55.725L61.6213 56.8837L62.6533 57.8433C64.8078 59.8529 67.5779 60.7401 71.0903 60.5772C74.3311 60.4323 76.1235 59.6719 79.3644 57.0285C84.5243 52.8281 86.2805 52.0496 90.4809 52.0677C92.8346 52.0858 94.6089 52.466 96.6548 53.4075C98.6283 54.3128 99.2982 53.8782 98.7007 52.0677C97.8498 49.4425 95.9849 46.5818 93.5769 44.192C87.5298 38.1991 77.2461 34.3065 69.4789 35.1031ZM41.5424 54.2944C40.782 54.9462 39.2973 57.0826 38.555 58.5492C34.246 67.131 35.5314 80.9996 41.3251 88.7305C45.96 94.8863 51.8261 96.1355 57.7646 92.1886L58.9958 91.3739L60.4442 91.6636C62.2547 92.0257 65.4955 92.0438 67.5414 91.6817C69.8227 91.2833 71.8686 90.5953 72.3936 90.0341C72.9911 89.3823 73.0092 88.1874 72.3936 87.5356C71.7418 86.8295 71.0176 86.7752 69.3701 87.3002C62.8522 89.3642 55.6463 87.4813 50.1423 82.267C48.2232 80.4745 46.4308 78.1571 45.1453 75.8758C44.059 73.9386 43.6245 72.8523 43.8417 72.635C43.9142 72.5445 44.1495 72.6893 44.3306 72.9428C45.2539 74.1196 47.2817 76.256 48.8388 77.7045C51.1381 79.8228 53.2202 81.2893 55.6282 82.4661C58.2173 83.7154 60.0278 84.2042 62.2366 84.2404L63.9566 84.2585L64.1558 83.3533C64.4816 82.0316 64.4635 79.4244 64.1195 78.1209C63.4859 75.6224 61.7116 72.816 59.8105 71.3495C58.525 70.3537 56.8594 69.5209 54.1436 68.5251C50.8484 67.3302 49.2009 66.3887 47.68 64.9041C46.9558 64.198 46.0687 63.1479 45.6885 62.5685C44.4573 60.6856 43.5339 57.9698 43.2986 55.5075C43.208 54.5479 43.0994 54.222 42.7916 54.0229C42.2847 53.6608 42.2485 53.6789 41.5424 54.2944ZM84.8678 60.8126C84.4333 59.9979 84.9221 58.7667 85.8274 58.3503C86.968 57.8434 87.8551 58.3322 90.0278 60.6678C92.1099 62.9128 93.9023 65.9726 94.6446 68.5435C94.8256 69.1772 94.9886 69.304 96.5094 70.0463C97.8673 70.6981 98.4648 71.1326 99.7321 72.3999C101.488 74.138 102.086 75.1881 102.538 77.2883C103.082 79.8774 102.538 83.2812 101.054 86.4858C97.6319 93.927 88.2716 101.115 79.8345 102.799C77.2998 103.306 75.4169 103.432 73.4796 103.197C71.1984 102.907 70.5647 102.636 70.5647 101.93C70.5647 101.459 70.7276 101.278 71.6148 100.662C72.1941 100.282 73.3348 99.2499 74.1495 98.399C75.3444 97.1316 75.7971 96.4617 76.5394 94.9771C78.0964 91.7906 78.2956 89.6904 77.5171 85.0736C76.8472 81.1448 76.8472 78.6281 77.5171 76.6728C78.8569 72.7983 81.3373 70.1549 84.8497 68.8875C85.5483 68.6357 85.9116 68.4859 86.1898 68.5822C86.5316 68.7004 86.7449 69.19 87.2939 70.3178C88.3259 72.3999 88.688 74.1018 88.7966 77.2883C88.9414 81.362 88.2353 85.5624 86.6964 89.7628C86.0627 91.5009 86.0446 91.5914 86.3705 91.5914C86.6964 91.5914 88.3621 89.0205 89.3941 86.9203C91.4762 82.7018 92.3633 78.2298 91.9288 74.2286C91.4038 69.3945 89.7562 65.864 86.5697 62.6775C85.7368 61.8265 84.9583 60.9937 84.8678 60.8126Z" fill="#225354"/>
<path d="M69.4787 35.1032C67.6501 35.3023 65.1516 35.9903 63.7213 36.7146C59.5752 38.8148 57.7466 42.1099 57.9276 47.2518L57.9819 49.1528L57.1853 50.0581C55.3567 52.1402 53.7634 55.0913 52.9306 57.9519C52.2426 60.3056 52.1883 61.1385 52.6228 61.8446C53.2565 62.8585 54.9041 62.9671 55.6826 62.0256C55.8093 61.8808 56.1171 60.9574 56.3706 59.9797C57.2758 56.3949 58.6518 53.9326 61.1322 51.4522C64.3188 48.2838 68.4286 46.1655 73.0817 45.3145C76.0328 44.7714 81.5549 44.7895 81.736 45.3507C81.7722 45.4594 80.8126 45.7309 79.3823 46.0206C75.0189 46.8716 70.5469 48.5916 67.451 50.5831C65.7672 51.6694 63.2324 54.2223 62.3272 55.725L61.6211 56.8837L62.6531 57.8433C64.8076 59.853 67.5777 60.7401 71.0901 60.5772C74.3309 60.4324 76.1233 59.6719 79.3642 57.0286C84.5242 52.8282 86.2804 52.0497 90.4808 52.0678C92.8344 52.0859 94.6087 52.4661 96.6546 53.4075C98.6281 54.3128 99.298 53.8783 98.7005 52.0678C97.8496 49.4425 95.9847 46.5819 93.5768 44.192C87.5296 38.1992 77.2459 34.3066 69.4787 35.1032Z" fill="#FECC53"/>
</svg>
