<svg width="131" height="131" viewBox="0 0 131 131" fill="none" xmlns="http://www.w3.org/2000/svg">
<circle cx="65.4133" cy="65.093" r="65.093" fill="#1C494A"/>
<path d="M38.151 81.0847L42.8427 92.7151L42.8461 92.7202C42.9039 92.8596 43.0041 92.9701 43.1214 93.0619C43.1503 93.084 43.1758 93.101 43.2064 93.118C43.3322 93.1928 43.4733 93.2472 43.6314 93.2472H53.6504C55.51 93.2472 57.3289 92.4941 58.6429 91.1801L61.2165 88.6066C63.3073 86.5174 66.707 86.5174 68.7962 88.6049L69.0801 88.8904C71.8287 91.6408 76.3096 91.6442 79.0651 88.8904C81.1542 86.8013 84.5539 86.7996 86.6464 88.8904L88.9362 91.1801C90.2485 92.4941 92.069 93.2472 93.9287 93.2472H96.7351C97.2043 93.2472 97.5851 92.8664 97.5851 92.3973C97.5851 91.9281 97.2043 91.5473 96.7351 91.5473H93.9253C92.5144 91.5473 91.1324 90.9762 90.1363 89.9783L87.8466 87.6886C86.5139 86.3542 84.7409 85.6199 82.8524 85.6199C80.9672 85.6199 79.1942 86.3542 77.8599 87.6886C75.769 89.7778 72.3693 89.7778 70.2802 87.6903L69.9963 87.4048C67.2425 84.6493 62.7617 84.6527 60.0113 87.4048L57.4377 89.9783C56.4399 90.9762 55.0596 91.5473 53.6487 91.5473H44.8893L49.1101 81.0847C49.1152 81.0711 49.1118 81.0558 49.1152 81.0422C49.1458 80.9555 49.1713 80.8654 49.1713 80.7668V42.2972C49.1713 42.2071 49.1458 42.1238 49.1203 42.0422C49.1373 41.9572 49.1713 41.8773 49.1713 41.7872V39.2935C49.1713 36.2389 46.6861 33.752 43.6297 33.752C40.5733 33.752 38.0898 36.2372 38.0898 39.2935V41.7872C38.0898 41.8773 38.1238 41.9555 38.1408 42.0422C38.1153 42.1238 38.0898 42.2071 38.0898 42.2972V80.7668C38.0898 80.8637 38.1153 80.9555 38.1459 81.0422C38.1493 81.0558 38.1459 81.0711 38.151 81.0847ZM47.4731 43.1471V79.9169H44.4813V43.1471H47.4731ZM42.7815 79.9169H39.7897V43.1471H42.7815V79.9169ZM43.6314 90.1262L40.1994 81.6184H47.0617L43.6314 90.1262ZM39.7897 39.2935C39.7897 37.1755 41.5134 35.4518 43.6314 35.4518C45.7494 35.4518 47.4731 37.1755 47.4731 39.2935V41.4472H39.7897V39.2935Z" fill="white"/>
<path d="M72.7242 81.3397H76.124C81.278 81.3397 85.4732 77.1461 85.4732 71.9904V53.2919C85.4732 51.8861 84.3292 50.7421 82.9234 50.7421H65.9248C64.519 50.7421 63.375 51.8861 63.375 53.2919V71.9904C63.375 77.1444 67.5703 81.3397 72.7242 81.3397ZM65.0749 53.2919C65.0749 52.8228 65.4573 52.442 65.9248 52.442H82.9234C83.3909 52.442 83.7734 52.8228 83.7734 53.2919V71.1405H65.0749V53.2919ZM83.7275 72.8404C83.3025 76.6599 80.0558 79.6398 76.124 79.6398H72.7242C68.7925 79.6398 65.5457 76.6599 65.1208 72.8404H83.7275Z" fill="white"/>
</svg>
