<svg width="30" height="30" viewBox="0 0 30 30" fill="none" xmlns="http://www.w3.org/2000/svg">
<rect x="13" y="20" width="4" height="5" fill="#F8EE00"/>
<path fill-rule="evenodd" clip-rule="evenodd" d="M29.1172 24.7067H28.5913V17.7237H29.1172C29.2759 17.7232 29.4315 17.68 29.5677 17.5986C29.7039 17.5173 29.8157 17.4008 29.8914 17.2614C29.9671 17.1219 30.0039 16.9647 29.9979 16.8062C29.9919 16.6476 29.9434 16.4936 29.8574 16.3603L26.0306 10.4514C25.9503 10.3283 25.8406 10.2271 25.7113 10.157C25.5821 10.0869 25.4375 10.0502 25.2904 10.0501H21.5014V6.55448L22.6553 7.36717C22.7498 7.43399 22.8566 7.48151 22.9696 7.50703C23.0825 7.53256 23.1994 7.53557 23.3135 7.51591C23.4276 7.49624 23.5367 7.45429 23.6346 7.39243C23.7325 7.33058 23.8172 7.25005 23.8839 7.15543C23.9507 7.06082 23.9981 6.95398 24.0236 6.84102C24.049 6.72806 24.0519 6.61119 24.0322 6.4971C24.0124 6.38302 23.9704 6.27394 23.9084 6.1761C23.8465 6.07827 23.7659 5.9936 23.6712 5.92693L15.5076 0.161246C15.3587 0.056321 15.181 0 14.9988 0C14.8167 0 14.639 0.056321 14.4901 0.161246L6.32644 5.92692C6.23188 5.99381 6.15141 6.07868 6.08964 6.17668C6.02788 6.27467 5.98601 6.38388 5.96645 6.49805C5.94688 6.61222 5.95 6.72913 5.97562 6.8421C6.00123 6.95507 6.04885 7.06189 6.11575 7.15646C6.18265 7.25103 6.26752 7.33149 6.36551 7.39326C6.46351 7.45503 6.57271 7.49689 6.68689 7.51646C6.80106 7.53602 6.91797 7.53291 7.03094 7.50729C7.14391 7.48167 7.25073 7.43405 7.34529 7.36716L8.49634 6.55446V10.0501H4.70868C4.56144 10.0507 4.41662 10.0876 4.28708 10.1576C4.15755 10.2276 4.0473 10.3286 3.96614 10.4514L0.141742 16.3603C0.0556466 16.4936 0.00702847 16.6476 0.000992148 16.8062C-0.00504418 16.9648 0.0317239 17.122 0.107436 17.2615C0.183148 17.401 0.295012 17.5175 0.431283 17.5988C0.567554 17.6801 0.723205 17.7233 0.881896 17.7237H1.40683V24.7067H0.881896C0.766129 24.7065 0.651447 24.729 0.544423 24.7732C0.437399 24.8173 0.340136 24.8821 0.25821 24.9639C0.176283 25.0457 0.111304 25.1429 0.0669949 25.2498C0.0226864 25.3568 -7.99438e-05 25.4714 6.16179e-07 25.5872V29.1167C-0.000136376 29.2326 0.0225706 29.3474 0.0668238 29.4545C0.111077 29.5617 0.176009 29.659 0.257909 29.7411C0.339809 29.8231 0.437071 29.8882 0.544138 29.9326C0.651205 29.9771 0.765977 29.9999 0.881896 30H29.1172C29.2331 30.0001 29.3479 29.9772 29.4549 29.9328C29.562 29.8884 29.6592 29.8233 29.7411 29.7412C29.8229 29.6592 29.8878 29.5618 29.9319 29.4546C29.976 29.3474 29.9985 29.2326 29.9981 29.1167V25.5872C29.9987 25.4714 29.9762 25.3566 29.9321 25.2495C29.888 25.1425 29.8231 25.0452 29.7412 24.9633C29.6593 24.8814 29.562 24.8166 29.4549 24.7726C29.3478 24.7285 29.233 24.7062 29.1172 24.7067ZM26.8285 24.7067H21.5014V17.7237H26.8285V24.7067ZM24.8104 11.8139L27.4942 15.957H21.5014V11.8139H24.8104ZM19.7376 5.30704V24.7067H17.9872V21.7117C17.9876 21.3193 17.9106 20.9305 17.7607 20.5678C17.6107 20.2051 17.3908 19.8755 17.1134 19.5978C16.836 19.3201 16.5066 19.0999 16.144 18.9496C15.7814 18.7993 15.3928 18.7219 15.0003 18.7219C14.6078 18.7219 14.2192 18.7993 13.8566 18.9496C13.494 19.0999 13.1646 19.3201 12.8872 19.5978C12.6098 19.8755 12.3899 20.2051 12.2399 20.5678C12.09 20.9305 12.013 21.3193 12.0134 21.7117V24.7067H10.2615V5.30703L15.0003 1.96321L19.7376 5.30704ZM16.2219 24.7067H13.7772V21.7117C13.7772 21.3876 13.906 21.0766 14.1352 20.8474C14.3644 20.6181 14.6754 20.4894 14.9996 20.4894C15.3238 20.4894 15.6347 20.6181 15.8639 20.8474C16.0932 21.0766 16.2219 21.3876 16.2219 21.7117V24.7067ZM5.18733 11.8139H8.49634V15.957H2.50396L5.18733 11.8139ZM3.17063 17.7237H8.49634V24.7067H3.17063V17.7237ZM28.2339 28.2348H1.76379V26.4691H28.2339L28.2339 28.2348ZM15.0003 12.4524C15.6052 12.4524 16.1965 12.273 16.6995 11.9369C17.2024 11.6009 17.5945 11.1232 17.8259 10.5643C18.0574 10.0055 18.118 9.3905 18 8.79722C17.882 8.20393 17.5907 7.65896 17.163 7.23123C16.7352 6.80349 16.1902 6.5122 15.597 6.39419C15.0037 6.27618 14.3887 6.33675 13.8299 6.56824C13.271 6.79973 12.7933 7.19174 12.4573 7.6947C12.1212 8.19767 11.9418 8.78899 11.9418 9.3939C11.9428 10.2048 12.2653 10.9821 12.8387 11.5555C13.4121 12.1288 14.1894 12.4514 15.0003 12.4524ZM15.0003 8.09779C15.2564 8.0977 15.5068 8.17356 15.7199 8.31577C15.9329 8.45798 16.099 8.66017 16.1971 8.89677C16.2952 9.13336 16.321 9.39374 16.2712 9.64498C16.2213 9.89622 16.0981 10.127 15.9171 10.3083C15.7361 10.4895 15.5054 10.6129 15.2542 10.6631C15.003 10.7132 14.7426 10.6877 14.5059 10.5898C14.2692 10.492 14.0668 10.3261 13.9244 10.1132C13.7819 9.90037 13.7058 9.65004 13.7056 9.3939C13.7059 9.0505 13.8424 8.72123 14.0851 8.47828C14.3278 8.23532 14.6569 8.0985 15.0003 8.09779ZM6.72157 20.8026V21.0193C6.72084 21.2531 6.62745 21.4771 6.46187 21.6421C6.2963 21.8072 6.07204 21.8999 5.83825 21.8999C5.60445 21.8999 5.3802 21.8072 5.21462 21.6421C5.04905 21.4771 4.95566 21.2531 4.95493 21.0193V20.8026C4.95535 20.5687 5.0486 20.3444 5.21421 20.1791C5.37982 20.0138 5.60425 19.9209 5.83825 19.9209C6.07224 19.9209 6.29668 20.0138 6.46229 20.1791C6.62789 20.3444 6.72115 20.5687 6.72157 20.8026ZM23.2776 21.0193V20.8026C23.2776 20.5686 23.3705 20.3441 23.5361 20.1785C23.7016 20.013 23.9261 19.92 24.1602 19.92C24.3943 19.92 24.6187 20.013 24.7843 20.1785C24.9498 20.3441 25.0428 20.5686 25.0428 20.8026V21.0193C25.0422 21.253 24.9489 21.4769 24.7835 21.6419C24.618 21.807 24.3939 21.8996 24.1602 21.8996C23.9265 21.8996 23.7023 21.807 23.5369 21.6419C23.3714 21.4769 23.2782 21.253 23.2776 21.0193ZM17.6082 15.5881C17.6082 15.704 17.5852 15.8188 17.5408 15.9258C17.4964 16.0329 17.4313 16.1301 17.3492 16.212C17.2672 16.2939 17.1699 16.3589 17.0627 16.4031C16.9556 16.4474 16.8408 16.4701 16.7249 16.47H13.2756C13.0419 16.47 12.8177 16.3772 12.6524 16.2119C12.4871 16.0466 12.3942 15.8224 12.3942 15.5886C12.3942 15.3548 12.4871 15.1306 12.6524 14.9653C12.8177 14.8 13.0419 14.7072 13.2756 14.7072H16.7249C16.9589 14.7069 17.1833 14.7996 17.349 14.9648C17.5146 15.13 17.6079 15.3542 17.6082 15.5881Z" fill="black"/>
</svg>
