<svg width="22" height="19" viewBox="0 0 22 19" fill="none" xmlns="http://www.w3.org/2000/svg">
<path d="M10.4846 5.44024L10.5315 6.21208L9.75069 6.11728C6.93651 5.76336 4.32199 4.47692 2.32446 2.46328L1.29496 1.43935L1.0295 2.19558C0.743705 2.9863 0.68278 3.84079 0.853499 4.66406C1.02422 5.48733 1.41989 6.24713 1.99654 6.85901C2.62115 7.52043 2.48062 7.61524 1.40315 7.22151C1.1729 7.11461 0.923023 7.05651 0.669231 7.05085C0.715891 7.78426 0.905334 8.50149 1.22692 9.16228C1.72509 10.0324 2.47151 10.7342 3.37069 11.1778L4.13473 11.5403L3.23462 11.5525C2.36127 11.5525 2.33004 11.5682 2.42373 11.8994C2.69798 12.513 3.10018 13.0609 3.60341 13.5065C4.10663 13.952 4.69926 14.2848 5.34158 14.4827L6.30862 14.8173L5.4665 15.3214C4.19209 16.0536 2.75434 16.4544 1.28492 16.487C0.852984 16.4676 0.420456 16.5089 0 16.6097C0.934053 17.2104 1.94778 17.6771 3.01154 17.9961C4.70855 18.4991 6.48947 18.6551 8.24807 18.4548C10.0067 18.2546 11.7069 17.7021 13.2474 16.8305C15.5508 15.3573 17.3606 13.2286 18.444 10.7182C19.0317 9.20478 19.3892 7.61179 19.5047 5.99235C19.5047 5.26735 19.5516 5.17366 20.4249 4.30701C20.8204 3.93242 21.1856 3.527 21.5169 3.09458C21.673 2.79566 21.6574 2.79566 20.861 3.06335C19.5348 3.53628 19.3475 3.4727 20.0033 2.76443C20.4768 2.28667 20.8394 1.7105 21.0652 1.07685C21.0652 1.03001 20.8309 1.10808 20.5655 1.24974C20.1237 1.46671 19.6644 1.64582 19.1924 1.78512L18.3503 2.05281L17.5852 1.53416C17.172 1.25144 16.7268 1.01857 16.259 0.840391C15.3588 0.623732 14.4178 0.645259 13.5285 0.902853C12.5946 1.22201 11.7912 1.83865 11.2414 2.65823C10.6916 3.4778 10.4257 4.45508 10.4846 5.44024Z" fill="white"/>
</svg>
