<svg width="19" height="24" viewBox="0 0 19 24" fill="none" xmlns="http://www.w3.org/2000/svg">
<path fill-rule="evenodd" clip-rule="evenodd" d="M11.2117 6.2605C11.2003 7.22733 10.4288 8.00271 9.48619 7.9949C8.54346 7.98709 7.78434 7.19905 7.7881 6.23215C7.79186 5.26527 8.55713 4.48347 9.49986 4.4834C9.95661 4.48606 10.3938 4.67482 10.7149 5.00813C11.0359 5.34143 11.2146 5.79196 11.2117 6.2605Z" fill="#FECC53" stroke="black" stroke-width="1.5" stroke-linecap="round" stroke-linejoin="round"/>
<path d="M6.40274 11.6433C6.92221 11.6433 7.34333 11.2222 7.34333 10.7027C7.34333 10.1833 6.92221 9.76215 6.40274 9.76215V11.6433ZM2.16337 10.7027V9.76215C1.6822 9.76215 1.27862 10.1252 1.22799 10.6038L2.16337 10.7027ZM0.616607 16.3828C0.561952 16.8994 0.936434 17.3624 1.45302 17.4171C1.96962 17.4718 2.43271 17.0973 2.48736 16.5807L0.616607 16.3828ZM5.79002 11.4264C6.18417 11.7649 6.778 11.7196 7.11638 11.3254C7.45479 10.9314 7.40964 10.3375 7.01544 9.99906L5.79002 11.4264ZM6.18507 10.5259L5.56149 11.2302L5.57237 11.2395L6.18507 10.5259ZM6.18507 2.36152L5.5787 1.64248C5.57293 1.64735 5.56722 1.65229 5.56157 1.65728L6.18507 2.36152ZM12.8138 2.36152L13.4372 1.65728C13.4287 1.64973 13.42 1.64232 13.4113 1.63507L12.8138 2.36152ZM12.8138 10.5259L13.4266 11.2396L13.4372 11.2301L12.8138 10.5259ZM11.9833 9.99906C11.5893 10.3375 11.544 10.9314 11.8825 11.3254C12.2208 11.7196 12.8147 11.7649 13.2088 11.4264L11.9833 9.99906ZM7.01202 9.99718C6.61684 9.66004 6.02315 9.70707 5.68596 10.1023C5.34879 10.4974 5.39581 11.0911 5.791 11.4283L7.01202 9.99718ZM7.34025 12.7501C7.73546 13.0873 8.32916 13.0403 8.66627 12.6451C9.00351 12.25 8.95648 11.6563 8.5613 11.319L7.34025 12.7501ZM12.5973 9.7609C12.0779 9.7609 11.6567 10.182 11.6567 10.7015C11.6567 11.221 12.0779 11.6421 12.5973 11.6421V9.7609ZM16.8367 10.7015L17.772 10.6023C17.7213 10.124 17.3177 9.7609 16.8367 9.7609V10.7015ZM16.5127 16.5696C16.5674 17.0861 17.0305 17.4606 17.5471 17.4058C18.0637 17.3511 18.4382 16.888 18.3834 16.3713L16.5127 16.5696ZM13.211 11.4143C13.6046 11.0755 13.649 10.4815 13.3102 10.0878C12.9712 9.69413 12.3774 9.64972 11.9837 9.98865L13.211 11.4143ZM9.50002 13.3678L8.8865 14.0807C9.23928 14.3842 9.761 14.3842 10.1137 14.0806L9.50002 13.3678ZM8.56431 11.3217C8.17052 10.9828 7.57669 11.0273 7.2378 11.4211C6.89896 11.8149 6.94349 12.4087 7.33725 12.7476L8.56431 11.3217ZM2.48736 16.5807C2.54212 16.0641 2.1677 15.6011 1.65111 15.5464C1.13452 15.4916 0.67135 15.8662 0.616607 16.3828L2.48736 16.5807ZM0.940598 22.2508L0.00524502 22.1516C-0.0228725 22.4168 0.0629475 22.6815 0.241322 22.8798C0.419709 23.0781 0.673883 23.1913 0.940598 23.1913V22.2508ZM8.27724 23.1913C8.7967 23.1913 9.21784 22.7702 9.21784 22.2508C9.21784 21.7313 8.7967 21.3102 8.27724 21.3102V23.1913ZM1.01566 15.7091C0.588904 16.0052 0.48308 16.5914 0.77928 17.018C1.07548 17.4448 1.66156 17.5507 2.08831 17.2544L1.01566 15.7091ZM5.28831 15.0334C5.71506 14.7371 5.8209 14.1511 5.5247 13.7243C5.2285 13.2977 4.64242 13.1918 4.21566 13.488L5.28831 15.0334ZM8.48718 12.8072C8.91396 12.5109 9.01969 11.9249 8.72334 11.4981C8.42711 11.0715 7.84106 10.9657 7.41428 11.262L8.48718 12.8072ZM4.21553 13.483C3.78882 13.7794 3.6831 14.3654 3.97937 14.7921C4.27565 15.2189 4.86174 15.3246 5.28844 15.0282L4.21553 13.483ZM5.61264 13.8762C5.40305 13.4009 4.84782 13.1854 4.3725 13.395C3.89718 13.6045 3.68176 14.1599 3.89133 14.6352L5.61264 13.8762ZM7.41653 22.6302C7.62622 23.1056 8.18143 23.321 8.65674 23.1113C9.13206 22.9018 9.34751 22.3466 9.13795 21.8713L7.41653 22.6302ZM8.27724 21.3102C7.75778 21.3102 7.33665 21.7313 7.33665 22.2508C7.33665 22.7702 7.75778 23.1913 8.27724 23.1913V21.3102ZM11.9456 23.1913C12.465 23.1913 12.8862 22.7702 12.8862 22.2508C12.8862 21.7313 12.465 21.3102 11.9456 21.3102V23.1913ZM11.9456 21.3102C11.4261 21.3102 11.005 21.7313 11.005 22.2508C11.005 22.7702 11.4261 23.1913 11.9456 23.1913V21.3102ZM18.0594 22.2508V23.1913C18.3262 23.1913 18.5803 23.0781 18.7587 22.8798C18.9371 22.6815 19.0229 22.4168 18.9948 22.1516L18.0594 22.2508ZM18.3834 16.3826C18.3287 15.866 17.8655 15.4916 17.349 15.5464C16.8324 15.6011 16.4579 16.0643 16.5127 16.5808L18.3834 16.3826ZM11.2649 21.6015C10.9064 21.9775 10.9204 22.5728 11.2964 22.9314C11.6723 23.2899 12.2676 23.2759 12.6262 22.8999L11.2649 21.6015ZM18.1287 17.1309C18.4872 16.755 18.4732 16.1597 18.0972 15.8011C17.7213 15.4426 17.126 15.4566 16.7674 15.8325L18.1287 17.1309ZM6.40274 9.76215H2.16337V11.6433H6.40274V9.76215ZM1.22799 10.6038L0.616607 16.3828L2.48736 16.5807L3.09875 10.8017L1.22799 10.6038ZM7.01544 9.99906L6.79779 9.81219L5.57237 11.2395L5.79002 11.4264L7.01544 9.99906ZM6.80858 9.8216C5.8565 8.97872 5.30349 7.74654 5.30349 6.44371H3.4223C3.4223 8.27626 4.1995 10.0244 5.56149 11.2302L6.80858 9.8216ZM5.30349 6.44371C5.30349 5.14088 5.8565 3.9087 6.80858 3.06576L5.56157 1.65728C4.19957 2.86315 3.4223 4.61116 3.4223 6.44371H5.30349ZM6.79145 3.08058C7.90539 2.14121 8.82504 1.84818 9.61439 1.88414C10.4234 1.92101 11.2713 2.31087 12.2162 3.08798L13.4113 1.63507C12.3006 0.721625 11.0723 0.0674225 9.69992 0.00490426C8.30784 -0.0585295 6.94091 0.493725 5.5787 1.64248L6.79145 3.08058ZM12.1902 3.06576C13.1423 3.9087 13.6953 5.14088 13.6953 6.44371H15.5765C15.5765 4.61116 14.7992 2.86315 13.4372 1.65728L12.1902 3.06576ZM13.6953 6.44371C13.6953 7.74654 13.1423 8.97872 12.1902 9.8216L13.4372 11.2301C14.7992 10.0243 15.5765 8.27626 15.5765 6.44371H13.6953ZM12.201 9.81219L11.9833 9.99906L13.2088 11.4264L13.4266 11.2396L12.201 9.81219ZM5.791 11.4283L7.34025 12.7501L8.5613 11.319L7.01202 9.99718L5.791 11.4283ZM12.5973 11.6421H16.8367V9.7609H12.5973V11.6421ZM15.9013 10.8006L16.5127 16.5696L18.3834 16.3713L17.772 10.6023L15.9013 10.8006ZM11.9837 9.98865L8.88637 12.6549L10.1137 14.0806L13.211 11.4143L11.9837 9.98865ZM10.1135 12.6548L8.56431 11.3217L7.33725 12.7476L8.8865 14.0807L10.1135 12.6548ZM0.616607 16.3828L0.00524502 22.1516L1.87595 22.3498L2.48736 16.5807L0.616607 16.3828ZM0.940598 23.1913H8.27724V21.3102H0.940598V23.1913ZM2.08831 17.2544L5.28831 15.0334L4.21566 13.488L1.01566 15.7091L2.08831 17.2544ZM7.41428 11.262L4.21553 13.483L5.28844 15.0282L8.48718 12.8072L7.41428 11.262ZM3.89133 14.6352L7.41653 22.6302L9.13795 21.8713L5.61264 13.8762L3.89133 14.6352ZM8.27724 23.1913H11.9456V21.3102H8.27724V23.1913ZM11.9456 23.1913H18.0594V21.3102H11.9456V23.1913ZM18.9948 22.1516L18.3834 16.3826L16.5127 16.5808L17.1241 22.3498L18.9948 22.1516ZM12.6262 22.8999L18.1287 17.1309L16.7674 15.8325L11.2649 21.6015L12.6262 22.8999Z" fill="black"/>
</svg>
