<svg width="19" height="14" viewBox="0 0 19 14" fill="none" xmlns="http://www.w3.org/2000/svg">
<path d="M18.1532 2.9821C18.1532 3.38933 18.0324 3.78741 17.8062 4.12601C17.5799 4.46462 17.2583 4.72852 16.8821 4.88436C16.5059 5.0402 16.0919 5.08098 15.6925 5.00153C15.2931 4.92208 14.9262 4.72598 14.6382 4.43803C14.3503 4.15007 14.1542 3.78319 14.0747 3.38379C13.9953 2.98438 14.036 2.57038 14.1919 2.19415C14.3477 1.81792 14.6116 1.49635 14.9502 1.2701C15.2888 1.04385 15.6869 0.923096 16.0942 0.923096C16.6402 0.923096 17.164 1.14003 17.5501 1.52616C17.9362 1.9123 18.1532 2.43602 18.1532 2.9821Z" fill="white"/>
<path d="M16.0938 5.8352C15.8683 5.83455 15.6437 5.80722 15.4246 5.75378L13.3912 7.82616C13.383 7.83388 13.3764 7.84321 13.3719 7.85357C13.3674 7.86393 13.3651 7.8751 13.3651 7.88639C13.3651 7.89768 13.3674 7.90885 13.3719 7.91921C13.3764 7.92957 13.383 7.9389 13.3912 7.94662L16.6192 11.3865C16.6711 11.4383 16.7123 11.4998 16.7404 11.5676C16.7685 11.6353 16.783 11.708 16.783 11.7813C16.783 11.8547 16.7685 11.9273 16.7404 11.9951C16.7123 12.0628 16.6711 12.1244 16.6192 12.1762C16.5674 12.2281 16.5058 12.2693 16.4381 12.2974C16.3703 12.3255 16.2977 12.34 16.2243 12.34C16.151 12.34 16.0783 12.3255 16.0106 12.2974C15.9428 12.2693 15.8813 12.2281 15.8295 12.1762L12.6149 8.74747C12.6067 8.73924 12.597 8.73271 12.5863 8.72825C12.5756 8.7238 12.5641 8.7215 12.5525 8.7215C12.5409 8.7215 12.5294 8.7238 12.5186 8.72825C12.5079 8.73271 12.4982 8.73924 12.49 8.74747L11.7092 9.54497C11.3882 9.87281 11.0051 10.1335 10.5822 10.3118C10.1594 10.49 9.70534 10.5824 9.24647 10.5834C8.77738 10.5816 8.31337 10.4862 7.88166 10.3027C7.44995 10.1192 7.05922 9.85134 6.73239 9.51485L5.97727 8.74747C5.96909 8.73924 5.95935 8.73271 5.94863 8.72825C5.93791 8.7238 5.92642 8.7215 5.91481 8.7215C5.9032 8.7215 5.89171 8.7238 5.88099 8.72825C5.87027 8.73271 5.86054 8.73924 5.85235 8.74747L2.63224 12.175C2.58043 12.227 2.51889 12.2682 2.45113 12.2963C2.38338 12.3244 2.31075 12.3389 2.23739 12.3389C2.16403 12.3389 2.0914 12.3244 2.02364 12.2963C1.95589 12.2682 1.89435 12.227 1.84254 12.175C1.79061 12.1232 1.7494 12.0617 1.72129 11.9939C1.69317 11.9262 1.6787 11.8536 1.6787 11.7802C1.6787 11.7068 1.69317 11.6342 1.72129 11.5665C1.7494 11.4987 1.79061 11.4372 1.84254 11.3854L5.07716 7.94439C5.09175 7.92772 5.09979 7.90632 5.09979 7.88416C5.09979 7.862 5.09175 7.8406 5.07716 7.82393L0.452774 3.1237C0.440985 3.11133 0.425732 3.10281 0.409016 3.09926C0.392301 3.09571 0.374903 3.0973 0.359104 3.10381C0.343305 3.11032 0.329844 3.12146 0.320485 3.13576C0.311126 3.15005 0.306306 3.16685 0.306659 3.18393V12.5922C0.307542 12.9561 0.452485 13.3048 0.709788 13.5621C0.967092 13.8194 1.31582 13.9644 1.6797 13.9652H16.7798C17.1437 13.9644 17.4924 13.8194 17.7497 13.5621C18.007 13.3048 18.1519 12.9561 18.1528 12.5922V4.95516C17.8869 5.23343 17.5674 5.45489 17.2135 5.60615C16.8596 5.75741 16.4787 5.83533 16.0938 5.8352Z" fill="white"/>
<path d="M13.2407 2.98096C13.2404 2.501 13.3612 2.02873 13.592 1.60792H1.67414C1.36467 1.60667 1.06432 1.7127 0.824219 1.90796L7.55556 8.75865C7.77442 8.9815 8.03549 9.15851 8.32351 9.27935C8.61154 9.40018 8.92076 9.46241 9.2331 9.46241C9.54545 9.46241 9.85467 9.40018 10.1427 9.27935C10.4307 9.15851 10.6918 8.9815 10.9106 8.75865L14.3683 5.24519C14.0181 4.98064 13.734 4.63849 13.5384 4.24562C13.3427 3.85275 13.2408 3.41986 13.2407 2.98096Z" fill="white"/>
</svg>
