<svg width="131" height="131" viewBox="0 0 131 131" fill="none" xmlns="http://www.w3.org/2000/svg">
<circle cx="65.5872" cy="65.093" r="65.093" fill="#1C494A"/>
<path d="M61.2384 75.3444V76.3238C57.4904 78.1166 55.0879 81.8574 55.0879 86.0581C55.0879 92.0265 59.9415 96.8801 65.9099 96.8801C71.8782 96.8801 76.7318 92.0265 76.7318 86.0581C76.7318 81.8574 74.3294 78.1184 70.5813 76.322V75.3444C70.5813 73.6562 69.3801 72.2439 67.7893 71.9174L68.4584 71.1238C73.1335 65.5776 75.6045 59.106 75.6045 52.4108V41.6718C75.6027 37.3052 71.2541 33.752 65.9099 33.752C60.5656 33.752 56.217 37.3052 56.217 41.6718V52.4108C56.217 59.1078 58.688 65.5794 63.3631 71.1238L64.0322 71.9174C62.4396 72.2439 61.2384 73.6562 61.2384 75.3444ZM74.9282 86.0581C74.9282 91.0308 70.8826 95.0765 65.9099 95.0765C60.9372 95.0765 56.8916 91.0308 56.8916 86.0581C56.8916 82.3805 59.0866 79.105 62.4811 77.7126C64.6762 76.8198 67.1454 76.8198 69.3404 77.7126C72.7349 79.105 74.9282 82.3805 74.9282 86.0581ZM58.0206 52.4108V41.6718C58.0206 38.299 61.5594 35.5556 65.9099 35.5556C70.2603 35.5556 73.7991 38.299 73.7991 41.6718V52.4108C73.7991 58.6768 71.476 64.7461 67.0786 69.9623L65.9099 71.3475L64.7411 69.9605C60.3438 64.7461 58.0206 58.6768 58.0206 52.4108ZM63.042 75.3444C63.042 74.3939 63.787 73.649 64.7357 73.649H67.0822C68.031 73.649 68.7759 74.3939 68.7759 75.3444V75.6203C68.5937 75.5698 68.4079 75.5482 68.224 75.5085C68.0797 75.4779 67.9354 75.4454 67.7893 75.4201C67.1724 75.3119 66.5448 75.2362 65.9099 75.2362C65.2732 75.2362 64.6473 75.3119 64.025 75.422C63.8807 75.4472 63.7401 75.4779 63.5976 75.5085C63.4136 75.5482 63.2242 75.5717 63.042 75.6222V75.3444Z" fill="white"/>
<path d="M70.2052 83.4944H67.7185L66.9501 81.0154C66.6778 80.1439 65.3044 80.1439 65.0321 81.0154L64.2637 83.4944H61.775C61.3374 83.4944 60.9522 83.7905 60.8151 84.2262C60.6819 84.662 60.8292 85.14 61.1821 85.4087L63.1949 86.9422L62.4244 89.4233C62.2893 89.8591 62.4386 90.3371 62.7915 90.6057C63.1465 90.8765 63.6224 90.8765 63.9774 90.6057L65.9901 89.0722L68.0029 90.6057C68.1803 90.7411 68.3861 90.8088 68.5958 90.8088C68.8055 90.8088 69.0113 90.7411 69.1887 90.6057C69.5417 90.3371 69.6909 89.8591 69.5558 89.4233L68.7854 86.9422L70.7981 85.4087C71.1511 85.14 71.2983 84.662 71.1652 84.2262C71.028 83.7905 70.6428 83.4944 70.2052 83.4944ZM67.0066 85.6815C66.6536 85.9501 66.5044 86.4282 66.6395 86.8639L66.6758 86.9781L66.5831 86.9083C66.4056 86.773 66.1999 86.7053 65.9901 86.7053C65.7804 86.7053 65.5747 86.773 65.3972 86.9083L65.3044 86.9781L65.3407 86.8639C65.4758 86.4282 65.3266 85.9501 64.9737 85.6815L64.8789 85.6096H64.9958C65.4335 85.6096 65.8187 85.3135 65.9558 84.8777L65.9901 84.7635L66.0264 84.8777C66.1615 85.3135 66.5488 85.6096 66.9864 85.6096H67.1034L67.0066 85.6815Z" fill="white"/>
<path d="M37.6044 62.1795V62.6628C35.0649 63.9543 33.4434 66.5353 33.4434 69.4266C33.4434 73.6237 36.8595 77.0398 41.0566 77.0398C45.2537 77.0398 48.6699 73.6237 48.6699 69.4266C48.6699 66.5353 47.0502 63.9561 44.5088 62.661V62.1777C44.5088 61.0594 43.8126 60.1053 42.8332 59.7121L43.0028 59.51H43.001C46.2079 55.7061 47.9051 51.2637 47.9051 46.6626V39.401C47.9051 36.2861 44.8335 33.752 41.0566 33.752C37.2797 33.752 34.2081 36.2861 34.2081 39.401V46.6662C34.2081 51.2673 35.9018 55.7097 39.1105 59.5137L39.28 59.7157C38.2988 60.1071 37.6044 61.0612 37.6044 62.1795ZM39.4279 61.9901C39.5127 61.6059 39.8482 61.3245 40.263 61.3245H41.8484C42.2615 61.3245 42.6006 61.6041 42.6835 61.9901C42.6547 61.9847 42.6258 61.9865 42.5987 61.9811C42.1298 61.8855 41.6554 61.8368 41.1811 61.8278C41.1396 61.8278 41.0981 61.8151 41.0566 61.8151C41.0314 61.8151 41.0079 61.8223 40.9845 61.8223C40.4885 61.8278 39.9961 61.8801 39.5073 61.9811C39.482 61.9865 39.455 61.9847 39.4279 61.9901ZM46.8644 69.4266C46.8644 72.6299 44.2599 75.2362 41.0548 75.2362C37.8497 75.2362 35.247 72.6299 35.247 69.4266C35.247 67.0584 36.6593 64.9481 38.8453 64.0517C40.2594 63.4763 41.843 63.4745 43.2679 64.0517C45.4539 64.9499 46.8644 67.0602 46.8644 69.4266ZM36.0118 46.6662V39.401C36.0118 37.2817 38.2754 35.5556 41.0566 35.5556C43.8379 35.5556 46.1015 37.2817 46.1015 39.401V46.6662C46.1015 50.8362 44.5539 54.8764 41.6248 58.3521H41.623L41.0584 59.0249L40.4903 58.3521C37.5593 54.8764 36.0118 50.8362 36.0118 46.6662Z" fill="white"/>
<path d="M42.2716 67.8292L41.7366 66.2951C41.5495 65.7639 40.6055 65.7639 40.4184 66.2951L39.8834 67.8292H38.155C37.8542 67.8292 37.5895 68.0101 37.4952 68.2751C37.4037 68.5413 37.5049 68.8334 37.7475 68.9976L39.146 69.9449L38.6124 71.4791C38.5209 71.7453 38.6221 72.0374 38.8646 72.2015C39.1086 72.3657 39.4357 72.3657 39.6797 72.2015L41.0782 71.2542L42.4767 72.2015C42.5987 72.2842 42.7401 72.3256 42.8842 72.3256C43.0284 72.3256 43.1698 72.2843 43.2917 72.2028C43.5343 72.0387 43.6355 71.7466 43.544 71.4804L43.0104 69.9462L44.4089 68.9989C44.6515 68.8347 44.7527 68.5426 44.6612 68.2764C44.5683 68.0101 44.3022 67.8305 44.0014 67.8305L42.2716 67.8292ZM41.7865 69.1772C41.5439 69.3414 41.4427 69.6334 41.5342 69.8997L41.5647 69.9889L41.4829 69.9346C41.3609 69.8519 41.2196 69.8105 41.0754 69.8105C40.9313 69.8105 40.7899 69.8519 40.6679 69.9346L40.5861 69.9889L40.6166 69.8997C40.7081 69.6334 40.6069 69.3414 40.3644 69.1772L40.2867 69.1216H40.3865C40.6873 69.1216 40.9521 68.9407 41.0463 68.6757L41.0768 68.5866L41.1073 68.6757C41.2002 68.942 41.4663 69.1216 41.7671 69.1216H41.8669L41.7865 69.1772Z" fill="white"/>
<path d="M86.4081 62.1795V62.6628C83.8686 63.9543 82.2471 66.5353 82.2471 69.4266C82.2471 73.6237 85.6632 77.0398 89.8603 77.0398C94.0574 77.0398 97.4736 73.6237 97.4736 69.4266C97.4736 66.5353 95.8539 63.9543 93.3125 62.661V62.1795C93.3125 61.0612 92.6163 60.1071 91.6369 59.7139L91.8065 59.5119C95.0134 55.7079 96.7088 51.2655 96.7088 46.6644V39.401C96.7088 36.2861 93.6372 33.752 89.8603 33.752C86.0835 33.752 83.0118 36.2861 83.0118 39.401V46.6662C83.0118 51.2673 84.7073 55.7097 87.9142 59.5137L88.0837 59.7157C87.1043 60.1071 86.4081 61.0612 86.4081 62.1795ZM88.2334 61.9901C88.3164 61.6059 88.6537 61.3245 89.0685 61.3245H90.6539C91.067 61.3245 91.4043 61.6041 91.489 61.9901C91.4638 61.9847 91.4367 61.9865 91.4115 61.9811C90.9209 61.8801 90.4249 61.826 89.9271 61.8205C89.873 61.8205 89.8207 61.8241 89.7665 61.8241C89.2814 61.8296 88.798 61.8819 88.32 61.9793C88.2911 61.9865 88.2623 61.9829 88.2334 61.9901ZM95.6699 69.4266C95.6699 72.6299 93.0654 75.2362 89.8603 75.2362C86.6552 75.2362 84.0507 72.6299 84.0507 69.4266C84.0507 67.0584 85.463 64.9481 87.6472 64.0517C89.0721 63.4745 90.6557 63.4763 92.0698 64.0517H92.0734C94.2595 64.9517 95.6699 67.0602 95.6699 69.4266ZM84.8155 46.6662V39.401C84.8155 37.2817 87.0791 35.5556 89.8603 35.5556C92.6416 35.5556 94.9052 37.2817 94.9052 39.401V46.6662C94.9052 50.8362 93.3576 54.8764 90.4303 58.3521L89.8621 59.0249L89.2958 58.3521C86.3648 54.8764 84.8155 50.8362 84.8155 46.6662Z" fill="white"/>
<path d="M90.7577 67.8292L90.2821 66.2951C90.1158 65.7639 89.2768 65.7639 89.1104 66.2951L88.6349 67.8292H87.0985C86.8311 67.8292 86.5958 68.0101 86.512 68.2751C86.4307 68.5413 86.5206 68.8334 86.7363 68.9976L87.9794 69.9449L87.5051 71.4791C87.4237 71.7453 87.5137 72.0374 87.7293 72.2015C87.9461 72.3657 88.2369 72.3657 88.4537 72.2015L89.6969 71.2542L90.94 72.2015C91.0485 72.2842 91.1741 72.3256 91.3023 72.3256C91.4304 72.3256 91.5561 72.2843 91.6645 72.2028C91.8801 72.0387 91.97 71.7466 91.8887 71.4804L91.4144 69.9462L92.6575 68.9989C92.8731 68.8347 92.9631 68.5426 92.8818 68.2764C92.7992 68.0101 92.5627 67.8305 92.2953 67.8305L90.7577 67.8292ZM90.3265 69.1772C90.1109 69.3414 90.0209 69.6334 90.1022 69.8997L90.1293 69.9889L90.0567 69.9346C89.9482 69.8519 89.8226 69.8105 89.6944 69.8105C89.5663 69.8105 89.4406 69.8519 89.3322 69.9346L89.2595 69.9889L89.2866 69.8997C89.3679 69.6334 89.278 69.3414 89.0624 69.1772L88.9897 69.1229H89.0784C89.3458 69.1229 89.5811 68.942 89.6649 68.677L89.692 68.5879L89.7191 68.677C89.8016 68.9433 90.0382 69.1229 90.3055 69.1229H90.3942L90.3265 69.1772Z" fill="white"/>
</svg>
