<svg width="131" height="131" viewBox="0 0 131 131" fill="none" xmlns="http://www.w3.org/2000/svg">
<g id="Group 238197">
<circle id="Ellipse 324" cx="65.5872" cy="65.093" r="65.093" fill="#1C494A"/>
<g id="Group 238194">
<path id="Vector" d="M37.5151 92.7778H56.3888H75.2624H94.136C94.6096 92.7778 94.9939 92.3935 94.9939 91.9199V73.0463C94.9939 72.5727 94.6096 72.1884 94.136 72.1884H76.1203V62.7516C76.1203 62.278 75.736 61.8937 75.2624 61.8937H56.3888C55.9152 61.8937 55.5309 62.278 55.5309 62.7516V76.4779H37.5151C37.0416 76.4779 36.6572 76.8622 36.6572 77.3357V91.9199C36.6572 92.3935 37.0416 92.7778 37.5151 92.7778ZM93.2781 73.9042V91.062H76.1203V73.9042H93.2781ZM57.2467 63.6095H74.4045V73.0463V91.062H57.2467V77.3357V63.6095ZM38.373 78.1936H55.5309V91.062H38.373V78.1936Z" fill="white"/>
<path id="Vector_2" d="M71.996 47.9358H72.4884C74.048 47.9358 75.5185 47.3284 76.6337 46.22C77.7387 45.1099 78.3444 43.6394 78.3444 42.0798C78.3444 39.6073 76.7624 37.4248 74.4941 36.5961L74.6331 35.6507C74.7361 34.9713 74.5387 34.285 74.0926 33.7668C73.6483 33.2469 72.998 32.9484 72.3117 32.9484H59.2374C58.5425 32.9484 57.8853 33.2486 57.4358 33.7702C56.9897 34.2867 56.7941 34.973 56.897 35.6507L57.0412 36.6219C56.2914 36.9084 55.6033 37.3545 55.02 37.9362C53.915 39.0411 53.3076 40.5115 53.3076 42.0798C53.3076 45.3089 55.9345 47.9358 59.1636 47.9358H59.5376C60.32 49.063 61.4113 49.9587 62.705 50.5352V54.7045C60.7267 55.1335 59.2374 56.8922 59.2374 58.9974C59.2374 59.471 59.6217 59.8553 60.0953 59.8553H71.5601C72.0337 59.8553 72.418 59.471 72.418 58.9974C72.418 56.8493 70.8687 55.0648 68.8303 54.6822V50.5352C70.1206 49.9621 71.2153 49.0647 71.996 47.9358ZM64.419 51.0791C64.8566 51.1546 65.301 51.2043 65.7745 51.2043C66.2532 51.2043 66.6907 51.1546 67.1128 51.0808V54.6016H64.419V51.0791ZM76.6303 42.0798C76.6303 43.183 76.1996 44.2245 75.4224 45.0069C74.7446 45.6812 73.873 46.0741 72.9414 46.1754C73.1129 45.7001 73.233 45.2077 73.3 44.7049L74.2385 38.3445C75.6609 39.012 76.6303 40.4549 76.6303 42.0798ZM55.0217 42.0798C55.0217 40.9714 55.4506 39.9299 56.2313 39.1492C56.547 38.8335 56.9142 38.595 57.302 38.3994L58.2319 44.6912C58.2971 45.1853 58.4224 45.6761 58.5957 46.1616C56.5831 45.8837 55.0217 44.1696 55.0217 42.0798ZM60.7147 46.6506C60.2926 45.9369 60.0318 45.2042 59.934 44.4579L58.594 35.3951C58.5579 35.1446 58.6677 34.9713 58.7381 34.8906C58.8084 34.8048 58.9714 34.6641 59.2374 34.6641H72.3117C72.5639 34.6641 72.7217 34.8031 72.7921 34.8838C72.8624 34.9644 72.974 35.1411 72.9379 35.3934L72.6977 37.0182L72.696 37.0216V37.0268L71.5962 44.4681C71.4932 45.2385 71.2341 45.9695 70.8172 46.6489C70.1257 47.8105 69.0122 48.7096 67.6979 49.1728C67.5178 49.2329 67.3204 49.2929 67.1163 49.341C66.291 49.54 65.2769 49.5434 64.4019 49.3393C64.208 49.2947 64.0107 49.2329 63.8443 49.178C62.5162 48.7079 61.4044 47.8105 60.7147 46.6506ZM70.5598 58.1412H61.0921C61.4507 57.0826 62.4545 56.3174 63.6315 56.3174H67.969H68.017C69.1975 56.3174 70.2012 57.0809 70.5598 58.1412Z" fill="white"/>
</g>
</g>
</svg>
