<svg width="138" height="138" viewBox="0 0 138 138" fill="none" xmlns="http://www.w3.org/2000/svg">
<circle cx="69" cy="69" r="69" fill="#FFF5DD"/>
<path d="M93.0767 71.3687V75.0392C93.0792 75.1915 93.1408 75.337 93.2486 75.4447C93.3564 75.5525 93.5018 75.6141 93.6542 75.6166H100.643V79.6982H93.6542C93.501 79.6982 93.3541 79.759 93.2458 79.8673C93.1375 79.9757 93.0767 80.1225 93.0767 80.2757V83.9462C93.0792 84.0985 93.1408 84.244 93.2486 84.3517C93.3564 84.4595 93.5018 84.5211 93.6542 84.5237H100.643V88.5856H93.6542C93.5001 88.5882 93.3532 88.6512 93.2452 88.7611C93.1372 88.8709 93.0766 89.0188 93.0767 89.1729V92.8434C93.0792 92.9958 93.1408 93.1412 93.2486 93.249C93.3564 93.3567 93.5018 93.4184 93.6542 93.4209H100.643V98.9902H87.4682V56.7651L100.643 67.6003V70.7912H93.6542C93.501 70.7912 93.3541 70.852 93.2458 70.9603C93.1375 71.0686 93.0767 71.2155 93.0767 71.3687ZM48.6101 65.907H38V70.801H42.4731C42.5497 70.7997 42.6259 70.8137 42.6971 70.8421C42.7683 70.8705 42.8331 70.9129 42.8878 70.9666C42.9424 71.0204 42.9859 71.0845 43.0155 71.1552C43.0451 71.2259 43.0604 71.3018 43.0604 71.3785V75.0489C43.0578 75.203 42.9948 75.3499 42.8849 75.4579C42.7751 75.5659 42.6272 75.6264 42.4731 75.6264H38V79.708H42.4731C42.5497 79.7067 42.6259 79.7207 42.6971 79.7491C42.7683 79.7775 42.8331 79.8199 42.8878 79.8736C42.9424 79.9274 42.9859 79.9915 43.0155 80.0622C43.0451 80.1329 43.0604 80.2088 43.0604 80.2855V83.956C43.0578 84.11 42.9948 84.2569 42.8849 84.3649C42.7751 84.4729 42.6272 84.5335 42.4731 84.5334H38V88.5856H42.4731C42.5502 88.5856 42.6266 88.6008 42.6978 88.6303C42.7691 88.6599 42.8338 88.7031 42.8884 88.7577C42.9429 88.8122 42.9861 88.8769 43.0157 88.9482C43.0452 89.0194 43.0604 89.0958 43.0604 89.1729V92.8434C43.0578 92.9974 42.9948 93.1443 42.8849 93.2523C42.7751 93.3604 42.6272 93.4209 42.4731 93.4209H38V98.9902H48.6101V65.907ZM83.553 99H52.5253V40.9576C52.5253 40.4384 52.7315 39.9405 53.0986 39.5734C53.4658 39.2062 53.9637 39 54.4829 39H81.615C82.1342 39 82.6321 39.2062 82.9992 39.5734C83.3663 39.9405 83.5726 40.4384 83.5726 40.9576V99H83.553ZM65.23 81.783C65.23 81.6305 65.1998 81.4795 65.1412 81.3388C65.0825 81.198 64.9966 81.0702 64.8883 80.9629C64.78 80.8555 64.6515 80.7706 64.5102 80.7132C64.369 80.6557 64.2178 80.6268 64.0653 80.6281H59.5334C59.3809 80.6268 59.2297 80.6557 59.0884 80.7132C58.9472 80.7706 58.8187 80.8555 58.7104 80.9629C58.6021 81.0702 58.5162 81.198 58.4575 81.3388C58.3989 81.4795 58.3687 81.6305 58.3687 81.783V86.3442C58.3687 86.4972 58.3988 86.6486 58.4573 86.7899C58.5159 86.9313 58.6017 87.0597 58.7098 87.1678C58.818 87.276 58.9464 87.3618 59.0877 87.4203C59.229 87.4788 59.3805 87.509 59.5334 87.509H64.0848C64.3937 87.509 64.69 87.3863 64.9084 87.1678C65.1269 86.9494 65.2496 86.6531 65.2496 86.3442L65.23 81.783ZM65.23 70.4682C65.23 70.1593 65.1073 69.863 64.8889 69.6446C64.6704 69.4261 64.3742 69.3034 64.0653 69.3034H59.5334C59.2245 69.3034 58.9283 69.4261 58.7098 69.6446C58.4914 69.863 58.3687 70.1593 58.3687 70.4682V75.0196C58.3687 75.3285 58.4914 75.6248 58.7098 75.8432C58.9283 76.0616 59.2245 76.1843 59.5334 76.1843H64.0848C64.3937 76.1843 64.69 76.0616 64.9084 75.8432C65.1269 75.6248 65.2496 75.3285 65.2496 75.0196L65.23 70.4682ZM65.23 59.1436C65.23 58.8346 65.1073 58.5384 64.8889 58.3199C64.6704 58.1015 64.3742 57.9788 64.0653 57.9788H59.5334C59.2245 57.9788 58.9283 58.1015 58.7098 58.3199C58.4914 58.5384 58.3687 58.8346 58.3687 59.1436V63.7047C58.3687 64.0136 58.4914 64.3099 58.7098 64.5283C58.9283 64.7468 59.2245 64.8695 59.5334 64.8695H64.0848C64.3937 64.8695 64.69 64.7468 64.9084 64.5283C65.1269 64.3099 65.2496 64.0136 65.2496 63.7047L65.23 59.1436ZM65.23 47.8189C65.23 47.6664 65.1998 47.5154 65.1412 47.3747C65.0825 47.2339 64.9966 47.1061 64.8883 46.9988C64.78 46.8914 64.6515 46.8065 64.5102 46.749C64.369 46.6916 64.2178 46.6627 64.0653 46.6639H59.5334C59.3809 46.6627 59.2297 46.6916 59.0884 46.749C58.9472 46.8065 58.8187 46.8914 58.7104 46.9988C58.6021 47.1061 58.5162 47.2339 58.4575 47.3747C58.3989 47.5154 58.3687 47.6664 58.3687 47.8189V52.3703C58.3674 52.5241 58.3966 52.6766 58.4545 52.8191C58.5125 52.9615 58.5981 53.0911 58.7064 53.2003C58.8146 53.3095 58.9435 53.3961 59.0854 53.4553C59.2274 53.5144 59.3797 53.5449 59.5334 53.5449H64.0848C64.392 53.5397 64.6848 53.4134 64.8993 53.1934C65.1138 52.9734 65.2326 52.6776 65.23 52.3703V47.8189ZM77.739 81.783C77.7364 81.4758 77.6126 81.1821 77.3944 80.9657C77.1762 80.7494 76.8815 80.628 76.5742 80.6281H72.0131C71.8606 80.6268 71.7093 80.6557 71.5681 80.7132C71.4268 80.7706 71.2983 80.8555 71.19 80.9629C71.0817 81.0702 70.9958 81.198 70.9371 81.3388C70.8785 81.4795 70.8483 81.6305 70.8483 81.783V86.3442C70.8483 86.6531 70.971 86.9494 71.1894 87.1678C71.4079 87.3863 71.7041 87.509 72.0131 87.509H76.5742C76.8831 87.509 77.1794 87.3863 77.3978 87.1678C77.6163 86.9494 77.739 86.6531 77.739 86.3442V81.783ZM77.739 70.4682C77.739 70.1593 77.6163 69.863 77.3978 69.6446C77.1794 69.4261 76.8831 69.3034 76.5742 69.3034H72.0131C71.7041 69.3034 71.4079 69.4261 71.1894 69.6446C70.971 69.863 70.8483 70.1593 70.8483 70.4682V75.0196C70.8483 75.3285 70.971 75.6248 71.1894 75.8432C71.4079 76.0616 71.7041 76.1843 72.0131 76.1843H76.5742C76.8831 76.1843 77.1794 76.0616 77.3978 75.8432C77.6163 75.6248 77.739 75.3285 77.739 75.0196V70.4682ZM77.739 59.1436C77.739 58.8346 77.6163 58.5384 77.3978 58.3199C77.1794 58.1015 76.8831 57.9788 76.5742 57.9788H72.0131C71.7041 57.9788 71.4079 58.1015 71.1894 58.3199C70.971 58.5384 70.8483 58.8346 70.8483 59.1436V63.7047C70.8483 64.0136 70.971 64.3099 71.1894 64.5283C71.4079 64.7468 71.7041 64.8695 72.0131 64.8695H76.5742C76.8824 64.8669 77.1771 64.7434 77.395 64.5255C77.6129 64.3076 77.7364 64.0129 77.739 63.7047V59.1436ZM77.739 47.8189C77.7364 47.5117 77.6126 47.218 77.3944 47.0016C77.1762 46.7853 76.8815 46.6639 76.5742 46.6639H72.0131C71.8606 46.6627 71.7093 46.6916 71.5681 46.749C71.4268 46.8065 71.2983 46.8914 71.19 46.9988C71.0817 47.1061 70.9958 47.2339 70.9371 47.3747C70.8785 47.5154 70.8483 47.6664 70.8483 47.8189V52.3703C70.8483 52.6792 70.971 52.9755 71.1894 53.1939C71.4079 53.4124 71.7041 53.5351 72.0131 53.5351H76.5742C76.8831 53.5351 77.1794 53.4124 77.3978 53.1939C77.6163 52.9755 77.739 52.6792 77.739 52.3703V47.8189Z" fill="#F8EE00"/>
<path d="M83.4809 99H52.4531V40.9576C52.4531 40.4384 52.6594 39.9405 53.0265 39.5734C53.3936 39.2062 53.8915 39 54.4107 39H81.5429C82.062 39 82.56 39.2062 82.9271 39.5734C83.2942 39.9405 83.5004 40.4384 83.5004 40.9576V99H83.4809ZM65.1579 81.783C65.1579 81.6305 65.1277 81.4795 65.069 81.3388C65.0104 81.198 64.9244 81.0702 64.8161 80.9629C64.7078 80.8555 64.5794 80.7706 64.4381 80.7132C64.2968 80.6557 64.1456 80.6268 63.9931 80.6281H59.4613C59.3088 80.6268 59.1575 80.6557 59.0163 80.7132C58.875 80.7706 58.7465 80.8555 58.6383 80.9629C58.53 81.0702 58.444 81.198 58.3854 81.3388C58.3267 81.4795 58.2965 81.6305 58.2965 81.783V86.3442C58.2965 86.4972 58.3267 86.6486 58.3852 86.7899C58.4437 86.9313 58.5295 87.0597 58.6377 87.1678C58.7458 87.276 58.8742 87.3618 59.0155 87.4203C59.1569 87.4788 59.3083 87.509 59.4613 87.509H64.0127C64.3216 87.509 64.6178 87.3863 64.8363 87.1678C65.0547 86.9494 65.1774 86.6531 65.1774 86.3442L65.1579 81.783ZM65.1579 70.4682C65.1579 70.1593 65.0351 69.863 64.8167 69.6446C64.5983 69.4261 64.302 69.3034 63.9931 69.3034H59.4613C59.1524 69.3034 58.8561 69.4261 58.6377 69.6446C58.4192 69.863 58.2965 70.1593 58.2965 70.4682V75.0196C58.2965 75.3285 58.4192 75.6248 58.6377 75.8432C58.8561 76.0616 59.1524 76.1843 59.4613 76.1843H64.0127C64.3216 76.1843 64.6178 76.0616 64.8363 75.8432C65.0547 75.6248 65.1774 75.3285 65.1774 75.0196L65.1579 70.4682ZM65.1579 59.1436C65.1579 58.8346 65.0351 58.5384 64.8167 58.3199C64.5983 58.1015 64.302 57.9788 63.9931 57.9788H59.4613C59.1524 57.9788 58.8561 58.1015 58.6377 58.3199C58.4192 58.5384 58.2965 58.8346 58.2965 59.1436V63.7047C58.2965 64.0136 58.4192 64.3099 58.6377 64.5283C58.8561 64.7468 59.1524 64.8695 59.4613 64.8695H64.0127C64.3216 64.8695 64.6178 64.7468 64.8363 64.5283C65.0547 64.3099 65.1774 64.0136 65.1774 63.7047L65.1579 59.1436ZM65.1579 47.8189C65.1579 47.6664 65.1277 47.5154 65.069 47.3747C65.0104 47.2339 64.9244 47.1061 64.8161 46.9988C64.7078 46.8914 64.5794 46.8065 64.4381 46.749C64.2968 46.6916 64.1456 46.6627 63.9931 46.6639H59.4613C59.3088 46.6627 59.1575 46.6916 59.0163 46.749C58.875 46.8065 58.7465 46.8914 58.6383 46.9988C58.53 47.1061 58.444 47.2339 58.3854 47.3747C58.3267 47.5154 58.2965 47.6664 58.2965 47.8189V52.3703C58.2952 52.5241 58.3244 52.6766 58.3824 52.8191C58.4403 52.9615 58.5259 53.0911 58.6342 53.2003C58.7425 53.3095 58.8713 53.3961 59.0133 53.4553C59.1552 53.5144 59.3075 53.5449 59.4613 53.5449H64.0127C64.3199 53.5397 64.6126 53.4134 64.8271 53.1934C65.0416 52.9734 65.1605 52.6776 65.1579 52.3703V47.8189ZM77.6668 81.783C77.6642 81.4758 77.5404 81.1821 77.3222 80.9657C77.1041 80.7494 76.8093 80.628 76.5021 80.6281H71.9409C71.7884 80.6268 71.6372 80.6557 71.4959 80.7132C71.3546 80.7706 71.2262 80.8555 71.1179 80.9629C71.0096 81.0702 70.9236 81.198 70.865 81.3388C70.8063 81.4795 70.7761 81.6305 70.7761 81.783V86.3442C70.7761 86.6531 70.8988 86.9494 71.1173 87.1678C71.3357 87.3863 71.632 87.509 71.9409 87.509H76.5021C76.811 87.509 77.1072 87.3863 77.3257 87.1678C77.5441 86.9494 77.6668 86.6531 77.6668 86.3442V81.783ZM77.6668 70.4682C77.6668 70.1593 77.5441 69.863 77.3257 69.6446C77.1072 69.4261 76.811 69.3034 76.5021 69.3034H71.9409C71.632 69.3034 71.3357 69.4261 71.1173 69.6446C70.8988 69.863 70.7761 70.1593 70.7761 70.4682V75.0196C70.7761 75.3285 70.8988 75.6248 71.1173 75.8432C71.3357 76.0616 71.632 76.1843 71.9409 76.1843H76.5021C76.811 76.1843 77.1072 76.0616 77.3257 75.8432C77.5441 75.6248 77.6668 75.3285 77.6668 75.0196V70.4682ZM77.6668 59.1436C77.6668 58.8346 77.5441 58.5384 77.3257 58.3199C77.1072 58.1015 76.811 57.9788 76.5021 57.9788H71.9409C71.632 57.9788 71.3357 58.1015 71.1173 58.3199C70.8988 58.5384 70.7761 58.8346 70.7761 59.1436V63.7047C70.7761 64.0136 70.8988 64.3099 71.1173 64.5283C71.3357 64.7468 71.632 64.8695 71.9409 64.8695H76.5021C76.8102 64.8669 77.105 64.7434 77.3229 64.5255C77.5407 64.3076 77.6643 64.0129 77.6668 63.7047V59.1436ZM77.6668 47.8189C77.6642 47.5117 77.5404 47.218 77.3222 47.0016C77.1041 46.7853 76.8093 46.6639 76.5021 46.6639H71.9409C71.7884 46.6627 71.6372 46.6916 71.4959 46.749C71.3546 46.8065 71.2262 46.8914 71.1179 46.9988C71.0096 47.1061 70.9236 47.2339 70.865 47.3747C70.8063 47.5154 70.7761 47.6664 70.7761 47.8189V52.3703C70.7761 52.6792 70.8988 52.9755 71.1173 53.1939C71.3357 53.4124 71.632 53.5351 71.9409 53.5351H76.5021C76.811 53.5351 77.1072 53.4124 77.3257 53.1939C77.5441 52.9755 77.6668 52.6792 77.6668 52.3703V47.8189Z" fill="#225354"/>
</svg>
