<svg width="138" height="138" viewBox="0 0 138 138" fill="none" xmlns="http://www.w3.org/2000/svg">
<circle cx="69" cy="69" r="69" fill="#FFF5DD"/>
<path d="M57.4823 34.2674C57.4377 34.4234 57.3487 34.9137 57.3265 35.3371L57.2597 36.1171L45.8413 36.2286C36.0255 36.3177 34.4006 36.3846 34.2226 36.6743C34.089 36.8749 34 40.0172 34 44.0733C34 50.2019 34.0445 51.1825 34.3561 51.4722C34.6677 51.7842 38.0732 51.8288 68.5 51.8288C98.9268 51.8288 102.332 51.7842 102.644 51.4722C102.955 51.1825 103 50.2019 103 44.0733C103 40.0172 102.911 36.8749 102.777 36.6743C102.599 36.3846 100.975 36.3177 91.1587 36.2286L79.7403 36.1171L79.6735 35.0474L79.6068 34H68.589C59.9752 34 57.549 34.0668 57.4823 34.2674ZM57.3265 43.9618L57.2597 49.4888L46.7539 49.5556L36.2258 49.6002V44.0287V38.4572H46.7984H57.371L57.3265 43.9618ZM100.73 43.9618L100.663 49.4888H90.2016H79.7403L79.6735 43.9618L79.629 38.4572H90.2016H100.774L100.73 43.9618ZM71.7942 46.3019L71.861 47.3716H68.5223H65.1613V46.4133C65.1613 45.8784 65.2281 45.3658 65.3171 45.2767C65.4061 45.2098 66.8752 45.1653 68.589 45.1876L71.7274 45.2544L71.7942 46.3019Z" fill="#FECC53"/>
<path d="M42.9033 46.2573V47.3716H46.242H49.5807V46.2573V45.143H46.242H42.9033V46.2573Z" fill="#225354"/>
<path d="M87.4199 46.2573V47.3716H90.7586H94.0973V46.2573V45.143H90.7586H87.4199V46.2573Z" fill="#225354"/>
<path d="M66.6527 54.3696C65.4285 54.8376 64.3601 55.7291 63.6701 56.9102C63.1359 57.8017 63.0469 58.2028 63.0469 59.6291C63.0469 61.0109 63.1804 61.5457 63.6701 62.5709C64.6717 64.6435 66.853 66.3149 68.5001 66.3149C70.1249 66.3149 72.3285 64.6435 73.2856 62.66C74.7546 59.6068 73.9311 56.3754 71.2824 54.8154C70.0359 54.1022 67.9436 53.8793 66.6527 54.3696Z" fill="#225354"/>
<path d="M86.4619 63.128C86.3729 63.1949 86.3061 65.7132 86.3061 68.6772V74.0927L89.6003 74.1596L92.8723 74.2264L92.939 75.2739L93.0058 76.3436H87.4636H81.899L81.81 73.6024C81.721 70.215 81.2758 69.1007 79.6732 68.1424C78.6716 67.5629 78.4713 67.5406 75.2439 67.4738L71.8606 67.3846L71.6381 68.2315C71.1484 69.9921 69.3677 71.0173 67.6316 70.5493C66.6077 70.2818 65.4948 69.1229 65.2723 68.0978L65.1165 67.3846L61.7555 67.4738C58.6394 67.5406 58.3055 67.5852 57.4152 68.0978C56.8142 68.4321 56.2132 69.0338 55.8571 69.6578C55.3229 70.5493 55.2561 70.9058 55.1894 73.491L55.1003 76.3436H51.2274H47.3545V75.3853C47.3323 73.7139 46.1526 71.8196 44.7058 71.2178C44.0158 70.9504 44.0158 70.9504 44.0158 69.1898V67.4292H42.9029H41.79V69.1898C41.79 70.9504 41.79 70.9504 41.1 71.2178C39.6532 71.8196 38.4736 73.7139 38.4513 75.3853V76.3213L36.27 76.3882L34.111 76.455L34.0442 77.4133C33.9774 78.2379 34.0442 78.3716 34.5339 78.5722L35.1126 78.7951V90.5844C35.1126 101.014 35.1571 102.418 35.4687 102.73C35.7803 103.042 39.0745 103.087 68.4552 103.087C88.6432 103.087 101.241 102.998 101.442 102.864C101.731 102.686 101.798 100.992 101.887 90.6735L101.998 78.6837L102.51 78.6168C102.977 78.5499 103.022 78.4385 102.955 77.5025L102.888 76.455L99.0378 76.3882L95.1871 76.3436L95.2539 75.2739L95.3207 74.2264L98.6148 74.1596L101.887 74.0927L101.842 68.5881L101.775 63.0834L94.1855 63.0166C90.0232 62.9943 86.551 63.0389 86.4619 63.128ZM62.9352 74.6722V76.3436H61.8223H60.7094V74.6722V73.0007H61.8223H62.9352V74.6722ZM76.29 74.6722V76.3436H75.1771H74.0642V74.6722V73.0007H75.1771H76.29V74.6722ZM99.6165 89.7598L99.661 100.858H97.9916H96.3223V91.3867V81.9151L68.5665 81.9597L40.7884 82.0266L40.6771 91.3867L40.5658 100.747H39.0077H37.4497L37.3829 89.9381C37.3606 83.9877 37.3829 78.9957 37.4497 78.8397C37.5165 78.6168 43.86 78.5722 68.5442 78.6168L99.5497 78.6837L99.6165 89.7598Z" fill="#225354"/>
</svg>
