<svg width="172" height="160" viewBox="0 0 172 160" fill="none" xmlns="http://www.w3.org/2000/svg">
<path d="M44.5099 43.0125C46.8078 47.6061 49.7744 51.7684 53.3365 55.3876C61.992 64.0431 73.5205 68.8102 85.7998 68.8102C98.0791 68.8102 109.608 64.0431 118.27 55.3808C121.823 51.7684 124.789 47.6084 127.087 43.0148C127.277 42.6337 127.279 42.191 127.097 41.8076C124.924 37.2985 121.955 33.1111 118.258 29.3549C109.546 20.7017 98.0175 15.937 85.7998 15.937C68.3062 15.937 52.0974 26.0917 44.503 41.8054C44.3159 42.1864 44.3205 42.6314 44.5099 43.0125ZM85.7975 18.6731C97.2872 18.6731 108.131 23.1548 116.317 31.2855C119.625 34.6468 122.318 38.3801 124.331 42.3895C122.206 46.488 119.514 50.2098 116.323 53.4502C108.186 61.5877 97.3443 66.0695 85.7975 66.0695C74.2508 66.0695 63.4091 61.5877 55.2785 53.4571C52.0815 50.2098 49.3864 46.488 47.2642 42.3873C54.5254 27.9607 69.575 18.6731 85.7975 18.6731Z" fill="white"/>
<path d="M6.2415 89.6879C12.2613 95.6667 20.2277 98.9596 28.6732 98.9596C40.309 98.9596 51.105 92.4491 56.5794 82.2784C64.9063 83.6361 72.3204 88.661 76.5626 96.1254L80.7523 103.496C83.1575 107.731 84.4285 112.544 84.4285 117.414V144.448H68.8267C68.0691 144.448 67.4575 145.062 67.4575 145.817V157.17H54.0327C53.2751 157.17 52.6635 157.784 52.6635 158.539C52.6635 159.295 53.2774 159.909 54.0327 159.909H117.563C118.32 159.909 118.932 159.295 118.932 158.539C118.932 157.784 118.318 157.17 117.563 157.17H70.1959V147.187H101.402V150.824C101.402 151.579 102.016 152.193 102.771 152.193C103.526 152.193 104.14 151.579 104.14 150.824V145.82C104.14 145.064 103.526 144.451 102.771 144.451H87.1669V117.414C87.1669 112.544 88.4379 107.734 90.8431 103.498L95.0328 96.1254C99.275 88.6588 106.694 83.6339 115.023 82.2784C116.451 84.9369 118.268 87.4288 120.49 89.6879C126.513 95.6667 134.479 98.9596 142.922 98.9596C155.012 98.9596 166.214 91.9425 171.46 81.0826C171.645 80.7015 171.643 80.2543 171.454 79.8732C169.868 76.7012 167.818 73.8283 165.356 71.3272C159.375 65.3439 151.409 62.051 142.922 62.051C134.438 62.051 126.469 65.3462 120.479 71.3364C118.108 73.7438 116.13 76.5118 114.566 79.556C105.432 81.0484 97.3057 86.5867 92.6527 94.7722L88.4631 102.147C87.3403 104.124 86.4572 106.216 85.7977 108.377C85.1359 106.216 84.2528 104.121 83.1324 102.145L78.9427 94.7722C74.2897 86.5867 66.1637 81.0461 57.029 79.556C55.4681 76.5118 53.4851 73.7438 51.1073 71.3295C45.1262 65.3462 37.1599 62.0533 28.6732 62.0533C20.1866 62.0533 12.2203 65.3485 6.23237 71.3386C3.77926 73.8305 1.73005 76.7035 0.144082 79.8778C-0.0453216 80.2588 -0.0476029 80.7015 0.134954 81.0849C1.63421 84.1998 3.68569 87.0911 6.2415 89.6879ZM122.426 73.2646C127.891 67.7993 135.17 64.7894 142.924 64.7894C150.679 64.7894 157.958 67.7993 163.414 73.2555C165.509 75.3846 167.284 77.8194 168.697 80.4962C163.786 90.0713 153.743 96.2235 142.924 96.2235C135.209 96.2235 127.927 93.2113 122.435 87.7551C120.682 85.9752 119.201 84.0355 117.987 81.9772C118.501 81.9498 119.007 81.8745 119.525 81.8745H139.753C140.51 81.8745 141.122 81.2606 141.122 80.5053C141.122 79.75 140.508 79.1361 139.753 79.1361H119.525C118.982 79.1361 118.444 79.1612 117.903 79.1909C119.176 77.0299 120.682 75.0331 122.426 73.2646ZM8.17432 73.2646C13.6396 67.7993 20.9168 64.7894 28.6709 64.7894C36.4251 64.7894 43.7045 67.7993 49.1607 73.2555C50.9087 75.0309 52.4171 77.0276 53.695 79.1909C53.1565 79.1635 52.6179 79.1361 52.0748 79.1361H31.8474C31.0898 79.1361 30.4783 79.75 30.4783 80.5053C30.4783 81.2606 31.0921 81.8745 31.8474 81.8745H52.0748C52.5951 81.8745 53.1017 81.9498 53.6174 81.9772C48.4624 90.6988 38.9215 96.2235 28.6732 96.2235C20.9579 96.2235 13.6761 93.2113 8.18345 87.7551C6.01558 85.553 4.24021 83.1159 2.9007 80.4962C4.31095 77.8171 6.08632 75.3846 8.17432 73.2646Z" fill="white"/>
<path d="M67.5129 101.091C67.3737 100.69 67.0565 100.377 66.6549 100.242C64.4779 99.5189 62.2279 99.1401 59.9527 99.1218C54.476 99.1218 49.3188 101.262 45.4326 105.148C41.5464 109.032 39.4082 114.19 39.4082 119.678C39.4265 121.937 39.803 124.189 40.5286 126.366C40.6633 126.77 40.9759 127.085 41.3753 127.227C43.4906 127.968 45.7543 128.354 48.1185 128.37C53.6089 128.354 58.7638 126.216 62.6341 122.345C68.1678 116.809 70.0847 108.466 67.5129 101.091ZM48.123 125.631C46.3157 125.618 44.5677 125.355 42.9247 124.851C42.4227 123.149 42.1625 121.405 42.1488 119.666C42.1488 114.92 44.0041 110.452 47.3723 107.081C50.7404 103.713 55.2108 101.858 59.9436 101.858C61.6939 101.874 63.4396 102.134 65.1397 102.636C67.0405 108.864 65.3336 115.771 60.6967 120.408C57.3422 123.763 52.8718 125.615 48.123 125.631Z" fill="#F8EE00"/>
<path d="M104.937 100.242C104.535 100.377 104.218 100.69 104.079 101.091C101.509 108.464 103.424 116.809 108.96 122.345C112.83 126.211 117.985 128.352 123.489 128.368C125.837 128.352 128.101 127.966 130.216 127.224C130.616 127.083 130.928 126.768 131.063 126.364C131.789 124.187 132.165 121.937 132.183 119.664C132.183 114.187 130.043 109.03 126.159 105.146C122.273 101.26 117.118 99.1196 111.627 99.1196C109.366 99.1401 107.114 99.5189 104.937 100.242ZM124.222 107.081C127.59 110.452 129.445 114.92 129.445 119.655C129.431 121.405 129.171 123.149 128.669 124.851C127.024 125.355 125.28 125.618 123.484 125.631C118.722 125.616 114.252 123.763 110.897 120.41C106.26 115.771 104.553 108.861 106.454 102.636C108.154 102.134 109.898 101.874 111.639 101.858C116.383 101.858 120.853 103.715 124.222 107.081Z" fill="#F8EE00"/>
<path d="M85.7968 57.9458C94.3838 57.9458 101.369 50.9584 101.369 42.3713C101.369 33.7843 94.3815 26.7992 85.7968 26.7992C77.212 26.7992 70.2246 33.7866 70.2246 42.3713C70.2246 50.9584 77.2097 57.9458 85.7968 57.9458ZM85.7968 29.5376C92.8731 29.5376 98.6305 35.295 98.6305 42.3713C98.6305 49.45 92.8731 55.2074 85.7968 55.2074C78.7204 55.2074 72.963 49.45 72.963 42.3713C72.963 35.295 78.7204 29.5376 85.7968 29.5376Z" fill="#F8EE00"/>
<path d="M52.1439 23.3968C52.4954 23.3968 52.8445 23.2622 53.1115 22.9952C53.6455 22.4612 53.6455 21.594 53.1115 21.0578L48.7324 16.6787C48.1984 16.1447 47.3313 16.147 46.795 16.6787C46.261 17.2127 46.261 18.0798 46.795 18.6161L51.1741 22.9952C51.4434 23.2644 51.7948 23.3968 52.1439 23.3968Z" fill="white"/>
<path d="M119.448 23.3968C119.798 23.3968 120.149 23.2622 120.416 22.9952L124.795 18.6161C125.329 18.0821 125.329 17.2149 124.795 16.6787C124.263 16.147 123.396 16.1447 122.858 16.6787L118.479 21.0578C117.945 21.5918 117.945 22.4589 118.479 22.9952C118.748 23.2644 119.097 23.3968 119.448 23.3968Z" fill="white"/>
<path d="M87.1671 9.6299V1.36918C87.1671 0.611568 86.5532 0 85.7979 0C85.0426 0 84.4287 0.61385 84.4287 1.36918V9.6299C84.4287 10.3875 85.0426 10.9991 85.7979 10.9991C86.5532 10.9991 87.1671 10.3875 87.1671 9.6299Z" fill="white"/>
</svg>
