<svg width="30" height="26" viewBox="0 0 30 26" fill="none" xmlns="http://www.w3.org/2000/svg">
<path d="M2.11839 14.1851C2.11827 11.723 2.8712 9.31979 4.27615 7.29794C5.6811 5.27608 7.67084 3.73231 9.97838 2.87379C12.2859 2.01527 14.8008 1.88308 17.1857 2.49495C19.5705 3.10682 21.7111 4.43348 23.3203 6.2969L24.9242 4.91029C22.6356 2.26268 19.4494 0.554214 15.9776 0.11317C12.5059 -0.327875 8.99364 0.529622 6.11575 2.52089C3.23785 4.51216 1.19734 7.49671 0.386315 10.9011C-0.424713 14.3054 0.0509538 17.8894 1.72191 20.9644L3.5792 19.9435C2.61647 18.1771 2.11408 16.1968 2.11839 14.1851Z" fill="black"/>
<path d="M3.51562 23.57C3.98615 24.1023 4.49265 24.6017 5.03156 25.0647C6.32488 23.8774 9.80199 21.1212 14.1908 21.1212C18.5796 21.1212 22.0567 23.8774 23.35 25.0541C23.8879 24.5975 24.3911 24.1014 24.8553 23.57C23.3924 22.1919 19.4277 19.001 14.1908 19.001C8.95391 19.001 4.97856 22.2025 3.51562 23.57Z" fill="black"/>
<ellipse cx="14.3114" cy="11.131" rx="4.77043" ry="4.77043" fill="#F8EE00"/>
<path d="M8.60156 11.1212C8.60198 12.2259 8.92993 13.3056 9.54394 14.2238C10.158 15.1421 11.0305 15.8577 12.0511 16.2802C13.0718 16.7026 14.1948 16.8129 15.2782 16.5971C16.3616 16.3814 17.3566 15.8492 18.1376 15.068C18.9186 14.2867 19.4503 13.2915 19.6657 12.208C19.881 11.1246 19.7703 10.0016 19.3475 8.98107C18.9246 7.96055 18.2087 7.08832 17.2902 6.47465C16.3717 5.86099 15.2919 5.53345 14.1872 5.53345C12.706 5.53513 11.2859 6.12445 10.2387 7.17205C9.19146 8.21966 8.60268 9.63995 8.60156 11.1212ZM17.6527 11.1212C17.6524 11.8066 17.449 12.4765 17.0681 13.0462C16.6872 13.616 16.1459 14.06 15.5126 14.3221C14.8794 14.5842 14.1826 14.6527 13.5105 14.5189C12.8383 14.385 12.2209 14.0549 11.7364 13.5702C11.2518 13.0855 10.9219 12.468 10.7883 11.7958C10.6546 11.1236 10.7233 10.4269 10.9856 9.79374C11.248 9.16057 11.6921 8.6194 12.262 8.23866C12.8319 7.85792 13.5018 7.6547 14.1872 7.6547C15.1056 7.65666 15.9857 8.02265 16.6347 8.67244C17.2837 9.32223 17.6486 10.2028 17.6495 11.1212H17.6527Z" fill="black"/>
<path d="M29.9991 13.1249H27.0065V10.1312H24.8863V13.1249H21.8926V15.2451H24.8863V18.2388H27.0065V15.2451H29.9991V13.1249Z" fill="black"/>
</svg>
