<svg width="148" height="188" viewBox="0 0 148 188" fill="none" xmlns="http://www.w3.org/2000/svg">
<path d="M117.427 86.3623C117.553 86.197 117.676 86.0265 117.855 85.8481C125.038 78.468 128.992 68.7635 128.992 58.5185C128.992 47.9639 124.886 38.0416 117.427 30.588C109.968 23.1266 100.049 19.0208 89.494 19.0208C78.9132 19.0208 69.0092 23.1292 61.6187 30.588C56.7231 35.481 53.2967 41.4181 51.4838 47.8668H39.5414C25.0121 47.8668 13.1904 59.6886 13.1904 74.2178V80.921C13.1904 80.942 13.1877 80.963 13.1904 80.984V81.3356C13.1904 85.6985 11.7474 90.0274 9.12646 93.5194L1.50764 103.68C0.00434163 105.687 -0.404935 108.301 0.41624 110.667C1.23741 113.036 3.17098 114.836 5.59515 115.484L13.193 117.509V143.845C13.193 154.562 21.9111 163.28 32.6283 163.28H56.9802V175.534C52.3995 176.783 49.002 180.936 49.002 185.908C49.002 186.776 49.7077 187.482 50.5761 187.482C51.4445 187.482 52.1502 186.776 52.1502 185.908C52.1502 181.692 55.5819 178.26 59.7979 178.26H96.8898C101.106 178.26 104.537 181.692 104.537 185.908C104.537 186.776 105.243 187.482 106.112 187.482C106.98 187.482 107.686 186.776 107.686 185.908C107.686 180.936 104.291 176.783 99.7101 175.534V162.474C99.7101 161.606 99.0044 160.9 98.136 160.9C97.2676 160.9 96.5619 161.606 96.5619 162.474V175.112H60.1259V163.277H69.875C70.7434 163.277 71.4492 162.571 71.4492 161.703C71.4492 160.835 70.7434 160.129 69.875 160.129H58.5543H32.6257C23.6426 160.129 16.336 152.822 16.336 143.839V116.297C16.336 115.586 15.8559 114.959 15.1685 114.775L6.40321 112.435C4.97337 112.052 3.87409 111.034 3.39136 109.633C2.906 108.235 3.1395 106.75 4.02888 105.567L11.6477 95.4057C14.5756 91.4966 16.2179 86.6798 16.3176 81.8026C19.967 79.8952 23.354 77.5235 26.4341 74.7321C35.8133 87.2438 50.5394 94.679 66.2047 94.679C67.0127 94.679 67.8103 94.6318 68.6052 94.5898C71.8348 99.063 73.9966 103.261 75.3897 106.69H74.0727C68.8728 106.69 64.641 110.919 64.641 116.121C64.641 121.324 68.8702 125.553 74.0727 125.553H104.91C110.11 125.553 114.342 121.324 114.342 116.121C114.342 110.919 110.113 106.69 104.91 106.69H103.635C105.786 101.29 109.8 93.9654 117.243 86.5774C117.296 86.5223 117.38 86.4174 117.427 86.3623ZM66.2047 91.5307C50.9749 91.5307 36.6765 84.0431 27.9584 71.5025C27.9321 71.4657 27.8928 71.4474 27.8666 71.4133C27.8377 71.3792 27.8272 71.3345 27.7957 71.3031C27.7511 71.2558 27.6908 71.2375 27.6436 71.1981C27.5596 71.1299 27.4783 71.0696 27.3812 71.0197C27.2946 70.9751 27.208 70.9436 27.1136 70.9148C27.0113 70.8833 26.9116 70.8597 26.8066 70.8518C26.7122 70.8439 26.623 70.8466 26.5285 70.8571C26.4236 70.8649 26.3213 70.8833 26.219 70.9122C26.1193 70.941 26.0301 70.9856 25.9382 71.0355C25.8831 71.0643 25.8202 71.0722 25.7677 71.1089C25.731 71.1352 25.7126 71.1745 25.6785 71.2007C25.6444 71.2296 25.5998 71.2401 25.5683 71.2716C22.7769 73.9896 19.6706 76.2983 16.336 78.203V74.2152C16.336 61.4201 26.7463 51.0098 39.5414 51.0098H50.7151C50.2429 53.4602 49.9884 55.971 49.9884 58.5158C49.9884 68.6979 53.9421 78.3998 61.1438 85.8586C61.3222 86.0396 61.5085 86.2206 61.7918 86.5696C63.4552 88.2329 64.906 89.8884 66.2466 91.5281C66.2335 91.5307 66.2204 91.5307 66.2047 91.5307ZM111.196 116.116C111.196 119.579 108.376 122.402 104.91 122.402H74.0727C70.6096 122.402 67.7867 119.582 67.7867 116.116C67.7867 112.65 70.607 109.83 74.0727 109.83H77.6749H101.366H104.91C108.376 109.833 111.196 112.653 111.196 116.116ZM115.026 84.3395C106.673 92.6326 102.407 100.897 100.261 106.687H78.7741C77.2761 102.736 74.7758 97.6436 70.8064 92.2522L70.8011 92.2443C68.9305 89.7047 66.7608 87.1021 64.1661 84.5127C63.9458 84.2241 63.6624 83.925 63.3896 83.6548C56.7782 76.8073 53.1367 67.8793 53.1367 58.5185C53.1367 48.8428 56.9382 39.7154 63.8461 32.8076C70.6516 25.9443 79.7553 22.1638 89.4914 22.1638C99.2038 22.1638 108.336 25.9443 115.202 32.8102C122.063 39.6734 125.846 48.806 125.846 58.5185C125.846 67.9397 122.205 76.865 115.617 83.6364C115.341 83.9067 115.126 84.1821 115.026 84.3395Z" fill="white"/>
<path d="M89.4919 153.597C94.8072 153.597 99.1335 149.273 99.1335 143.955V142.072H100.5C104.462 142.072 107.681 138.85 107.681 134.891C107.681 134.023 106.975 133.317 106.107 133.317C105.238 133.317 104.533 134.023 104.533 134.891C104.533 137.116 102.722 138.926 100.498 138.926H97.5593H81.4244H78.486C76.2613 138.926 74.451 137.116 74.451 134.891C74.451 134.023 73.7453 133.317 72.8769 133.317C72.0085 133.317 71.3027 134.023 71.3027 134.891C71.3027 138.853 74.5245 142.072 78.4834 142.072H79.8503V143.955C79.8503 149.271 84.1765 153.597 89.4919 153.597ZM95.9878 142.072V143.955C95.9878 147.537 93.0757 150.451 89.4919 150.451C85.9081 150.451 82.9959 147.539 82.9959 143.955V142.072H95.9878Z" fill="white"/>
<path d="M103.946 62.8528C101.154 62.8528 98.6381 62.8528 96.3609 62.8502H96.3556C75.0917 62.8449 75.0235 62.8528 74.9972 62.8528C74.1367 62.8791 73.4572 63.59 73.4729 64.4532C73.486 65.3111 74.1892 65.9985 75.0497 65.9985C75.0523 65.9985 75.0549 65.9985 75.0576 65.9985C75.1782 65.9985 77.6339 65.9985 81.0576 65.9985V78.2557C81.0576 79.1241 81.7634 79.8299 82.6318 79.8299C83.5002 79.8299 84.2059 79.1241 84.2059 78.2557V65.9985C87.5851 65.9985 91.4102 65.9985 94.7894 65.9985V78.2557C94.7894 79.1241 95.4951 79.8299 96.3635 79.8299C97.2319 79.8299 97.9376 79.1241 97.9376 78.2557V65.9985C101.456 65.9985 103.953 65.9985 103.953 65.9985C104.822 65.9985 105.528 65.2927 105.528 64.4243C105.528 63.5559 104.814 62.8528 103.946 62.8528Z" fill="#F8EE00"/>
<path d="M91.0604 7.03377V1.57414C91.0604 0.705736 90.3546 0 89.4862 0C88.6178 0 87.9121 0.705736 87.9121 1.57414V7.03377C87.9121 7.90216 88.6178 8.6079 89.4862 8.6079C90.3546 8.6079 91.0604 7.90216 91.0604 7.03377Z" fill="#F8EE00"/>
<path d="M63.75 15.5104C64.0176 15.5104 64.2878 15.4422 64.5371 15.2979C65.29 14.8598 65.5472 13.8995 65.1116 13.1466L62.3831 8.43728C61.9476 7.68432 60.9822 7.42196 60.2318 7.86272C59.4789 8.30085 59.2218 9.26107 59.6573 10.014L62.3858 14.7233C62.677 15.2271 63.2069 15.5104 63.75 15.5104Z" fill="#F8EE00"/>
<path d="M44.1188 34.1355C44.3681 34.2798 44.6383 34.3454 44.9059 34.3454C45.449 34.3454 45.979 34.0673 46.2728 33.5609C46.7083 32.808 46.4512 31.8451 45.6982 31.4096L40.9863 28.6811C40.236 28.2456 39.2705 28.5053 38.835 29.2557C38.3995 30.0086 38.6566 30.9715 39.4096 31.407L44.1188 34.1355Z" fill="#F8EE00"/>
<path d="M133.281 85.6125L137.99 88.3436C138.24 88.4905 138.51 88.5588 138.777 88.5588C139.32 88.5588 139.85 88.278 140.142 87.7717C140.58 87.0213 140.323 86.0585 139.57 85.623L134.86 82.8919C134.107 82.4511 133.145 82.7135 132.712 83.4638C132.271 84.2141 132.528 85.177 133.281 85.6125Z" fill="#F8EE00"/>
<path d="M146.426 60.0877C147.295 60.0877 148 59.382 148 58.5136C148 57.6452 147.295 56.9395 146.426 56.9395H140.967C140.098 56.9395 139.393 57.6452 139.393 58.5136C139.393 59.382 140.098 60.0877 140.967 60.0877H146.426Z" fill="#F8EE00"/>
<path d="M134.068 34.3478C134.336 34.3478 134.606 34.2796 134.855 34.1353L139.565 31.4068C140.318 30.9686 140.575 30.0084 140.139 29.2554C139.704 28.5025 138.741 28.2428 137.988 28.6809L133.279 31.4094C132.526 31.8475 132.269 32.8078 132.704 33.5607C132.995 34.0671 133.525 34.3478 134.068 34.3478Z" fill="#F8EE00"/>
<path d="M115.224 15.5082C115.768 15.5082 116.298 15.2301 116.589 14.7238L119.32 10.0145C119.758 9.26413 119.501 8.30128 118.748 7.86577C117.992 7.42239 117.032 7.68475 116.599 8.43771L113.868 13.147C113.43 13.8973 113.687 14.8602 114.44 15.2957C114.687 15.44 114.957 15.5082 115.224 15.5082Z" fill="#F8EE00"/>
<path d="M108.002 38.5066C107.713 38.8214 107.529 39.2176 107.529 39.6374C107.529 40.0283 107.687 40.4507 108.002 40.7393C108.288 41.0541 108.684 41.2115 109.103 41.2115C109.523 41.2115 109.917 41.0541 110.232 40.7393C110.52 40.4507 110.678 40.0571 110.678 39.6374C110.678 39.2176 110.52 38.7978 110.232 38.5066C109.628 37.932 108.579 37.932 108.002 38.5066Z" fill="white"/>
</svg>
