<svg width="27" height="28" viewBox="0 0 27 28" fill="none" xmlns="http://www.w3.org/2000/svg">
<path d="M22.8977 4.40599C20.7012 2.20946 17.7806 0.999877 14.6744 1C14.1654 1 13.7529 1.41257 13.7529 1.92147C13.7529 2.43036 14.1655 2.84294 14.6744 2.84294C17.2884 2.84281 19.746 3.86073 21.5945 5.70919C23.4431 7.55766 24.461 10.0154 24.4609 12.6295C24.4609 13.1384 24.8733 13.551 25.3824 13.551C25.8912 13.551 26.3038 13.1384 26.3038 12.6297C26.3039 9.52309 25.0944 6.60253 22.8977 4.40599Z" fill="black" stroke="black" stroke-width="0.5"/>
<path d="M19.1072 12.6293C19.1072 13.1382 19.5197 13.5508 20.0287 13.5507C20.5376 13.5507 20.9501 13.1381 20.9501 12.6292C20.9498 9.1694 18.1346 6.35425 14.6745 6.35376C14.6744 6.35376 14.6746 6.35376 14.6745 6.35376C14.1656 6.35376 13.7531 6.76621 13.7529 7.27511C13.7529 7.784 14.1654 8.19657 14.6743 8.1967C17.1184 8.19707 19.1069 10.1855 19.1072 12.6293Z" fill="black"/>
<path d="M14.6745 6.35376C18.1346 6.35425 20.9498 9.1694 20.9501 12.6292C20.9501 13.1381 20.5376 13.5507 20.0287 13.5507C19.5197 13.5508 19.1072 13.1382 19.1072 12.6293C19.1069 10.1855 17.1184 8.19707 14.6743 8.1967C14.1654 8.19657 13.7529 7.784 13.7529 7.27511C13.7531 6.76621 14.1656 6.35376 14.6745 6.35376ZM14.6745 6.35376C14.6744 6.35376 14.6746 6.35376 14.6745 6.35376Z" stroke="black" stroke-width="0.5"/>
<path d="M17.0681 17.3279C15.6636 17.2551 14.948 18.2997 14.6049 18.8015C14.3175 19.2215 14.4251 19.7949 14.8452 20.0823C15.2653 20.3697 15.8387 20.2621 16.126 19.842C16.5315 19.2492 16.7152 19.1559 16.9643 19.1677C17.7618 19.2615 20.9028 21.5632 21.2173 22.2829C21.2962 22.4949 21.2933 22.7026 21.2086 22.9553C20.8788 23.9341 20.333 24.6218 19.6297 24.9442C18.9616 25.2505 18.1424 25.2228 17.2614 24.8643C13.9715 23.5233 11.0973 21.652 8.71865 19.3021C8.71767 19.3012 8.71668 19.3003 8.71582 19.2993C6.37087 16.923 4.50299 14.0525 3.16428 10.7676C2.80565 9.88585 2.77788 9.0666 3.08418 8.3986C3.40657 7.69533 4.09435 7.14946 5.07221 6.82006C5.3258 6.73504 5.53319 6.73234 5.74317 6.81048C6.46548 7.12611 8.76706 10.267 8.85994 11.0555C8.87321 11.314 8.77922 11.4976 8.1869 11.9023C7.76671 12.1893 7.65871 12.7627 7.94584 13.1829C8.23285 13.603 8.80613 13.7109 9.22644 13.4239C9.72846 13.0811 10.7728 12.3675 10.7003 10.9582C10.6204 9.48605 7.75676 5.58751 6.38844 5.08438C5.7799 4.85758 5.13979 4.85365 4.48518 5.07333C3.0123 5.56932 1.94856 6.45369 1.40895 7.63071C0.885554 8.77259 0.90214 10.0974 1.45748 11.4627C2.89018 14.978 4.89468 18.0539 7.4152 20.6051C7.42134 20.6114 7.42761 20.6175 7.434 20.6235C9.98339 23.1394 13.0557 25.1402 16.5664 26.5712C17.2694 26.8571 17.9617 27.0002 18.6238 27.0002C19.2472 27.0002 19.8441 26.8734 20.3977 26.6196C21.5749 26.0801 22.4591 25.0165 22.9555 23.5426C23.1746 22.8892 23.1711 22.2494 22.946 21.6437C22.4412 20.2717 18.5426 17.408 17.0681 17.3279Z" fill="black" stroke="black" stroke-width="0.5"/>
</svg>
