<svg width="21" height="22" viewBox="0 0 21 22" fill="none" xmlns="http://www.w3.org/2000/svg">
<path d="M13.5406 0.826346C13.5542 0.839874 13.6455 0.863548 13.7435 0.877076C14.1798 0.93457 14.7548 1.35732 14.9205 1.73949C15.1133 2.18591 15.1031 2.02696 15.1031 4.44847C15.1031 5.90273 15.1166 6.6975 15.1369 6.72117C15.1606 6.74485 15.9926 6.75837 17.4874 6.76514L19.8041 6.77528L20.0408 6.89704C20.3418 7.05261 20.5989 7.28258 20.7578 7.54638C20.9946 7.92516 20.9844 7.76959 20.9946 10.8337C21.0081 14.0026 21.0182 13.864 20.7409 14.1311C20.5819 14.2833 20.3892 14.3679 20.0746 14.4152C20.0002 14.4288 19.9022 14.4524 19.8548 14.466C19.8075 14.4829 19.6857 14.5201 19.5843 14.5471C19.4828 14.5776 19.3171 14.6249 19.2156 14.652C19.1175 14.6824 18.9755 14.7061 18.9045 14.7061C18.8335 14.7061 18.7658 14.7196 18.7557 14.7399C18.7286 14.7805 17.4333 14.7872 17.4063 14.7467C17.3961 14.7297 17.2439 14.7061 17.0681 14.6959C16.8888 14.6824 16.7163 14.6587 16.6757 14.6384C16.6385 14.6215 16.5777 14.5911 16.5405 14.5708C16.5066 14.5539 16.4153 14.5268 16.3375 14.5167C16.2631 14.5032 16.2023 14.4829 16.2023 14.4693C16.2023 14.4524 16.1549 14.4321 16.0974 14.4186C16.0399 14.4051 15.9554 14.3746 15.9046 14.3476C15.8539 14.3205 15.7998 14.3002 15.7795 14.3002C15.6983 14.3002 13.9329 13.4142 13.801 13.3059C13.774 13.2823 13.6928 13.2349 13.6218 13.2011C13.5542 13.1639 13.4967 13.1233 13.4967 13.1098C13.4967 13.0996 13.4696 13.0793 13.4358 13.0726C13.4053 13.0624 13.5406 13.0557 13.7368 13.0523C14.0107 13.0489 14.1054 13.0354 14.1392 12.9982C14.1629 12.9711 14.2238 12.9474 14.2745 12.9474C14.5011 12.9474 15.1606 12.7411 15.5935 12.5348C16.6622 12.0241 17.4976 11.1313 18.0184 9.94084C18.1807 9.57558 18.174 9.55191 17.9169 9.47074C17.3826 9.30164 17.227 9.27796 16.5235 9.27796C15.6814 9.27796 15.4413 9.32869 14.7514 9.65675C14.305 9.86643 13.916 10.1573 13.4696 10.6071C13.2633 10.8202 13.0908 10.9859 13.0908 10.9791C13.0908 10.969 13.1585 10.8032 13.243 10.6105C13.5305 9.95436 13.7503 9.24076 13.8924 8.51701C13.9803 8.05368 13.9803 6.46414 13.8924 6.06506C13.6488 4.98959 13.358 4.33348 12.7256 3.46092C12.2791 2.83864 11.1834 1.8308 10.9872 1.86124C10.9365 1.868 10.8756 1.93226 10.7978 2.0743C10.5171 2.56808 10.0944 3.46092 9.92188 3.91749C9.23872 5.70995 9.073 7.32655 9.42473 8.76052C9.4687 8.93976 9.5059 9.14945 9.5059 9.22723C9.5059 9.30164 9.51943 9.38957 9.53295 9.42339C9.54986 9.45383 9.58707 9.53161 9.6175 9.59249C9.64794 9.65675 9.675 9.72439 9.675 9.74468C9.675 9.76835 9.71896 9.8732 9.77308 9.97804C9.82381 10.0863 9.85763 10.1742 9.84748 10.1742C9.81704 10.1742 9.24548 9.58911 9.23196 9.54176C9.22519 9.52147 9.09329 9.3659 8.93772 9.1968C8.78553 9.03108 8.6604 8.88227 8.6604 8.86874C8.6604 8.85521 8.59276 8.7639 8.50821 8.66582C8.42366 8.57113 8.35602 8.47981 8.35602 8.46628C8.35602 8.45614 8.29514 8.37159 8.22074 8.28366C8.14633 8.19572 8.08546 8.10779 8.08546 8.0875C8.08546 8.07059 8.05502 8.02662 8.01782 7.9928C7.98062 7.95898 7.95018 7.91164 7.95018 7.88458C7.95018 7.86091 7.93665 7.84061 7.91974 7.84061C7.90283 7.84061 7.87916 7.81356 7.86901 7.77974C7.82843 7.67151 7.74388 7.53623 7.71682 7.53623C7.69991 7.53623 7.67624 7.49565 7.66271 7.44492C7.65256 7.39419 7.60521 7.30964 7.55787 7.25553C7.5139 7.20142 7.4767 7.14392 7.4767 7.12363C7.4767 7.10672 7.44288 7.04246 7.40229 6.98835C7.31774 6.8666 7.10468 6.45061 7.10468 6.40326C7.10468 6.38297 7.08438 6.32886 7.05733 6.27813C7.03027 6.2274 6.99984 6.13609 6.98631 6.07521C6.97278 6.01433 6.94911 5.94669 6.93558 5.92978C6.92205 5.90949 6.90176 5.84862 6.89161 5.7945C6.84764 5.57467 6.79353 5.31426 6.76309 5.1756C6.72251 4.98621 6.72589 3.07538 6.76648 2.66954C6.80706 2.30766 6.86794 2.04048 6.99307 1.70228C7.14864 1.27953 7.58154 0.954863 8.11251 0.866931C8.36616 0.826346 13.5 0.789145 13.5406 0.826346Z" fill="#F8EE00"/>
<path d="M11.8837 5.07401C12.1915 5.70983 12.4823 6.63988 12.6176 7.41774C12.6785 7.75594 12.7833 8.91934 12.7867 9.24402C12.7867 9.6228 12.7022 10.6205 12.6345 11.0534C12.577 11.4017 12.55 11.5302 12.4485 11.9564C12.4113 12.1086 12.3809 12.2472 12.3809 12.2675C12.3809 12.3521 12.479 12.2912 12.6853 12.0815C12.9626 11.8008 13.3346 11.4897 13.6829 11.2495C14.1463 10.9283 14.9444 10.5427 15.3537 10.4379C15.6344 10.3668 16.0267 10.2823 16.1822 10.2586C16.3344 10.2383 16.3446 10.2417 16.2938 10.2891C16.2668 10.3195 16.2228 10.3432 16.2025 10.3432C16.1045 10.3432 15.144 10.7964 14.7855 11.0128C14.1564 11.3882 13.5409 11.9327 13.152 12.4569C13.0404 12.6057 12.9389 12.7512 12.922 12.7782C12.8983 12.8188 12.8814 12.8188 12.8104 12.7816C12.6514 12.697 12.3437 12.4366 12.364 12.4062C12.3775 12.3859 12.3471 12.3724 12.3031 12.3724C12.2591 12.3724 12.1678 12.3318 12.0968 12.2811C11.8093 12.0646 11.4508 11.7805 11.4271 11.7501C11.417 11.7332 11.4508 11.5945 11.5083 11.4457C11.7146 10.8911 11.8127 10.519 11.9717 9.70059C12.0291 9.40973 12.0799 8.82127 12.1002 8.22942C12.1171 7.69844 12.0494 6.63649 11.975 6.28477C11.9581 6.20022 11.9277 6.0345 11.9108 5.91275C11.8905 5.79099 11.8533 5.58469 11.8228 5.45618C11.7924 5.32428 11.7552 5.1518 11.7383 5.06725C11.7214 4.9827 11.6977 4.88124 11.6842 4.83727C11.6707 4.7933 11.6774 4.76287 11.6977 4.76287C11.718 4.76287 11.8026 4.90491 11.8837 5.07401Z" fill="#225354"/>
<path d="M5.7656 6.90035C6.28981 8.12802 6.82417 9.0141 7.71025 10.1234C8.3596 10.9351 9.52301 12.0985 10.355 12.7647C10.9806 13.2687 12.2252 14.1345 12.4484 14.2258C12.4755 14.2359 12.5533 14.2765 12.6175 14.3171C13.1384 14.6418 13.8926 15.0036 14.7144 15.3283L15.0695 15.467L15.0796 17.4623C15.0864 18.8828 15.0796 19.5254 15.0492 19.6911C14.9985 20.0022 14.8429 20.2965 14.6095 20.5231C14.3491 20.7801 14.251 20.841 13.9365 20.9492C13.7607 21.0101 13.6017 21.0134 10.8927 21.0134C7.84215 21.0134 8.01802 21.0236 7.646 20.8477C7.44984 20.7564 7.43293 20.7429 7.20634 20.5231C7.03385 20.354 6.85461 20.0563 6.7802 19.8128C6.76668 19.7655 6.74638 18.6934 6.73624 17.4285L6.71595 15.1288L4.38237 15.1119C2.79621 15.1017 2.02849 15.0848 1.98114 15.0577C1.94394 15.0374 1.82219 14.9766 1.71058 14.9225C1.45355 14.8007 1.12888 14.4794 1.01051 14.2325C0.810973 13.8132 0.814356 13.8673 0.814356 10.9249C0.817738 8.81118 0.827884 8.1889 0.861704 8.04347C0.980074 7.54293 1.32166 7.12018 1.78499 6.90035L2.04879 6.77522L3.87507 6.76507L5.70473 6.75493L5.7656 6.90035Z" fill="#F8EE00"/>
</svg>
