<svg width="64" height="64" viewBox="0 0 64 64" fill="none" xmlns="http://www.w3.org/2000/svg">
<g clip-path="url(#clip0_197_389)">
<circle cx="31.5" cy="35.5" r="24.5" fill="#F9F9EF"/>
<path d="M36.5941 29.8831C36.5941 29.0143 37.2985 28.31 38.1671 28.31H40.4075C41.2762 28.31 41.9806 29.0143 41.9806 29.8831C41.9806 30.7519 41.2762 31.4562 40.4075 31.4562H38.1671C37.2985 31.4562 36.5941 30.7519 36.5941 29.8831ZM38.1671 38.0497H40.4075C41.2762 38.0497 41.9806 37.3455 41.9806 36.4767C41.9806 35.6079 41.2762 34.9036 40.4075 34.9036H38.1671C37.2985 34.9036 36.5941 35.6079 36.5941 36.4767C36.5941 37.3455 37.2985 38.0497 38.1671 38.0497ZM23.592 24.7933H32.8623C33.7309 24.7933 34.4353 24.089 34.4353 23.2202C34.4353 22.3514 33.7309 21.6471 32.8623 21.6471H23.592C22.7231 21.6471 22.0189 22.3514 22.0189 23.2202C22.0189 24.089 22.7231 24.7933 23.592 24.7933ZM38.1671 24.7933H40.4075C41.2762 24.7933 41.9806 24.089 41.9806 23.2202C41.9806 22.3514 41.2762 21.6471 40.4075 21.6471H38.1671C37.2985 21.6471 36.5941 22.3514 36.5941 23.2202C36.5941 24.089 37.2985 24.7933 38.1671 24.7933ZM54.8042 9.17969V62.4268C54.8042 63.2956 54.0997 63.9998 53.2311 63.9998H10.7684C9.89958 63.9998 9.19531 63.2956 9.19531 62.4268V9.17969C9.19531 8.31088 9.89958 7.60661 10.7684 7.60661H18.8433V5.3763C18.8433 4.50749 19.5476 3.80323 20.4164 3.80323H26.4026C27.0768 1.60391 29.1267 0 31.544 0C33.9614 0 36.0112 1.60391 36.6858 3.80323H42.672C43.5406 3.80323 44.245 4.50749 44.245 5.3763V7.60661H53.2312C54.0997 7.60661 54.8042 8.31104 54.8042 9.17969ZM21.9895 11.41H41.0987V6.94938H35.3472C34.4786 6.94938 33.7742 6.24511 33.7742 5.3763C33.7742 4.14663 32.7737 3.14615 31.5439 3.14615C30.3142 3.14615 29.3139 4.14663 29.3139 5.3763C29.3139 6.24511 28.6096 6.94938 27.7408 6.94938H21.9893L21.9895 11.41ZM51.658 10.7528H44.2449V12.9829C44.2449 13.8517 43.5405 14.556 42.6718 14.556H20.4164C19.5476 14.556 18.8433 13.8517 18.8433 12.9829V10.7528H12.3415V60.8537H51.658V10.7528ZM36.2323 43.0981H45.4458V18.7198C45.4458 17.851 46.1502 17.1467 47.0188 17.1467C47.8875 17.1467 48.5919 17.851 48.5919 18.7198V44.659C48.5924 44.7295 48.5883 44.8 48.5793 44.8695C48.5793 44.8697 48.5793 44.87 48.5793 44.8701C48.5792 44.8714 48.579 44.8725 48.5789 44.8736C48.5787 44.8741 48.5787 44.8745 48.5785 44.875C48.5785 44.8759 48.5784 44.8769 48.5782 44.8777C48.5781 44.8791 48.5779 44.8805 48.5776 44.8819C48.5776 44.8821 48.5776 44.8824 48.5776 44.8827C48.5774 44.8838 48.5773 44.8849 48.5771 44.886V44.8862C48.5696 44.9403 48.5594 44.9939 48.5463 45.0468C48.5461 45.0471 48.5461 45.0474 48.546 45.0479C48.5458 45.0487 48.5457 45.0496 48.5454 45.0506C48.5452 45.0512 48.545 45.0518 48.5449 45.0526C48.5447 45.0534 48.5444 45.0542 48.5443 45.055C48.5439 45.0562 48.5436 45.0573 48.5433 45.0586C48.5433 45.0589 48.5432 45.0591 48.5432 45.0594C48.5427 45.0608 48.5424 45.062 48.5421 45.0635C48.4752 45.3225 48.3421 45.5656 48.1482 45.7657C48.1471 45.7668 48.146 45.7679 48.1449 45.769C48.1449 45.769 48.1447 45.7691 48.1447 45.7693C48.1425 45.7715 48.1404 45.7735 48.1382 45.7759C48.1379 45.7761 48.1376 45.7764 48.1373 45.7767C48.1365 45.7775 48.1357 45.7783 48.1349 45.7791C48.1346 45.7794 48.1343 45.7797 48.134 45.78C48.1329 45.7809 48.132 45.782 48.1308 45.7831L37.3443 56.57C37.343 56.5713 37.3419 56.5724 37.3408 56.5735C37.3405 56.5737 37.3403 56.574 37.34 56.5743C37.3391 56.5751 37.3381 56.576 37.3372 56.577C37.3364 56.5778 37.3356 56.5785 37.3347 56.5795C37.3344 56.5798 37.334 56.5801 37.3337 56.5804C37.3326 56.5815 37.3314 56.5826 37.3304 56.5837C37.3304 56.5837 37.3304 56.5837 37.3303 56.5837C37.1321 56.7772 36.8912 56.9105 36.634 56.9784H36.6339C36.6328 56.9787 36.6315 56.979 36.6304 56.9794C36.6295 56.9794 36.6282 56.9797 36.6273 56.9801C36.5755 56.9935 36.5231 57.0044 36.4699 57.0126C36.4699 57.0126 36.4699 57.0126 36.4698 57.0126C36.4685 57.0127 36.4671 57.0129 36.466 57.0132C36.4646 57.0132 36.4633 57.0137 36.4622 57.0137C36.4608 57.014 36.4596 57.0141 36.4583 57.0143C36.457 57.0144 36.4561 57.0144 36.4544 57.0149C36.3808 57.0253 36.3063 57.0308 36.2318 57.0308C36.2275 57.0308 36.2233 57.0308 36.219 57.0308H16.9803C16.1115 57.0308 15.4072 56.3265 15.4072 55.4577V18.7198C15.4072 17.851 16.1115 17.1467 16.9803 17.1467C17.8491 17.1467 18.5534 17.851 18.5534 18.7198V53.8848H34.6593V44.671C34.6592 43.8023 35.3636 43.0981 36.2323 43.0981ZM37.8053 51.6602L43.2213 46.2442H37.8053V51.6602ZM23.592 31.4562H32.8623C33.7309 31.4562 34.4353 30.7519 34.4353 29.8831C34.4353 29.0143 33.7309 28.31 32.8623 28.31H23.592C22.7231 28.31 22.0189 29.0143 22.0189 29.8831C22.0189 30.7519 22.7231 31.4562 23.592 31.4562ZM23.592 48.0232H24.8743V49.3056C24.8743 50.1744 25.5786 50.8787 26.4474 50.8787C27.3162 50.8787 28.0205 50.1744 28.0205 49.3056V48.0232H29.3029C30.1717 48.0232 30.8759 47.3189 30.8759 46.4501C30.8759 45.5813 30.1717 44.8771 29.3029 44.8771H28.0205V43.5945C28.0205 42.7257 27.3162 42.0214 26.4474 42.0214C25.5786 42.0214 24.8743 42.7257 24.8743 43.5945V44.8771H23.592C22.7231 44.8771 22.0189 45.5813 22.0189 46.4501C22.0189 47.3189 22.7231 48.0232 23.592 48.0232ZM23.592 38.0497H32.8623C33.7309 38.0497 34.4353 37.3455 34.4353 36.4767C34.4353 35.6079 33.7309 34.9036 32.8623 34.9036H23.592C22.7231 34.9036 22.0189 35.6079 22.0189 36.4767C22.0189 37.3455 22.7231 38.0497 23.592 38.0497Z" fill="#979797"/>
</g>
<defs>
<clipPath id="clip0_197_389">
<rect width="64" height="64" fill="white"/>
</clipPath>
</defs>
</svg>
