<svg width="34" height="34" viewBox="0 0 34 34" fill="none" xmlns="http://www.w3.org/2000/svg">
<path d="M18.668 28.6667C21.4294 28.6667 23.668 26.4282 23.668 23.6667C23.668 20.9053 21.4294 18.6667 18.668 18.6667C15.9065 18.6667 13.668 20.9053 13.668 23.6667C13.668 26.4282 15.9065 28.6667 18.668 28.6667Z" fill="#F8EE00"/>
<path d="M30.3346 22V2H3.66797V22C3.66797 22.442 3.84356 22.866 4.15612 23.1785C4.46868 23.4911 4.89261 23.6667 5.33464 23.6667H7.0013" stroke="black" stroke-width="2.3" stroke-linecap="round" stroke-linejoin="round"/>
<path d="M22.2833 27.2L27 32M23.2861 7.5H9.95273M32 2H2M23.2861 12.5H9.95273M13.6667 23.6667C13.6667 24.6556 13.9599 25.6223 14.5093 26.4445C15.0587 27.2668 15.8396 27.9076 16.7532 28.2861C17.6669 28.6645 18.6722 28.7635 19.6421 28.5706C20.612 28.3777 21.5029 27.9015 22.2022 27.2022C22.9015 26.5029 23.3777 25.612 23.5706 24.6421C23.7635 23.6722 23.6645 22.6669 23.2861 21.7532C22.9076 20.8396 22.2668 20.0587 21.4445 19.5093C20.6223 18.9599 19.6556 18.6667 18.6667 18.6667C17.3406 18.6667 16.0688 19.1935 15.1311 20.1311C14.1935 21.0688 13.6667 22.3406 13.6667 23.6667Z" stroke="black" stroke-width="2.3" stroke-linecap="round" stroke-linejoin="round"/>
</svg>
