<svg width="138" height="138" viewBox="0 0 138 138" fill="none" xmlns="http://www.w3.org/2000/svg">
<circle cx="69" cy="69" r="69" fill="#FFF5DD"/>
<path d="M66.6375 35.048C65.3625 35.6839 63.5625 36.3759 62.5125 36.6564C60.8813 37.1053 60.3 37.1614 57.6562 37.1614C54.225 37.1801 52.575 36.8434 49.65 35.5904L48 34.8797V43.8567C48 48.8876 48.0938 53.6005 48.2063 54.6291C49.2188 63.9614 53.9438 72.4895 61.2 78.1189C63.075 79.5776 64.2375 80.3257 66.9188 81.7845L69.0188 82.9253L71.6063 81.5039C82.0312 75.7624 88.5375 66.1495 89.7938 54.6291C89.9062 53.6005 90 48.8876 90 43.838V34.861L88.5563 35.5343C86.3063 36.5442 83.9062 37.1053 81.1875 37.2175C77.5125 37.3671 74.6063 36.6938 70.8375 34.8236C69.825 34.3186 68.9813 33.9072 68.9625 33.9259C68.925 33.9259 67.8938 34.4309 66.6375 35.048ZM70.725 38.0965C75.3563 40.2098 80.1 40.7522 85.1625 39.7984C85.7812 39.6861 85.9313 39.7235 86.4375 40.2285L87 40.7896V46.9425C87 53.6005 86.8313 55.6203 85.9875 58.9306C84.4688 64.8965 80.8875 70.6941 76.2563 74.6964C74.5125 76.1926 71.7 78.1189 70.0688 78.9231L68.9625 79.4467L67.4438 78.6425C61.2563 75.4071 56.1188 69.6655 53.3438 62.9141C51.4313 58.276 51 55.2837 51 46.8864V40.7896L51.5625 40.2285C52.0688 39.7235 52.2188 39.6861 52.8375 39.7984C57.9188 40.7522 62.9813 40.1537 67.4062 38.0404C68.025 37.7411 68.7188 37.4793 68.925 37.4793C69.15 37.4606 69.9563 37.7411 70.725 38.0965Z" fill="#225354"/>
<path d="M67.2793 41.5931C64.212 42.9271 60.3591 43.5941 56.4875 43.4644L54 43.3533L54.0935 49.134C54.1683 53.9883 54.2431 55.1741 54.5611 56.6563C55.8703 62.7334 58.5636 67.5322 62.9776 71.7009C64.7731 73.3684 68.3828 75.9253 69 75.9253C69.6172 75.9253 73.2269 73.3684 75.0224 71.7009C79.4364 67.5322 82.1297 62.7334 83.4389 56.6563C83.7569 55.1741 83.8317 53.9883 83.9065 49.134L84 43.3533L81.5125 43.4644C77.6409 43.5941 73.8815 42.9457 70.5898 41.5375C69.7481 41.204 69 40.9076 68.9065 40.9261C68.7943 40.9446 68.0648 41.2411 67.2793 41.5931ZM79.1746 48.5226C79.717 48.7819 80.1284 49.6157 79.9601 50.2086C79.904 50.4495 76.8928 53.5807 73.2643 57.1565C67.1297 63.2152 66.606 63.6969 66.0075 63.6969C65.4277 63.6969 65.0723 63.4004 62.1359 60.4916C59.3304 57.7124 58.9002 57.2121 58.9002 56.7119C58.9002 55.8411 59.0873 55.5261 59.7232 55.2667C60.116 55.1 60.4339 55.0814 60.7706 55.2111C61.0324 55.3038 62.3042 56.434 63.6135 57.7309L66.0075 60.084L71.9551 54.1921C76.0885 50.0974 78.015 48.3187 78.2955 48.3187C78.52 48.3187 78.9127 48.4114 79.1746 48.5226Z" fill="#FECC53"/>
<path d="M37.139 63.4734C36.461 63.945 36.0925 64.4757 36.004 65.1537C35.9451 65.5959 36.5199 67.9542 38.5392 75.4565C39.9689 80.807 41.2808 85.4794 41.4576 85.8478C41.7082 86.3637 42.5041 87.1302 45.0246 89.3116C47.1471 91.154 48.4589 92.4069 48.8126 92.9228C49.4759 93.8808 49.8149 95.119 49.8149 96.4897V97.492H55.7107H61.6064V92.5838C61.6064 88.1619 61.577 87.5429 61.3117 86.5259C60.8989 84.9193 60.3831 84.0202 59.1007 82.7526C58.1132 81.765 57.5089 81.3671 53.5734 79.0824C48.7389 76.2672 48.3409 76.1198 47.2502 76.6357C46.4101 77.0337 46.0563 77.6527 46.0563 78.714C46.0563 80.0995 46.2922 80.3206 50.1392 82.5315C54.3546 84.9487 54.3841 84.9782 54.3841 85.7005C54.3841 86.1426 54.2957 86.3342 54.0009 86.5701C53.7798 86.747 53.4703 86.8796 53.2934 86.8796C52.9397 86.8796 45.9679 82.9294 45.2014 82.2956C44.4497 81.6766 43.7422 80.2469 43.6685 79.1561C43.6243 78.6697 43.6538 78.0065 43.7422 77.7117C43.8749 77.2253 43.7128 76.4883 42.1946 70.8726C41.1923 67.0993 40.3964 64.402 40.2048 64.1514C39.5415 63.1933 38.0381 62.8691 37.139 63.4734Z" fill="#225354"/>
<path d="M97.9829 63.4439C97.6881 63.606 97.3197 63.9156 97.1575 64.1514C96.9807 64.402 96.17 67.0993 95.1677 70.8578C93.6495 76.503 93.4874 77.2105 93.6201 77.7117C93.9885 79.0382 93.3842 81.0575 92.2935 82.1188C91.6008 82.782 84.5258 86.8796 84.0689 86.8796C83.892 86.8796 83.5825 86.747 83.3614 86.5701C83.0666 86.3342 82.9782 86.1426 82.9782 85.7005C82.9782 84.9782 83.0371 84.9193 86.9578 82.6789C90.6869 80.5269 90.7311 80.5122 91.0996 79.7605C91.7039 78.596 91.247 77.1811 90.1121 76.6357C89.0066 76.1198 88.6234 76.2672 83.7152 79.1414C79.765 81.4408 79.087 81.8977 78.1879 82.8115C76.9792 84.0349 76.4486 84.9487 76.0506 86.5259C75.7853 87.5429 75.7559 88.1619 75.7559 92.5838V97.492H81.6369H87.5032L87.5769 96.1212C87.6801 94.3378 88.078 93.306 89.0656 92.2448C89.493 91.8026 91.1291 90.3286 92.7062 88.9726C94.2833 87.6166 95.6836 86.3048 95.831 86.0542C95.9784 85.8036 97.3049 81.1312 98.7641 75.6629C101.579 65.1389 101.609 65.021 100.99 64.1956C100.238 63.1786 99.0589 62.8838 97.9829 63.4439Z" fill="#225354"/>
<path d="M46.2773 99.4625V103H55.7106H65.1438V99.4625V95.9251H55.7106H46.2773V99.4625Z" fill="#225354"/>
<path d="M72.2188 99.4625V103H81.652H91.0852V99.4625V95.9251H81.652H72.2188V99.4625Z" fill="#225354"/>
</svg>
