<svg width="89" height="19" viewBox="0 0 89 19" fill="none" xmlns="http://www.w3.org/2000/svg">
<path d="M8.90065 2.80065C9.20714 1.89452 10.4887 1.89453 10.7952 2.80065L11.8291 5.85727C11.9665 6.26347 12.3475 6.53686 12.7764 6.53686H16.0338C17.0123 6.53686 17.4085 7.79691 16.6062 8.35689L14.0408 10.1473C13.6762 10.4018 13.5234 10.8665 13.6659 11.2878L14.6619 14.2325C14.9711 15.1468 13.9337 15.9254 13.1423 15.373L10.4203 13.4732C10.0764 13.2332 9.61943 13.2332 9.27561 13.4732L6.55359 15.373C5.76212 15.9254 4.72473 15.1468 5.03398 14.2325L6.03001 11.2878C6.17248 10.8666 6.01969 10.4018 5.65505 10.1473L3.0897 8.35689C2.28737 7.79691 2.68361 6.53686 3.66203 6.53686H6.91952C7.34833 6.53686 7.72941 6.26347 7.8668 5.85727L8.90065 2.80065Z" fill="#F8BC22"/>
<path d="M26.0257 2.80065C26.3321 1.89452 27.6137 1.89453 27.9202 2.80065L28.9541 5.85727C29.0915 6.26347 29.4725 6.53686 29.9014 6.53686H33.1588C34.1373 6.53686 34.5335 7.79691 33.7312 8.35689L31.1658 10.1473C30.8012 10.4018 30.6484 10.8665 30.7909 11.2878L31.7869 14.2325C32.0961 15.1468 31.0587 15.9254 30.2673 15.373L27.5453 13.4732C27.2014 13.2332 26.7444 13.2332 26.4006 13.4732L23.6786 15.373C22.8871 15.9254 21.8497 15.1468 22.159 14.2325L23.155 11.2878C23.2975 10.8666 23.1447 10.4018 22.7801 10.1473L20.2147 8.35689C19.4124 7.79691 19.8086 6.53686 20.787 6.53686H24.0445C24.4733 6.53686 24.8544 6.26347 24.9918 5.85727L26.0257 2.80065Z" fill="#F8BC22"/>
<path d="M43.1546 2.80065C43.461 1.89452 44.7426 1.89453 45.0491 2.80065L46.083 5.85727C46.2204 6.26347 46.6014 6.53686 47.0303 6.53686H50.2877C51.2662 6.53686 51.6624 7.79691 50.8601 8.35689L48.2947 10.1473C47.9301 10.4018 47.7773 10.8665 47.9198 11.2878L48.9158 14.2325C49.225 15.1468 48.1877 15.9254 47.3962 15.373L44.6742 13.4732C44.3303 13.2332 43.8733 13.2332 43.5295 13.4732L40.8075 15.373C40.016 15.9254 38.9786 15.1468 39.2879 14.2325L40.2839 11.2878C40.4264 10.8666 40.2736 10.4018 39.909 10.1473L37.3436 8.35689C36.5413 7.79691 36.9375 6.53686 37.9159 6.53686H41.1734C41.6022 6.53686 41.9833 6.26347 42.1207 5.85727L43.1546 2.80065Z" fill="#F8BC22"/>
<path d="M60.2796 2.80065C60.586 1.89452 61.8676 1.89453 62.1741 2.80065L63.208 5.85727C63.3454 6.26347 63.7264 6.53686 64.1553 6.53686H67.4127C68.3912 6.53686 68.7874 7.79691 67.9851 8.35689L65.4197 10.1473C65.0551 10.4018 64.9023 10.8665 65.0448 11.2878L66.0408 14.2325C66.35 15.1468 65.3127 15.9254 64.5212 15.373L61.7992 13.4732C61.4553 13.2332 60.9983 13.2332 60.6545 13.4732L57.9325 15.373C57.141 15.9254 56.1036 15.1468 56.4129 14.2325L57.4089 11.2878C57.5514 10.8666 57.3986 10.4018 57.034 10.1473L54.4686 8.35689C53.6663 7.79691 54.0625 6.53686 55.0409 6.53686H58.2984C58.7272 6.53686 59.1083 6.26347 59.2457 5.85727L60.2796 2.80065Z" fill="#F8BC22"/>
<path d="M77.4085 2.80065C77.715 1.89452 78.9965 1.89453 79.303 2.80065L80.3369 5.85727C80.4743 6.26347 80.8554 6.53686 81.2842 6.53686H84.5416C85.5201 6.53686 85.9163 7.79691 85.114 8.35689L82.5486 10.1473C82.184 10.4018 82.0312 10.8665 82.1737 11.2878L83.1697 14.2325C83.4789 15.1468 82.4416 15.9254 81.6501 15.373L78.9281 13.4732C78.5843 13.2332 78.1272 13.2332 77.7834 13.4732L75.0614 15.373C74.2699 15.9254 73.2325 15.1468 73.5418 14.2325L74.5378 11.2878C74.6803 10.8666 74.5275 10.4018 74.1629 10.1473L71.5975 8.35689C70.7952 7.79691 71.1914 6.53686 72.1698 6.53686H75.4273C75.8561 6.53686 76.2372 6.26347 76.3746 5.85727L77.4085 2.80065Z" fill="#F8BC22"/>
</svg>
