<svg width="43" height="44" viewBox="0 0 43 44" fill="none" xmlns="http://www.w3.org/2000/svg">
<circle cx="21.4777" cy="22.3886" r="21.4777" fill="#F8EE00"/>
<path d="M29.227 25.8333V30.615C29.227 31.1519 28.7927 31.5862 28.2558 31.5862H14.6157C14.0788 31.5862 13.6445 31.1519 13.6445 30.615V25.8311C14.081 26.189 14.655 26.4029 15.2748 26.4029C16.1063 26.4029 16.8461 26.0144 17.3263 25.4099C17.8064 26.0144 18.5462 26.4029 19.3777 26.4029C20.2092 26.4029 20.9491 26.0144 21.4292 25.4099C21.9093 26.0144 22.6492 26.4029 23.4807 26.4029C24.3122 26.4029 25.0542 26.0144 25.5322 25.4099C26.0123 26.0144 26.7565 26.4029 27.588 26.4029C28.2056 26.4051 28.7687 26.1912 29.227 25.8333Z" fill="#072F32"/>
<path d="M28.9042 25.8326C28.9042 26.6336 28.9042 27.4345 28.9042 28.2355C28.9042 28.7876 28.9042 29.3376 28.9042 29.8897C28.9042 30.1407 28.9129 30.3961 28.9042 30.647C28.9042 30.6558 28.8933 30.754 28.9042 30.6776C28.902 30.6972 28.8977 30.7169 28.8933 30.7343C28.8824 30.7823 28.8693 30.8282 28.8518 30.8718C28.8737 30.8085 28.8235 30.9264 28.8104 30.946C28.7973 30.9657 28.7842 30.9853 28.7711 31.005C28.758 31.0246 28.7602 31.0202 28.7798 30.994C28.7689 31.0093 28.7558 31.0224 28.7427 31.0377C28.71 31.0726 28.6772 31.1053 28.6401 31.1337C28.686 31.0944 28.6489 31.1272 28.6379 31.1337C28.6139 31.149 28.5899 31.1643 28.5659 31.1774C28.5485 31.1861 28.5332 31.1948 28.5157 31.2036C28.4393 31.245 28.5725 31.1905 28.4874 31.2145C28.435 31.2297 28.3848 31.245 28.3324 31.2537C28.28 31.2625 28.4088 31.2537 28.3171 31.2537C28.3717 31.2537 28.2015 31.2559 28.256 31.2559C28.256 31.2559 28.256 31.2559 28.2538 31.2559C28.2495 31.2559 28.2473 31.2559 28.2429 31.2559C28.2255 31.2559 28.2102 31.2559 28.1927 31.2559C28.0116 31.2559 27.8326 31.2559 27.6515 31.2559C26.8549 31.2559 26.0583 31.2559 25.2596 31.2559C24.1291 31.2559 22.9986 31.2559 21.8703 31.2559C20.7049 31.2559 19.5373 31.2559 18.3719 31.2559C17.4662 31.2559 16.5626 31.2559 15.6569 31.2559C15.395 31.2559 15.1331 31.2559 14.8713 31.2559C14.8036 31.2559 14.7359 31.2559 14.6705 31.2559C14.6552 31.2559 14.6399 31.2559 14.6246 31.2559C14.6225 31.2559 14.6181 31.2559 14.6159 31.2559C14.6159 31.2559 14.6159 31.2559 14.6137 31.2559C14.5832 31.2559 14.5548 31.2537 14.5243 31.2516C14.5832 31.2559 14.5177 31.2494 14.4959 31.245C14.4479 31.2341 14.402 31.221 14.3584 31.2036C14.4195 31.2254 14.3606 31.2036 14.3453 31.197C14.3257 31.1861 14.3038 31.1752 14.2842 31.1621C14.2689 31.1534 14.2536 31.1424 14.2362 31.1315C14.162 31.0857 14.2755 31.173 14.2122 31.1141C14.1707 31.0748 14.1314 31.0377 14.0943 30.994C14.1358 31.0464 14.0681 30.9504 14.0572 30.9329C14.0463 30.9133 14.0354 30.8915 14.0245 30.8696C13.983 30.7911 14.0354 30.9067 14.0179 30.8565C14.0027 30.8107 13.9896 30.7649 13.9786 30.7169C13.9743 30.6994 13.9721 30.6361 13.9743 30.7016C13.9721 30.671 13.9699 30.6427 13.9699 30.6121C13.9699 30.5423 13.9699 30.4724 13.9699 30.4026C13.9699 29.9639 13.9699 29.5231 13.9699 29.0844C13.9699 28.0631 13.9699 27.0417 13.9699 26.0203C13.9699 25.9548 13.9699 25.8894 13.9699 25.8261C13.7844 25.9025 13.5967 25.981 13.4112 26.0574C14.0441 26.5703 14.8516 26.806 15.6613 26.6969C16.3989 26.5986 17.0864 26.2189 17.5534 25.6362C17.3985 25.6362 17.2457 25.6362 17.0908 25.6362C17.9725 26.734 19.57 27.0351 20.7987 26.3586C21.1261 26.1774 21.4229 25.9286 21.6564 25.6384C21.5014 25.6384 21.3487 25.6384 21.1937 25.6384C22.0754 26.7361 23.6729 27.0351 24.9038 26.3608C25.2312 26.1796 25.528 25.9308 25.7615 25.6406C25.6066 25.6406 25.4538 25.6406 25.2989 25.6406C25.755 26.208 26.4315 26.5943 27.1539 26.6947C27.9461 26.806 28.7536 26.603 29.3909 26.112C29.5306 26.005 29.6048 25.8304 29.5087 25.6646C29.428 25.5271 29.201 25.4376 29.0613 25.5467C28.9238 25.6537 28.7776 25.7475 28.6227 25.8283C28.5921 25.8435 28.5594 25.8588 28.5288 25.8741C28.507 25.8828 28.4874 25.8937 28.4655 25.9025C28.4895 25.8915 28.483 25.8937 28.4459 25.909C28.3695 25.9374 28.2909 25.9636 28.2124 25.9876C28.0247 26.0399 27.9068 26.0596 27.7344 26.0705C27.6515 26.0749 27.5664 26.0749 27.4813 26.0727C27.4464 26.0705 27.4114 26.0683 27.3765 26.0661C27.3656 26.0661 27.239 26.0509 27.2936 26.0596C27.1386 26.0378 26.9837 26.0007 26.8353 25.9505C26.7938 25.9374 26.7523 25.9199 26.7109 25.9046C26.6738 25.8894 26.6694 25.8872 26.6978 25.9003C26.6825 25.8937 26.6672 25.8872 26.6519 25.8806C26.5777 25.8457 26.5035 25.8086 26.4337 25.7671C26.1762 25.6166 25.971 25.4398 25.7637 25.1801C25.6611 25.0513 25.4036 25.0535 25.301 25.1801C25.2116 25.2892 25.1177 25.394 25.013 25.49C24.9715 25.5271 24.8907 25.5947 24.8711 25.61C24.8471 25.6275 24.7554 25.6908 24.7031 25.7235C24.6419 25.7606 24.5808 25.7955 24.5175 25.8283C24.4892 25.8435 24.4586 25.8588 24.4281 25.8719C24.4128 25.8785 24.3975 25.885 24.3822 25.8915C24.332 25.9134 24.4215 25.8763 24.3691 25.8981C24.2295 25.9548 24.0854 25.9985 23.9392 26.029C23.9065 26.0356 23.8737 26.0421 23.8388 26.0487C23.8214 26.0509 23.8061 26.0552 23.7886 26.0574C23.7319 26.0661 23.8301 26.053 23.7733 26.0596C23.6991 26.0683 23.6249 26.0727 23.5486 26.0749C23.4722 26.0771 23.398 26.0749 23.3216 26.0705C23.2867 26.0683 23.2517 26.0661 23.219 26.0618C23.2125 26.0618 23.1426 26.053 23.1775 26.0574C23.2037 26.0618 23.1426 26.0509 23.1361 26.0509C22.992 26.0269 22.8502 25.9919 22.7127 25.9439C22.5752 25.8959 22.5032 25.8654 22.3548 25.7802C22.2827 25.741 22.2151 25.6951 22.1474 25.6493C22.1343 25.6406 22.0601 25.586 22.0951 25.6122C22.0645 25.5882 22.0361 25.5642 22.0078 25.5402C21.879 25.4311 21.7633 25.3088 21.6586 25.1779C21.556 25.0491 21.2985 25.0513 21.1959 25.1779C21.1064 25.287 21.0126 25.3918 20.9078 25.4878C20.8664 25.5249 20.7856 25.5947 20.766 25.6078C20.742 25.6253 20.6503 25.6886 20.5979 25.7213C20.5368 25.7584 20.4757 25.7933 20.4124 25.8261C20.384 25.8413 20.3535 25.8566 20.3229 25.8697C20.3077 25.8763 20.2924 25.8828 20.2771 25.8894C20.2269 25.9112 20.3164 25.8741 20.264 25.8959C20.1243 25.9527 19.9803 25.9963 19.8341 26.0269C19.8013 26.0334 19.7686 26.0399 19.7337 26.0465C19.7162 26.0487 19.7009 26.053 19.6835 26.0552C19.6267 26.064 19.725 26.0509 19.6682 26.0574C19.594 26.0661 19.5198 26.0705 19.4434 26.0727C19.367 26.0749 19.2928 26.0727 19.2165 26.0683C19.1815 26.0661 19.1466 26.064 19.1139 26.0596C19.1073 26.0596 19.0375 26.0509 19.0724 26.0552C19.0986 26.0596 19.0375 26.0487 19.0309 26.0487C18.8869 26.0247 18.745 25.9898 18.6076 25.9417C18.4701 25.8937 18.4002 25.8632 18.2496 25.7781C18.1776 25.7388 18.11 25.6929 18.0423 25.6471C18.0292 25.6384 17.955 25.5838 17.9899 25.61C17.9594 25.586 17.931 25.562 17.9026 25.538C17.7739 25.4289 17.6582 25.3067 17.5534 25.1757C17.4509 25.0469 17.1934 25.0491 17.0908 25.1757C16.8834 25.4354 16.6827 25.61 16.423 25.7628C16.3575 25.8021 16.2898 25.837 16.22 25.8697C16.2004 25.8784 16.1807 25.8872 16.1611 25.8981C16.1894 25.8872 16.1851 25.8894 16.148 25.9025C16.1174 25.9134 16.0869 25.9265 16.0541 25.9374C15.9014 25.9919 15.742 26.0312 15.5827 26.0552C15.3274 26.0945 14.9629 26.0727 14.6792 25.9963C14.6006 25.9745 14.5221 25.9505 14.4435 25.9221C14.4217 25.9134 14.3999 25.9046 14.378 25.8959C14.402 25.9068 14.3955 25.9046 14.3606 25.8872C14.33 25.8719 14.2973 25.8588 14.2667 25.8413C14.1947 25.8042 14.1249 25.765 14.0572 25.7235C14.0179 25.6995 13.9808 25.6733 13.9437 25.6471C13.9263 25.634 13.9066 25.6209 13.8892 25.6078C13.911 25.6253 13.9066 25.6209 13.8761 25.5969C13.7713 25.5118 13.6491 25.4725 13.5182 25.5293C13.4003 25.5816 13.3174 25.6951 13.3174 25.8283C13.3174 26.651 13.3174 27.4738 13.3174 28.2966C13.3174 28.8422 13.3174 29.3878 13.3174 29.9334C13.3174 30.2346 13.2912 30.551 13.3414 30.8478C13.4483 31.4873 14.0332 31.9107 14.6596 31.9107C14.8298 31.9107 15 31.9107 15.1702 31.9107C15.9668 31.9107 16.7656 31.9107 17.5622 31.9107C18.7079 31.9107 19.8537 31.9107 20.9973 31.9107C22.1758 31.9107 23.3565 31.9107 24.535 31.9107C25.4451 31.9107 26.3551 31.9107 27.2652 31.9107C27.5206 31.9107 27.7759 31.9107 28.0312 31.9107C28.2538 31.9107 28.4721 31.915 28.686 31.8365C29.1486 31.664 29.4738 31.2668 29.5393 30.7758C29.5546 30.6645 29.5524 30.5554 29.5524 30.4441C29.5524 30.012 29.5524 29.5798 29.5524 29.1477C29.5524 28.1111 29.5524 27.0722 29.5524 26.0356C29.5524 25.9679 29.5524 25.9003 29.5524 25.8304C29.5524 25.6602 29.4018 25.4943 29.225 25.5031C29.0526 25.514 28.9042 25.6493 28.9042 25.8326Z" fill="#072F32"/>
<path d="M29.5525 24.2095C29.5525 24.3252 29.5438 24.4387 29.5307 24.5543C29.5394 24.4954 29.546 24.4387 29.5547 24.3797C29.522 24.6133 29.4609 24.838 29.3714 25.0541C29.3932 25.0017 29.415 24.9493 29.4369 24.897C29.3714 25.0476 29.295 25.1916 29.2055 25.3269C29.1815 25.364 29.1553 25.3989 29.1313 25.4338C29.0658 25.5255 29.2339 25.3116 29.1531 25.4033C29.1008 25.4644 29.0484 25.5255 28.9895 25.5844C28.9327 25.6412 28.8738 25.6979 28.8105 25.7481C28.7712 25.7809 28.6817 25.831 28.8389 25.7285C28.7996 25.7525 28.7647 25.783 28.7276 25.8092C28.5835 25.9074 28.4308 25.9882 28.2714 26.0558C28.3238 26.034 28.3762 26.0122 28.4286 25.9904C28.2212 26.0755 28.0052 26.1344 27.7826 26.1671C27.8415 26.1584 27.8982 26.1519 27.9572 26.1431C27.7215 26.1737 27.4836 26.1759 27.2479 26.1453C27.3068 26.154 27.3636 26.1606 27.4225 26.1693C27.189 26.1366 26.962 26.0755 26.7437 25.9838C26.7961 26.0056 26.8485 26.0275 26.9009 26.0493C26.8005 26.0056 26.7023 25.9576 26.6063 25.9009C26.5648 25.8769 26.5211 25.8507 26.4819 25.8223C26.46 25.807 26.436 25.7918 26.4142 25.7765C26.3924 25.7612 26.3094 25.6979 26.4011 25.7699C26.495 25.8441 26.4055 25.7721 26.3902 25.7612C26.3727 25.7481 26.3575 25.7328 26.34 25.7197C26.2985 25.6848 26.2593 25.6477 26.22 25.6084C26.1414 25.5321 26.0694 25.4513 26.0017 25.3662C25.9079 25.2483 25.6853 25.1676 25.5391 25.1741C25.3776 25.1807 25.1833 25.2331 25.0764 25.3662C25.0087 25.4513 24.9367 25.5321 24.8581 25.6084C24.8232 25.6434 24.7883 25.6761 24.7512 25.7088C24.7316 25.7263 24.7097 25.7437 24.6901 25.7612C24.6705 25.7787 24.5875 25.842 24.6792 25.7699C24.773 25.6957 24.6835 25.7656 24.6661 25.7765C24.6486 25.7896 24.6312 25.8005 24.6115 25.8136C24.5657 25.8441 24.5199 25.8725 24.4719 25.9009C24.378 25.9554 24.2776 26.0056 24.1772 26.0493C24.2296 26.0275 24.282 26.0056 24.3344 25.9838C24.1161 26.0755 23.8913 26.1366 23.6556 26.1693C23.7146 26.1606 23.7713 26.154 23.8302 26.1453C23.6011 26.1737 23.3697 26.1737 23.1384 26.1453C23.1973 26.154 23.2541 26.1606 23.313 26.1693C23.0795 26.1366 22.8525 26.0755 22.6343 25.9838C22.6866 26.0056 22.739 26.0275 22.7914 26.0493C22.691 26.0056 22.5928 25.9576 22.4968 25.9009C22.4553 25.8769 22.4116 25.8507 22.3724 25.8223C22.3505 25.807 22.3265 25.7918 22.3047 25.7765C22.2829 25.7612 22.2 25.6979 22.2916 25.7699C22.3855 25.8441 22.296 25.7721 22.2807 25.7612C22.2632 25.7481 22.248 25.7328 22.2305 25.7197C22.189 25.6848 22.1498 25.6477 22.1105 25.6084C22.0319 25.5321 21.9599 25.4513 21.8922 25.3662C21.7984 25.2483 21.5758 25.1676 21.4296 25.1741C21.2681 25.1807 21.0738 25.2331 20.9669 25.3662C20.8992 25.4513 20.8272 25.5321 20.7486 25.6084C20.7137 25.6434 20.6788 25.6761 20.6417 25.7088C20.6221 25.7263 20.6002 25.7437 20.5806 25.7612C20.561 25.7787 20.478 25.842 20.5697 25.7699C20.6635 25.6957 20.5741 25.7656 20.5566 25.7765C20.5391 25.7896 20.5217 25.8005 20.502 25.8136C20.4562 25.8441 20.4104 25.8725 20.3624 25.9009C20.2685 25.9554 20.1681 26.0056 20.0677 26.0493C20.1201 26.0275 20.1725 26.0056 20.2249 25.9838C20.0066 26.0755 19.7818 26.1366 19.5461 26.1693C19.6051 26.1606 19.6618 26.154 19.7207 26.1453C19.4916 26.1737 19.2602 26.1737 19.0289 26.1453C19.0878 26.154 19.1446 26.1606 19.2035 26.1693C18.97 26.1366 18.743 26.0755 18.5248 25.9838C18.5771 26.0056 18.6295 26.0275 18.6819 26.0493C18.5815 26.0056 18.4833 25.9576 18.3873 25.9009C18.3458 25.8769 18.3022 25.8507 18.2629 25.8223C18.241 25.807 18.217 25.7918 18.1952 25.7765C18.1734 25.7612 18.0905 25.6979 18.1821 25.7699C18.276 25.8441 18.1865 25.7721 18.1712 25.7612C18.1538 25.7481 18.1385 25.7328 18.121 25.7197C18.0795 25.6848 18.0403 25.6477 18.001 25.6084C17.9224 25.5321 17.8504 25.4513 17.7827 25.3662C17.6889 25.2483 17.4663 25.1676 17.3201 25.1741C17.1586 25.1807 16.9643 25.2331 16.8574 25.3662C16.7897 25.4513 16.7177 25.5321 16.6392 25.6084C16.6042 25.6434 16.5693 25.6761 16.5322 25.7088C16.5126 25.7263 16.4907 25.7437 16.4711 25.7612C16.4515 25.7787 16.3685 25.842 16.4602 25.7699C16.554 25.6957 16.4646 25.7656 16.4471 25.7765C16.4296 25.7896 16.4122 25.8005 16.3925 25.8136C16.3467 25.8441 16.3009 25.8725 16.2529 25.9009C16.159 25.9554 16.0586 26.0056 15.9582 26.0493C16.0106 26.0275 16.063 26.0056 16.1154 25.9838C15.8971 26.0755 15.6702 26.1366 15.4366 26.1693C15.4956 26.1606 15.5523 26.154 15.6112 26.1453C15.3755 26.1759 15.1376 26.1737 14.9019 26.1431C14.9609 26.1519 15.0176 26.1584 15.0765 26.1671C14.8539 26.1344 14.6379 26.0755 14.4305 25.9904C14.4829 26.0122 14.5353 26.034 14.5877 26.0558C14.4284 25.9882 14.2756 25.9052 14.1316 25.8092C14.0945 25.783 14.053 25.759 14.0203 25.7285C14.0464 25.7481 14.0726 25.7678 14.0988 25.7896C14.0814 25.7765 14.0661 25.7634 14.0486 25.7481C13.9875 25.6957 13.9264 25.6412 13.8697 25.5823C13.8129 25.5233 13.7605 25.4622 13.706 25.4011C13.6252 25.3073 13.7998 25.5321 13.7278 25.4317C13.7038 25.3967 13.6776 25.3618 13.6536 25.3247C13.5619 25.1894 13.4856 25.0432 13.4223 24.8926C13.4441 24.945 13.4659 24.9974 13.4877 25.0497C13.3983 24.8337 13.3372 24.6067 13.3044 24.3754C13.3131 24.4343 13.3197 24.491 13.3284 24.55C13.3001 24.3143 13.3001 24.0786 13.3306 23.8429C13.3219 23.9018 13.3153 23.9585 13.3066 24.0175C13.3393 23.7927 13.3983 23.5766 13.4856 23.3671C13.4637 23.4195 13.4419 23.4719 13.4201 23.5242C13.4834 23.3736 13.5598 23.2296 13.6514 23.0943C13.6754 23.0594 13.6994 23.0245 13.7256 22.9895C13.7998 22.8848 13.6274 23.1074 13.7103 23.0092C13.7649 22.9437 13.8217 22.8804 13.8828 22.8193C13.9395 22.7626 14.0006 22.708 14.0617 22.6556C14.0683 22.6513 14.0988 22.6185 14.1054 22.6207C14.1054 22.6207 13.9679 22.7233 14.0399 22.6709C14.0748 22.6469 14.1097 22.6207 14.1446 22.5967C14.2843 22.5029 14.4327 22.4243 14.5877 22.3588C14.5353 22.3806 14.4829 22.4025 14.4305 22.4243C14.6401 22.337 14.8561 22.2781 15.0809 22.2453C15.022 22.2541 14.9652 22.2606 14.9063 22.2693C15.1398 22.2388 15.3777 22.2453 15.6134 22.2453C15.9211 22.2453 16.2289 22.2453 16.5388 22.2453C17.5296 22.2453 18.5226 22.2475 19.5134 22.2475C21.6805 22.2497 23.8477 22.2519 26.017 22.2519C26.3946 22.2519 26.7743 22.2519 27.1519 22.2519C27.4159 22.2519 27.6844 22.2432 27.9484 22.2759C27.8895 22.2672 27.8328 22.2606 27.7738 22.2519C27.9986 22.2846 28.2147 22.3435 28.4242 22.4287C28.3718 22.4068 28.3195 22.385 28.2671 22.3632C28.4177 22.4265 28.5617 22.5029 28.697 22.5923C28.7319 22.6163 28.7668 22.6404 28.8018 22.6665C28.9065 22.7407 28.6839 22.5683 28.7821 22.6513C28.8476 22.7058 28.9109 22.7626 28.972 22.8237C29.0287 22.8804 29.0833 22.9393 29.1357 23.0026C29.14 23.007 29.1728 23.0419 29.1706 23.0463C29.1706 23.0463 29.068 22.9088 29.1204 22.9808C29.1444 23.0157 29.1706 23.0506 29.1946 23.0856C29.2884 23.2252 29.367 23.3736 29.4325 23.5264C29.4107 23.474 29.3888 23.4217 29.367 23.3693C29.4543 23.5788 29.5132 23.7949 29.546 24.0175C29.5372 23.9585 29.5307 23.9018 29.522 23.8429C29.5438 23.9673 29.5525 24.0873 29.5525 24.2095C29.5547 24.5521 29.8515 24.8795 30.2072 24.8642C30.5608 24.849 30.8642 24.5762 30.862 24.2095C30.8598 23.677 30.7288 23.1576 30.4844 22.684C30.2531 22.2322 29.9061 21.8634 29.5023 21.5601C29.1379 21.2873 28.6926 21.0908 28.2431 21.0079C27.9266 20.949 27.6145 20.9402 27.2937 20.9402C25.2903 20.9381 23.2868 20.9381 21.2833 20.9359C19.3432 20.9337 17.403 20.9315 15.465 20.9315C15.1115 20.9315 14.7601 20.9533 14.4175 21.045C13.9199 21.1781 13.4703 21.4357 13.084 21.7739C12.342 22.4243 11.9208 23.4631 12.0124 24.4474C12.0648 25.0126 12.235 25.5713 12.5646 26.0384C12.8898 26.501 13.3197 26.9004 13.8369 27.1427C14.3869 27.4002 14.9958 27.529 15.6025 27.4569C16.1765 27.3871 16.7264 27.2016 17.1935 26.8502C17.4139 26.6844 17.6169 26.5076 17.7893 26.2915C17.4816 26.2915 17.1717 26.2915 16.8639 26.2915C17.3092 26.8459 17.977 27.2562 18.6753 27.398C19.4567 27.5595 20.2685 27.4482 20.9691 27.0641C21.3204 26.8721 21.6434 26.6036 21.8944 26.2915C21.5867 26.2915 21.2768 26.2915 20.9691 26.2915C21.4143 26.8459 22.0821 27.2562 22.7805 27.398C23.5618 27.5595 24.3736 27.4482 25.0742 27.0641C25.4256 26.8721 25.7486 26.6036 25.9995 26.2915C25.6918 26.2915 25.3819 26.2915 25.0742 26.2915C25.7071 27.0794 26.7481 27.5355 27.7542 27.4722C28.8411 27.4046 29.8406 26.8175 30.4037 25.8769C30.7027 25.3749 30.8576 24.79 30.862 24.2073C30.8642 23.8647 30.5586 23.5373 30.2072 23.5526C29.8515 23.5701 29.5547 23.8429 29.5525 24.2095Z" fill="#072F32"/>
<path d="M22.8788 17.5334V21.1736C21.9186 21.1736 20.9365 21.1714 19.998 21.1714V17.5334C19.998 17.2671 20.2119 17.0532 20.4782 17.0532H22.3987C22.6628 17.0532 22.8788 17.2671 22.8788 17.5334Z" fill="#072F32"/>
<path d="M22.5507 17.5335C22.5507 18.5985 22.5507 19.6613 22.5507 20.7263C22.5507 20.8747 22.5507 21.0253 22.5507 21.1737C22.6598 21.0646 22.769 20.9555 22.8781 20.8464C21.9178 20.8464 20.9575 20.8442 19.9973 20.8442C20.1064 20.9533 20.2155 21.0624 20.3246 21.1716C20.3246 20.2877 20.3246 19.406 20.3246 18.5221C20.3246 18.1947 20.3377 17.863 20.3246 17.5356C20.3246 17.5116 20.3312 17.4789 20.3203 17.5313C20.3246 17.5116 20.329 17.4942 20.3356 17.4745C20.3203 17.5378 20.3421 17.4636 20.3508 17.4484C20.3574 17.4331 20.3879 17.4047 20.3508 17.4462C20.3508 17.4462 20.4163 17.3851 20.3792 17.4134C20.3421 17.4418 20.4185 17.3916 20.4163 17.3916C20.449 17.3741 20.4512 17.3741 20.4185 17.3916C20.4272 17.3894 20.4381 17.3872 20.4469 17.3829C20.4556 17.3807 20.4665 17.3785 20.4752 17.3763C20.4381 17.3807 20.4381 17.3829 20.4774 17.3807C20.4774 17.3807 20.4774 17.3807 20.4796 17.3807C20.484 17.3807 20.4883 17.3807 20.4949 17.3807C20.5211 17.3807 20.5494 17.3807 20.5756 17.3807C20.8135 17.3807 21.0492 17.3807 21.2871 17.3807C21.5883 17.3807 21.8894 17.3807 22.1906 17.3807C22.2583 17.3807 22.3259 17.3829 22.3958 17.3807C22.4132 17.3807 22.4612 17.3894 22.4023 17.3763C22.411 17.3785 22.5027 17.4069 22.435 17.3785C22.4612 17.3894 22.4852 17.4047 22.5092 17.42C22.4569 17.3829 22.5092 17.42 22.518 17.4331C22.5333 17.4505 22.5311 17.4462 22.5114 17.4222C22.5223 17.4374 22.5333 17.4549 22.542 17.4702C22.5529 17.4876 22.5551 17.5226 22.542 17.4724C22.5485 17.492 22.5529 17.5095 22.5573 17.5291C22.5485 17.492 22.5485 17.492 22.5507 17.5335C22.5551 17.7037 22.6969 17.8696 22.8781 17.8608C23.0505 17.8521 23.212 17.7168 23.2054 17.5335C23.1902 17.0599 22.8192 16.726 22.3543 16.726C22.1251 16.726 21.896 16.726 21.6668 16.726C21.37 16.726 21.0754 16.726 20.7786 16.726C20.5342 16.726 20.2832 16.7063 20.0628 16.8416C19.7856 17.0119 19.6699 17.2999 19.6699 17.612C19.6699 17.7932 19.6699 17.9743 19.6699 18.1555C19.6699 18.7513 19.6699 19.3449 19.6699 19.9407C19.6699 20.351 19.6699 20.7613 19.6699 21.1716C19.6699 21.3483 19.8205 21.4989 19.9973 21.4989C20.9575 21.4989 21.9178 21.5011 22.8781 21.5011C23.0549 21.5011 23.2054 21.3505 23.2054 21.1737C23.2054 20.1087 23.2054 19.0459 23.2054 17.9809C23.2054 17.8325 23.2054 17.6819 23.2054 17.5335C23.2054 17.3632 23.0549 17.1974 22.8781 17.2061C22.6991 17.2126 22.5507 17.348 22.5507 17.5335Z" fill="#072F32"/>
<path d="M23.0953 14.0085C23.0953 14.936 22.3424 15.6889 21.4148 15.6889C20.4873 15.6889 19.7344 14.936 19.7344 14.0085C19.7344 13.081 21.4148 11.2368 21.4148 11.2368C21.4148 11.2368 23.0953 13.0788 23.0953 14.0085Z" fill="#072F32"/>
<path d="M22.7665 14.0088C22.7665 14.0503 22.7644 14.0896 22.7622 14.131C22.76 14.1485 22.7447 14.2598 22.7556 14.1922C22.7404 14.2795 22.7207 14.3646 22.6923 14.4475C22.6814 14.4802 22.6705 14.5108 22.6574 14.5435C22.64 14.5915 22.6792 14.4999 22.6574 14.5457C22.6487 14.5632 22.6421 14.5806 22.6334 14.5981C22.5963 14.6701 22.5548 14.7399 22.509 14.8054C22.4981 14.8207 22.4872 14.836 22.4763 14.8512C22.5134 14.8032 22.4828 14.8425 22.4741 14.8512C22.4501 14.8796 22.4239 14.908 22.3977 14.9364C22.3715 14.9647 22.3453 14.9909 22.317 15.0149C22.3039 15.028 22.2886 15.0411 22.2755 15.052C22.269 15.0564 22.1969 15.1131 22.2537 15.0717C22.1969 15.1153 22.138 15.1524 22.0747 15.1895C22.042 15.2092 22.0071 15.2244 21.9743 15.2419C21.9656 15.2463 21.911 15.2703 21.9481 15.255C21.9874 15.2375 21.9154 15.2681 21.9067 15.2703C21.8347 15.2965 21.7583 15.3183 21.6841 15.3357C21.6688 15.3401 21.5553 15.3576 21.6251 15.3488C21.5749 15.3554 21.5247 15.3597 21.4746 15.3619C21.3938 15.3641 21.3131 15.3619 21.2323 15.3532C21.2192 15.351 21.169 15.3423 21.2301 15.3532C21.2148 15.351 21.2017 15.3488 21.1865 15.3445C21.1428 15.3357 21.0992 15.327 21.0577 15.3139C21.0206 15.303 20.9835 15.2921 20.9464 15.279C20.9311 15.2746 20.8286 15.231 20.8897 15.2594C20.8111 15.2244 20.7369 15.183 20.6649 15.1371C20.6321 15.1175 20.6016 15.0957 20.571 15.0717C20.6234 15.111 20.5383 15.0433 20.5274 15.0324C20.4706 14.9822 20.4183 14.9276 20.3681 14.8709C20.355 14.8556 20.3441 14.8425 20.331 14.8272C20.3681 14.8731 20.3375 14.836 20.331 14.8251C20.3091 14.7945 20.2873 14.7639 20.2677 14.7312C20.248 14.6985 20.2284 14.6657 20.2109 14.633C20.2022 14.6155 20.1935 14.5981 20.1847 14.5828C20.1826 14.5763 20.1433 14.489 20.1716 14.5566C20.1411 14.4846 20.1193 14.4104 20.0996 14.3362C20.0909 14.2991 20.0822 14.2598 20.0756 14.2205C20.0734 14.2074 20.0647 14.1572 20.0734 14.2205C20.0691 14.1965 20.0669 14.1703 20.0669 14.1463C20.0625 14.0852 20.0603 14.0219 20.0625 13.9608C20.0625 13.9499 20.0647 13.939 20.0647 13.9281C20.0669 13.8713 20.0625 13.9652 20.0603 13.963C20.0538 13.9586 20.0756 13.8823 20.0778 13.8735C20.1018 13.7622 20.1433 13.6596 20.1826 13.5549C20.1978 13.5134 20.1564 13.6116 20.176 13.5723C20.1826 13.5593 20.1891 13.544 20.1935 13.5309C20.2066 13.5025 20.2197 13.4763 20.2328 13.4479C20.2633 13.3868 20.2939 13.3279 20.3266 13.269C20.3921 13.149 20.4641 13.0311 20.5361 12.9154C20.6845 12.6841 20.8438 12.4593 21.0119 12.2389C21.0206 12.2258 21.0315 12.2149 21.0403 12.2018C21.0643 12.1691 21.001 12.252 21.0381 12.204C21.0621 12.1734 21.0839 12.145 21.1079 12.1145C21.1472 12.0643 21.1887 12.0141 21.2279 11.9639C21.2978 11.8766 21.3698 11.7915 21.4418 11.7064C21.5095 11.6278 21.5771 11.5492 21.647 11.4729C21.492 11.4729 21.3392 11.4729 21.1843 11.4729C21.3763 11.6846 21.5597 11.9072 21.7364 12.132C21.7561 12.156 21.7735 12.18 21.7932 12.204C21.8041 12.2171 21.8303 12.252 21.7845 12.1931C21.7932 12.2062 21.8041 12.2171 21.8128 12.2302C21.8543 12.2847 21.8958 12.3393 21.9372 12.396C22.0202 12.5073 22.0987 12.6208 22.1773 12.7365C22.3301 12.9635 22.4741 13.1948 22.5941 13.4414C22.6072 13.4698 22.6203 13.496 22.6334 13.5243C22.64 13.5374 22.6465 13.5527 22.6531 13.5658C22.6858 13.6356 22.6269 13.4981 22.6552 13.5702C22.6771 13.6291 22.7011 13.688 22.7185 13.7469C22.736 13.8015 22.7513 13.8582 22.7622 13.915C22.7644 13.9259 22.7665 13.939 22.7687 13.9499C22.7818 14.0132 22.7644 13.8692 22.7665 13.9324C22.7622 13.9521 22.7665 13.9805 22.7665 14.0088C22.7687 14.1791 22.9149 14.3449 23.0939 14.3362C23.2707 14.3275 23.4235 14.1922 23.4213 14.0088C23.4147 13.4763 23.1048 12.9591 22.8233 12.527C22.533 12.0796 22.2035 11.6584 21.8587 11.2524C21.7888 11.1695 21.7168 11.0866 21.6448 11.0058C21.5291 10.8792 21.2978 10.8792 21.1821 11.0058C20.9595 11.2524 20.7478 11.51 20.5448 11.7719C20.1607 12.2673 19.7919 12.7845 19.5518 13.3672C19.4493 13.6204 19.386 13.8844 19.4122 14.1594C19.4493 14.5697 19.5977 14.9451 19.853 15.2681C20.3419 15.8857 21.1865 16.152 21.9416 15.9446C22.8102 15.7089 23.4125 14.9014 23.4213 14.0066C23.4235 13.8364 23.2707 13.6706 23.0939 13.6793C22.9149 13.688 22.7687 13.8233 22.7665 14.0088Z" fill="#072F32"/>
</svg>
