<svg width="43" height="44" viewBox="0 0 43 44" fill="none" xmlns="http://www.w3.org/2000/svg">
<circle cx="21.4777" cy="22.2995" r="21.4777" fill="#F8EE00"/>
<path d="M20.9457 14.864C20.799 14.8084 20.637 14.8084 20.4903 14.864L7.23242 19.8362L7.97987 20.1188L20.5402 24.8092C20.6869 24.8649 20.8489 24.8649 20.9956 24.8092L32.6158 20.4455C32.7406 20.3996 32.8484 20.3164 32.9245 20.2073C33.0007 20.0982 33.0415 19.9684 33.0415 19.8353C33.0415 19.7023 33.0007 19.5724 32.9245 19.4633C32.8484 19.3542 32.7406 19.2711 32.6158 19.2252L20.9457 14.864Z" fill="#072F32"/>
<path d="M13.0537 23.5148C13.0047 23.4968 12.952 23.491 12.9002 23.4978C12.8485 23.5047 12.7991 23.5239 12.7564 23.554C12.7137 23.5841 12.6789 23.624 12.655 23.6705C12.6311 23.7169 12.6188 23.7685 12.6191 23.8207V27.5621C12.6191 29.1998 16.2249 30.5141 20.7207 30.5141C23.7631 30.5141 26.3849 29.9023 27.7894 29.0156C28.4464 28.5916 28.8324 28.0768 28.8324 27.5623V23.7686C28.8325 23.7162 28.8198 23.6646 28.7955 23.6182C28.7712 23.5718 28.7359 23.532 28.6928 23.5022C28.6497 23.4724 28.6 23.4536 28.548 23.4473C28.496 23.441 28.4432 23.4474 28.3942 23.466L20.8319 26.296C20.7591 26.3239 20.6786 26.3239 20.6058 26.296L13.0537 23.5148ZM33.8393 20.7089C33.7815 20.7276 33.7301 20.7623 33.6913 20.8092C33.6525 20.856 33.6279 20.9129 33.6203 20.9732L33.4569 22.2701L32.9005 26.2095C32.894 26.2554 32.8974 26.3022 32.9105 26.3468C32.9237 26.3913 32.9462 26.4324 32.9767 26.4674C33.0071 26.5025 33.0448 26.5305 33.087 26.5497C33.1293 26.5689 33.1752 26.5787 33.2216 26.5786H34.6785C34.7248 26.5785 34.7705 26.5685 34.8125 26.5493C34.8546 26.5301 34.892 26.5021 34.9223 26.4671C34.9527 26.4322 34.9751 26.3912 34.9882 26.3468C35.0013 26.3024 35.0047 26.2558 34.9983 26.21L34.2611 20.9701C34.2549 20.9232 34.2384 20.8782 34.2127 20.8384C34.187 20.7986 34.1528 20.765 34.1125 20.7401C34.0722 20.7152 34.027 20.6995 33.9799 20.6942C33.9328 20.6888 33.8852 20.6941 33.8404 20.7094L33.8393 20.7089Z" fill="#072F32"/>
</svg>
