<svg width="32" height="32" viewBox="0 0 32 32" fill="none" xmlns="http://www.w3.org/2000/svg">
<rect x="9" y="20" width="4" height="5" fill="#F8EE00"/>
<path d="M11 8.5C8.92963 8.5 7.25 10.1796 7.25 12.25C7.25 14.3204 8.92963 16 11 16C13.0704 16 14.75 14.3204 14.75 12.25C14.75 10.1796 13.0704 8.5 11 8.5ZM11 13.5003C10.31 13.5003 9.74975 12.9411 9.74975 12.25C9.74975 11.5593 10.31 11.0001 11 11.0001C11.6908 11.0001 12.2499 11.5593 12.2499 12.25C12.2499 12.9411 11.6908 13.5003 11 13.5003Z" fill="black" stroke="#F9F9EF" stroke-width="0.5"/>
<path d="M31 24.7502H14.7501V20.7074C15.9659 20.4584 17.1929 20.0751 18.1045 19.6184L23.368 16.9866L22.2501 14.7501L16.9863 17.3822C15.7559 17.9976 13.6251 18.5005 12.25 18.5005H7.25013V24.7502H1V27.25H3.50013V31H5.99988V27.25H26.0001V31H28.4999V27.25H31V24.7502ZM9.74988 21.0002H12.25V24.7502H9.74988V21.0002Z" fill="black" stroke="#F9F9EF" stroke-width="0.5"/>
<path d="M28.4999 1H3.50013C2.12463 1 1 2.125 1 3.50012V19.75C1 21.1248 2.12463 22.2505 3.50013 22.2505H5.37513V19.75H3.50013V3.50012H28.4999V19.75H20.9999V22.2505H28.4999C29.8746 22.2505 31 21.1248 31 19.75V3.50012C31 2.125 29.8746 1 28.4999 1Z" fill="black" stroke="#F9F9EF" stroke-width="0.5"/>
<path d="M26.0003 6.00024H15.375V7.87524H26.0003V6.00024Z" fill="black"/>
<path d="M26.0003 9.75024H17.25V11.6252H26.0003V9.75024Z" fill="black"/>
</svg>
