<svg width="44" height="43" viewBox="0 0 44 43" fill="none" xmlns="http://www.w3.org/2000/svg">
<circle cx="22.343" cy="21.4777" r="21.4777" fill="#F8EE00"/>
<path d="M19.9168 28.1382C19.9168 28.1382 19.9598 19.3975 19.9168 18.4961H23.1535V19.8564C23.4487 19.3506 23.8763 18.9349 24.3903 18.6542C24.9043 18.3735 25.4851 18.2384 26.0702 18.2635C28.2001 18.2635 29.7966 19.6423 29.7966 22.6048V28.1346H26.5606V22.9771C26.5606 21.6806 26.0924 20.7964 24.9204 20.7964C24.5567 20.7977 24.2021 20.9109 23.9049 21.1207C23.6078 21.3305 23.3824 21.6267 23.2595 21.9691C23.177 22.2213 23.1411 22.4865 23.1535 22.7516V28.1382H19.9168ZM14.8889 28.1382V18.4918H18.1249V28.1375L14.8889 28.1382ZM16.4876 17.176C16.257 17.192 16.0256 17.1601 15.8079 17.0821C15.5903 17.0042 15.3912 16.8821 15.2232 16.7233C15.0552 16.5646 14.9219 16.3728 14.8317 16.16C14.7415 15.9471 14.6965 15.7179 14.6993 15.4868C14.7022 15.2556 14.753 15.0276 14.8484 14.8171C14.9439 14.6066 15.0819 14.4181 15.2538 14.2636C15.4258 14.1091 15.6279 13.992 15.8473 13.9195C16.0668 13.847 16.299 13.8209 16.5291 13.8426C16.7604 13.8239 16.993 13.8535 17.2123 13.9295C17.4315 14.0055 17.6326 14.1262 17.8026 14.2841C17.9727 14.442 18.108 14.6335 18.2001 14.8465C18.2921 15.0596 18.3389 15.2894 18.3373 15.5214C18.3358 15.7535 18.286 15.9826 18.1911 16.1944C18.0962 16.4062 17.9583 16.5959 17.7862 16.7515C17.6141 16.9071 17.4114 17.0252 17.1912 17.0983C16.9709 17.1713 16.7379 17.1978 16.5069 17.176H16.4876Z" fill="#072F32"/>
</svg>
