<svg width="43" height="44" viewBox="0 0 43 44" fill="none" xmlns="http://www.w3.org/2000/svg">
<circle cx="21.4777" cy="22.3441" r="21.4777" fill="#F8EE00"/>
<path d="M14.4878 11.8663C14.2176 11.8663 14 12.0839 14 12.3541V31.3785C14 31.6488 14.2176 31.8663 14.4878 31.8663H28.6341C28.9044 31.8663 29.122 31.6488 29.122 31.3785V12.3541C29.122 12.0839 28.9044 11.8663 28.6341 11.8663H14.4878ZM19.3659 14.5493H23.7561C24.0255 14.5493 24.2439 14.7677 24.2439 15.0371C24.2439 15.3065 24.0255 15.5249 23.7561 15.5249H19.3659C19.0964 15.5249 18.878 15.3065 18.878 15.0371C18.878 14.7677 19.0964 14.5493 19.3659 14.5493ZM21.561 19.1834C22.7733 19.1834 23.7561 20.1662 23.7561 21.3785C23.7561 22.5908 22.7733 23.5737 21.561 23.5737C20.3487 23.5737 19.3659 22.5908 19.3659 21.3785C19.3659 20.1662 20.3487 19.1834 21.561 19.1834ZM21.561 24.5493C24.2551 24.5493 26.439 26.1617 26.439 28.4517H16.6829C16.6829 26.1617 18.8669 24.5493 21.561 24.5493Z" fill="#072F32"/>
</svg>
