<svg width="43" height="43" viewBox="0 0 43 43" fill="none" xmlns="http://www.w3.org/2000/svg">
<circle cx="21.4777" cy="21.4777" r="21.4777" fill="#F8EE00"/>
<path d="M29 18.3152L28.1179 19.1459L26.0846 21.2182C26.0764 21.226 26.0698 21.2353 26.0653 21.2457C26.0608 21.256 26.0585 21.2672 26.0585 21.2785C26.0585 21.2898 26.0608 21.3009 26.0653 21.3113C26.0698 21.3217 26.0764 21.331 26.0846 21.3387L29.3125 24.7786C29.3645 24.8304 29.4057 24.8919 29.4338 24.9597C29.4619 25.0274 29.4764 25.1 29.4764 25.1734C29.4764 25.2468 29.4619 25.3194 29.4338 25.3871C29.4057 25.4549 29.3645 25.5164 29.3125 25.5682C29.2607 25.6202 29.1992 25.6614 29.1314 25.6895C29.0637 25.7176 28.991 25.7321 28.9177 25.7321C28.8443 25.7321 28.7717 25.7176 28.7039 25.6895C28.6362 25.6614 28.5746 25.6202 28.5228 25.5682L25.3083 22.1396C25.3001 22.1313 25.2904 22.1248 25.2796 22.1203C25.2689 22.1159 25.2574 22.1136 25.2458 22.1136C25.2342 22.1136 25.2227 22.1159 25.212 22.1203C25.2013 22.1248 25.1916 22.1313 25.1834 22.1396L24.4026 22.9371C24.0815 23.2649 23.6984 23.5256 23.2756 23.7038C22.8528 23.8821 22.3987 23.9745 21.9398 23.9755C21.4707 23.9737 21.0067 23.8783 20.575 23.6948C20.1433 23.5113 19.7526 23.2434 19.4257 22.9069L18.6706 22.1396C18.6624 22.1313 18.6527 22.1248 18.642 22.1203C18.6313 22.1159 18.6198 22.1136 18.6082 22.1136C18.5966 22.1136 18.5851 22.1159 18.5744 22.1203C18.5636 22.1248 18.5539 22.1313 18.5457 22.1396L15.3256 25.5671C15.2738 25.6191 15.2122 25.6603 15.1445 25.6884C15.0767 25.7165 15.0041 25.731 14.9307 25.731C14.8574 25.731 14.7848 25.7165 14.717 25.6884C14.6492 25.6603 14.5877 25.6191 14.5359 25.5671C14.484 25.5153 14.4428 25.4538 14.4146 25.386C14.3865 25.3183 14.3721 25.2456 14.3721 25.1723C14.3721 25.0989 14.3865 25.0263 14.4146 24.9585C14.4428 24.8908 14.484 24.8292 14.5359 24.7774L17.7705 21.3365C17.7851 21.3198 17.7931 21.2984 17.7931 21.2762C17.7931 21.2541 17.7851 21.2327 17.7705 21.216L13.1461 16.5158C13.1343 16.5034 13.1191 16.4949 13.1024 16.4914C13.0857 16.4878 13.0683 16.4894 13.0525 16.4959C13.0367 16.5024 13.0232 16.5135 13.0138 16.5278C13.0045 16.5421 12.9997 16.5589 13 16.576V25.9843C13.0009 26.3482 13.1458 26.6969 13.4031 26.9542C13.6605 27.2115 14.0092 27.3564 14.3731 27.3573H29.4731C29.837 27.3564 30.1857 27.2115 30.443 26.9542C30.7003 26.6969 30.8453 26.3482 30.8462 25.9843V18.3473V16.4246L29 18.3152Z" fill="#072F32"/>
<path d="M28.5 15H26.2854H14.3675C14.058 14.9988 13.7577 15.1048 13.5176 15.3L20.2489 22.1507C20.4678 22.3736 20.7288 22.5506 21.0169 22.6714C21.3049 22.7923 21.6141 22.8545 21.9265 22.8545C22.2388 22.8545 22.548 22.7923 22.8361 22.6714C23.1241 22.5506 23.3851 22.3736 23.604 22.1507L27.0617 18.6373L30.5 15H28.5Z" fill="#072F32"/>
</svg>
