<svg width="18" height="20" viewBox="0 0 18 20" fill="none" xmlns="http://www.w3.org/2000/svg">
<path d="M9.8159 18.6077C13.8509 16.5502 17 13.1429 17 9C17 4.58172 13.4183 1 9 1C4.58172 1 1 4.58172 1 9C1 13.1429 4.14909 16.5502 8.1841 18.6077C8.6968 18.8691 9.3032 18.8691 9.8159 18.6077Z" stroke="#2F6672" stroke-width="1.5" stroke-linecap="round" stroke-linejoin="round"/>
<path d="M12 9C12 10.6569 10.6569 12 9 12C7.3431 12 6 10.6569 6 9C6 7.34315 7.3431 6 9 6C10.6569 6 12 7.34315 12 9Z" stroke="#2F6672" stroke-width="1.5" stroke-linecap="round" stroke-linejoin="round"/>
</svg>
