<svg width="19" height="19" viewBox="0 0 19 19" fill="none" xmlns="http://www.w3.org/2000/svg">
<path d="M4.39901 18.3078H0.694819V6.39215H4.39455L4.39901 18.3078ZM2.54747 4.76703C2.12172 4.76901 1.70494 4.6447 1.34983 4.40981C0.994728 4.17492 0.717251 3.84001 0.552489 3.44742C0.387727 3.05483 0.343081 2.6222 0.424196 2.20424C0.50531 1.78628 0.708543 1.40175 1.00819 1.09929C1.30784 0.796836 1.69046 0.590026 2.10764 0.505017C2.52483 0.420008 2.95786 0.460617 3.35196 0.62171C3.74607 0.782804 4.08356 1.05715 4.32175 1.41004C4.55994 1.76294 4.68814 2.17855 4.69013 2.6043C4.69074 3.17461 4.46582 3.72202 4.06444 4.12717C3.66306 4.53231 3.11776 4.76232 2.54747 4.76703ZM18.2465 18.3078H14.5546V12.5078C14.5546 11.1258 14.5267 9.35238 12.6305 9.35238C10.7065 9.35238 10.412 10.8537 10.412 12.4074V18.3078H6.7179V6.39215H10.2648V8.01838H10.3161C10.671 7.41092 11.1841 6.91114 11.8007 6.57231C12.4173 6.23348 13.1143 6.06829 13.8173 6.09434C17.5617 6.09434 18.2499 8.56046 18.2499 11.7627V18.3078H18.2465Z" fill="white"/>
</svg>
