<svg width="64" height="64" viewBox="0 0 64 64" fill="none" xmlns="http://www.w3.org/2000/svg">
<g clip-path="url(#clip0_197_380)">
<path d="M46.1473 22.2317C49.3048 22.2317 51.8735 19.6629 51.8735 16.5053C51.8735 13.3477 49.3048 10.7789 46.1473 10.7789C42.9898 10.7789 40.4209 13.3477 40.4209 16.5053C40.4209 19.6629 42.9896 22.2317 46.1473 22.2317ZM46.1473 12.8001C48.1903 12.8001 49.8525 14.4623 49.8525 16.5053C49.8525 18.5483 48.1903 20.2106 46.1473 20.2106C44.1043 20.2106 42.442 18.5483 42.442 16.5053C42.442 14.4623 44.1043 12.8001 46.1473 12.8001Z" fill="#979797"/>
<path d="M57.6 37.0526H55.2421V33.1367C55.2421 28.1219 51.1622 24.042 46.1474 24.042C45.238 24.042 44.3434 24.1756 43.4823 24.4397C41.3131 20.761 37.3099 18.2871 32.739 18.2871H31.2611C26.6042 18.2871 22.5363 20.8551 20.3971 24.6489C20.3391 24.6139 20.2771 24.5842 20.2108 24.5607C19.2381 24.2165 18.2181 24.0419 17.1789 24.0419C12.164 24.0419 8.08412 28.1217 8.08412 33.1366V37.0526H6.4C2.87112 37.0526 0 39.9237 0 43.4526C0 46.9815 2.87112 49.8526 6.4 49.8526H18.2615C20.5435 54.7319 25.3495 58.203 30.9894 58.576V62.9894C30.9894 63.5476 31.4417 63.9999 31.9999 63.9999C32.5581 63.9999 33.0104 63.5476 33.0104 62.9894V58.576C38.6504 58.2029 43.4561 54.7319 45.7383 49.8526H57.6C61.1289 49.8526 64 46.9815 64 43.4526C64 39.9237 61.1289 37.0526 57.6 37.0526ZM20.8193 30.7504C20.8191 24.9926 25.5033 20.3084 31.2611 20.3084H32.739C38.4967 20.3084 43.181 24.9927 43.181 30.7505V33.2291C40.6206 30.4312 37.0269 28.5951 33.0106 28.3294V23.9157C33.0106 23.3575 32.5583 22.9052 32.0001 22.9052C31.4419 22.9052 30.9896 23.3575 30.9896 23.9157V28.3292C26.9733 28.595 23.3795 30.4312 20.8193 33.229V30.7504ZM45.0983 42.442H42.3924C41.9145 37.4895 37.9631 33.5382 33.0105 33.0602V30.3542C39.4503 30.8464 44.6063 36.0022 45.0983 42.442ZM30.9895 30.3544V33.0604C26.037 33.5382 22.0856 37.4896 21.6076 42.4422H18.9018V42.4421C19.3939 36.0024 24.5497 30.8464 30.9895 30.3544ZM6.4 47.8316C3.98538 47.8316 2.021 45.8672 2.021 43.4526C2.021 41.038 3.98538 39.0736 6.4 39.0736H8.08425V42.442H6.73688C6.17863 42.442 5.72638 42.8942 5.72638 43.4525C5.72638 44.0107 6.17863 44.463 6.73688 44.463H16.8766C16.9535 45.6261 17.1621 46.7539 17.4879 47.8314H6.4V47.8316ZM18.798 36.0124C17.71 37.9352 17.0304 40.118 16.8765 42.4422H10.1053V33.1369C10.1053 29.2365 13.2786 26.0632 17.1789 26.0632C17.9877 26.0632 18.7809 26.1989 19.5365 26.4662C19.5425 26.4684 19.5486 26.4696 19.5548 26.4716C19.0653 27.8066 18.7979 29.2479 18.7979 30.7505V36.0124H18.798ZM30.9896 56.5511C24.5498 56.0589 19.3939 50.903 18.9018 44.4632H21.6077C22.0856 49.4157 26.037 53.3671 30.9896 53.8451V56.5511ZM32 49.8526C31.4417 49.8526 30.9895 50.3049 30.9895 50.8631V51.8109C27.1528 51.3496 24.103 48.2999 23.6418 44.4631H24.2526C24.8109 44.4631 25.2631 44.0109 25.2631 43.4526C25.2631 42.8944 24.8107 42.4421 24.2526 42.4421H23.6418C24.103 38.6054 27.1528 35.5556 30.9895 35.0944V36.0421C30.9895 36.6004 31.4419 37.0526 32 37.0526C32.5583 37.0526 33.0105 36.6002 33.0105 36.0421V35.0944C36.8473 35.5556 39.897 38.6054 40.3582 42.4421H39.7474C39.1891 42.4421 38.7369 42.8944 38.7369 43.4526C38.7369 44.0109 39.1893 44.4631 39.7474 44.4631H40.3582C39.897 48.2999 36.8473 51.3496 33.0105 51.8109V50.8631C33.0105 50.305 32.5583 49.8526 32 49.8526ZM33.0105 56.5509V53.8449C37.963 53.367 41.9144 49.4156 42.3924 44.463H45.0984C44.6062 50.9029 39.4503 56.0589 33.0105 56.5509ZM45.2019 36.0122V30.7504C45.2019 29.1784 44.9085 27.6739 44.3751 26.2875C44.9511 26.1387 45.5449 26.0632 46.1474 26.0632C50.0477 26.0632 53.221 29.2366 53.221 33.1369V42.4421H47.1234C46.9696 40.1177 46.2899 37.9351 45.2019 36.0122ZM57.6 47.8316H46.5121C46.8379 46.7541 47.0465 45.6264 47.1234 44.4632H57.2631C57.8214 44.4632 58.2736 44.011 58.2736 43.4527C58.2736 42.8945 57.8214 42.4422 57.2631 42.4422H55.2421V39.0739H57.6C60.0146 39.0739 61.979 41.0382 61.979 43.4529C61.979 45.8672 60.0146 47.8316 57.6 47.8316Z" fill="#979797"/>
<path d="M32.0002 16.2444C36.4787 16.2444 40.1224 12.6006 40.1224 8.12212C40.1224 3.64362 36.4787 0 32.0002 0C27.5217 0 23.8779 3.64375 23.8779 8.12225C23.8779 12.6007 27.5217 16.2444 32.0002 16.2444ZM32.0002 2.021C35.3644 2.021 38.1013 4.75787 38.1013 8.12212C38.1013 11.4864 35.3644 14.2234 32.0002 14.2234C28.6359 14.2234 25.8991 11.4865 25.8991 8.12225C25.8991 4.758 28.6359 2.021 32.0002 2.021Z" fill="#979797"/>
<path d="M35.7054 43.4527C35.7054 41.4097 34.0432 39.7474 32.0002 39.7474C29.9572 39.7474 28.2949 41.4097 28.2949 43.4527C28.2949 45.4957 29.9572 47.1579 32.0002 47.1579C34.0432 47.1579 35.7054 45.4957 35.7054 43.4527ZM32.0002 45.1369C31.0714 45.1369 30.3159 44.3814 30.3159 43.4527C30.3159 42.5239 31.0714 41.7684 32.0002 41.7684C32.9289 41.7684 33.6844 42.5239 33.6844 43.4527C33.6844 44.3814 32.9289 45.1369 32.0002 45.1369Z" fill="#979797"/>
<path d="M17.1794 22.2317C20.3369 22.2317 22.9057 19.6629 22.9057 16.5053C22.9057 13.3477 20.337 10.7789 17.1794 10.7789C14.0219 10.7789 11.4531 13.3477 11.4531 16.5053C11.4531 19.6629 14.0218 22.2317 17.1794 22.2317ZM17.1794 12.8001C19.2224 12.8001 20.8846 14.4623 20.8846 16.5053C20.8846 18.5483 19.2224 20.2106 17.1794 20.2106C15.1364 20.2106 13.4741 18.5483 13.4741 16.5053C13.4741 14.4623 15.1363 12.8001 17.1794 12.8001Z" fill="#979797"/>
</g>
<defs>
<clipPath id="clip0_197_380">
<rect width="64" height="64" fill="white"/>
</clipPath>
</defs>
</svg>
