<svg width="40" height="40" viewBox="0 0 40 40" fill="none" xmlns="http://www.w3.org/2000/svg">
<path d="M27.2301 4V2C27.2301 1.46957 27.4408 0.960857 27.8159 0.585785C28.191 0.210712 28.6997 0 29.2301 0C29.7605 0 30.2692 0.210712 30.6443 0.585785C31.0194 0.960857 31.2301 1.46957 31.2301 2V4C31.2301 4.53043 31.0194 5.03914 30.6443 5.41422C30.2692 5.78929 29.7605 6 29.2301 6C28.6997 6 28.191 5.78929 27.8159 5.41422C27.4408 5.03914 27.2301 4.53043 27.2301 4ZM37.2301 40C37.7605 40 38.2692 39.7893 38.6443 39.4142C39.0194 39.0391 39.2301 38.5304 39.2301 38V36C39.2301 35.4696 39.0194 34.9609 38.6443 34.5858C38.2692 34.2107 37.7605 34 37.2301 34C36.6997 34 36.191 34.2107 35.8159 34.5858C35.4408 34.9609 35.2301 35.4696 35.2301 36V38C35.2301 38.5304 35.4408 39.0391 35.8159 39.4142C36.191 39.7893 36.6997 40 37.2301 40ZM37.2301 6C37.7605 6 38.2692 5.78929 38.6443 5.41422C39.0194 5.03914 39.2301 4.53043 39.2301 4V2C39.2301 1.46957 39.0194 0.960857 38.6443 0.585785C38.2692 0.210712 37.7605 0 37.2301 0C36.6997 0 36.191 0.210712 35.8159 0.585785C35.4408 0.960857 35.2301 1.46957 35.2301 2V4C35.2301 4.53043 35.4408 5.03914 35.8159 5.41422C36.191 5.78929 36.6997 6 37.2301 6ZM29.2301 34C28.6997 34 28.191 34.2107 27.8159 34.5858C27.4408 34.9609 27.2301 35.4696 27.2301 36V38C27.2301 38.5304 27.4408 39.0391 27.8159 39.4142C28.191 39.7893 28.6997 40 29.2301 40C29.7605 40 30.2692 39.7893 30.6443 39.4142C31.0194 39.0391 31.2301 38.5304 31.2301 38V36C31.2301 35.4696 31.0194 34.9609 30.6443 34.5858C30.2692 34.2107 29.7605 34 29.2301 34ZM37.2301 30C37.7605 30 38.2692 29.7893 38.6443 29.4142C39.0194 29.0391 39.2301 28.5304 39.2301 28V12C39.2301 11.4696 39.0194 10.9609 38.6443 10.5858C38.2692 10.2107 37.7605 10 37.2301 10C36.6997 10 36.191 10.2107 35.8159 10.5858C35.4408 10.9609 35.2301 11.4696 35.2301 12V28C35.2301 28.5304 35.4408 29.0391 35.8159 29.4142C36.191 29.7893 36.6997 30 37.2301 30Z" fill="white"/>
<path d="M1.78997 23.08L11.95 31.54C12.2422 31.7835 12.5979 31.9385 12.9751 31.987C13.3524 32.0355 13.7357 31.9753 14.08 31.8137C14.4243 31.652 14.7153 31.3955 14.919 31.0743C15.1227 30.7531 15.2306 30.3804 15.23 30V26H27.23V28C27.23 28.5305 27.4407 29.0392 27.8158 29.4143C28.1908 29.7893 28.6995 30 29.23 30C29.7604 30 30.2691 29.7893 30.6442 29.4143C31.0193 29.0392 31.23 28.5305 31.23 28V12C31.23 11.4696 31.0193 10.9609 30.6442 10.5858C30.2691 10.2108 29.7604 10 29.23 10C28.6995 10 28.1908 10.2108 27.8158 10.5858C27.4407 10.9609 27.23 11.4696 27.23 12V14H15.23V10C15.2309 9.61751 15.1221 9.24273 14.9165 8.92014C14.7109 8.59756 14.4171 8.34071 14.07 8.18004C13.8063 8.05991 13.5197 7.99849 13.23 8.00004C12.7627 7.99913 12.3098 8.16188 11.95 8.46004L1.78997 16.92C1.337 17.2954 0.972404 17.766 0.722149 18.2984C0.471893 18.8308 0.34214 19.4118 0.34214 20C0.34214 20.5883 0.471893 21.1693 0.722149 21.7017C0.972404 22.2341 1.337 22.7047 1.78997 23.08Z" fill="#F8EE00"/>
</svg>
