<svg width="39" height="40" viewBox="0 0 39 40" fill="none" xmlns="http://www.w3.org/2000/svg">
<path d="M12.0001 36V38C12.0001 38.5304 11.7894 39.0391 11.4144 39.4142C11.0393 39.7893 10.5306 40 10.0001 40C9.46971 40 8.961 39.7893 8.58593 39.4142C8.21085 39.0391 8.00014 38.5304 8.00014 38V36C8.00014 35.4696 8.21085 34.9609 8.58593 34.5858C8.961 34.2107 9.46971 34 10.0001 34C10.5306 34 11.0393 34.2107 11.4144 34.5858C11.7894 34.9609 12.0001 35.4696 12.0001 36ZM2.00014 0C1.4697 0 0.960997 0.210714 0.585924 0.585786C0.210851 0.960859 0.000137329 1.46957 0.000137329 2V4C0.000137329 4.53043 0.210851 5.03914 0.585924 5.41421C0.960997 5.78929 1.4697 6 2.00014 6C2.53057 6 3.03928 5.78929 3.41435 5.41421C3.78942 5.03914 4.00014 4.53043 4.00014 4V2C4.00014 1.46957 3.78942 0.960859 3.41435 0.585786C3.03928 0.210714 2.53057 0 2.00014 0ZM2.00014 34C1.4697 34 0.960997 34.2107 0.585924 34.5858C0.210851 34.9609 0.000137329 35.4696 0.000137329 36V38C0.000137329 38.5304 0.210851 39.0391 0.585924 39.4142C0.960997 39.7893 1.4697 40 2.00014 40C2.53057 40 3.03928 39.7893 3.41435 39.4142C3.78942 39.0391 4.00014 38.5304 4.00014 38V36C4.00014 35.4696 3.78942 34.9609 3.41435 34.5858C3.03928 34.2107 2.53057 34 2.00014 34ZM10.0001 6C10.5306 6 11.0393 5.78929 11.4144 5.41421C11.7894 5.03914 12.0001 4.53043 12.0001 4V2C12.0001 1.46957 11.7894 0.960859 11.4144 0.585786C11.0393 0.210714 10.5306 0 10.0001 0C9.46971 0 8.961 0.210714 8.58593 0.585786C8.21085 0.960859 8.00014 1.46957 8.00014 2V4C8.00014 4.53043 8.21085 5.03914 8.58593 5.41421C8.961 5.78929 9.46971 6 10.0001 6ZM2.00014 10C1.4697 10 0.960997 10.2107 0.585924 10.5858C0.210851 10.9609 0.000137329 11.4696 0.000137329 12V28C0.000137329 28.5304 0.210851 29.0391 0.585924 29.4142C0.960997 29.7893 1.4697 30 2.00014 30C2.53057 30 3.03928 29.7893 3.41435 29.4142C3.78942 29.0391 4.00014 28.5304 4.00014 28V12C4.00014 11.4696 3.78942 10.9609 3.41435 10.5858C3.03928 10.2107 2.53057 10 2.00014 10Z" fill="white"/>
<path d="M37.4403 16.92L27.2803 8.45996C26.988 8.21652 26.6324 8.06148 26.2551 8.01301C25.8778 7.96454 25.4946 8.02466 25.1503 8.18632C24.806 8.34797 24.5149 8.60446 24.3112 8.9257C24.1075 9.24693 23.9997 9.61959 24.0003 9.99996V14H12.0003V12C12.0003 11.4695 11.7896 10.9608 11.4145 10.5857C11.0394 10.2107 10.5307 9.99996 10.0003 9.99996C9.46984 9.99996 8.96113 10.2107 8.58606 10.5857C8.21098 10.9608 8.00027 11.4695 8.00027 12V28C8.00027 28.5304 8.21098 29.0391 8.58606 29.4142C8.96113 29.7892 9.46984 30 10.0003 30C10.5307 30 11.0394 29.7892 11.4145 29.4142C11.7896 29.0391 12.0003 28.5304 12.0003 28V26H24.0003V30C23.9993 30.3825 24.1081 30.7573 24.3137 31.0799C24.5193 31.4024 24.8131 31.6593 25.1603 31.82C25.4239 31.9401 25.7105 32.0015 26.0003 32C26.4676 32.0009 26.9204 31.8381 27.2803 31.54L37.4403 23.08C37.8932 22.7046 38.2578 22.234 38.5081 21.7016C38.7583 21.1692 38.8881 20.5882 38.8881 20C38.8881 19.4117 38.7583 18.8307 38.5081 18.2983C38.2578 17.7659 37.8932 17.2953 37.4403 16.92Z" fill="#F8EE00"/>
</svg>
