<svg width="44" height="43" viewBox="0 0 44 43" fill="none" xmlns="http://www.w3.org/2000/svg">
<circle cx="22.3042" cy="21.4536" r="21.4536" fill="#F7FCF9"/>
<path d="M32.4668 16.5526C31.7608 16.8692 31.0016 17.0844 30.2049 17.1794C31.0172 16.6856 31.642 15.9037 31.9357 14.9731C31.1765 15.4289 30.333 15.7613 29.4363 15.9417C28.7178 15.1662 27.693 14.6787 26.562 14.6787C24.3875 14.6787 22.6224 16.4672 22.6224 18.6703C22.6224 18.9836 22.6567 19.2875 22.7255 19.5787C19.4512 19.4141 16.5488 17.8251 14.6087 15.4099C14.2681 15.9987 14.0744 16.6856 14.0744 17.4168C14.0744 18.8 14.768 20.0219 15.8271 20.7373C15.1804 20.7151 14.5743 20.5378 14.0432 20.2371C14.0432 20.2561 14.0432 20.272 14.0432 20.2878C14.0432 22.2218 15.3991 23.8362 17.2018 24.2002C16.8706 24.292 16.5238 24.3426 16.1645 24.3426C15.9115 24.3426 15.6615 24.3173 15.4241 24.2698C15.924 25.8557 17.3799 27.0079 19.1013 27.0427C17.7548 28.1126 16.0552 28.7489 14.2119 28.7489C13.8932 28.7489 13.5808 28.7299 13.2715 28.6919C15.0148 29.8251 17.0831 30.4867 19.3075 30.4867C26.5527 30.4867 30.5142 24.4059 30.5142 19.1324C30.5142 18.9615 30.5079 18.7874 30.5017 18.6165C31.2703 18.053 31.9389 17.3503 32.4668 16.5526Z" fill="#225354"/>
</svg>
