<svg width="44" height="43" viewBox="0 0 44 43" fill="none" xmlns="http://www.w3.org/2000/svg">
<circle cx="21.7027" cy="21.4536" r="21.4536" fill="#F7FCF9"/>
<path d="M30.3456 19.53C30.3456 18.5063 29.932 17.5246 29.1956 16.8008C28.4593 16.077 27.4606 15.6704 26.4193 15.6704H16.3629C15.3216 15.6704 14.3228 16.077 13.5865 16.8008C12.8502 17.5246 12.4365 18.5063 12.4365 19.53V24.1233C12.4365 25.147 12.8502 26.1287 13.5865 26.8525C14.3228 27.5763 15.3216 27.9829 16.3629 27.9829H26.3998C27.4411 27.9829 28.4398 27.5763 29.1761 26.8525C29.9124 26.1287 30.3261 25.147 30.3261 24.1233L30.3456 19.53ZM24.4444 22.1713L19.966 24.3575C19.7918 24.4503 19.1897 24.3283 19.1897 24.1272V19.6274C19.1897 19.4271 19.7965 19.2997 19.9706 19.3972L24.2796 21.7061C24.4358 21.8136 24.6279 22.0731 24.4436 22.1705L24.4444 22.1713Z" fill="#225354"/>
</svg>
