<svg width="43" height="43" viewBox="0 0 43 43" fill="none" xmlns="http://www.w3.org/2000/svg">
<circle cx="21.5034" cy="21.4536" r="21.4536" fill="#F7FCF9"/>
<path d="M25.2111 16.894C25.0203 16.8949 24.8357 16.9619 24.6887 17.0836C24.5417 17.2053 24.4414 17.3742 24.4049 17.5615C24.3684 17.7488 24.398 17.943 24.4885 18.1109C24.5791 18.2789 24.7251 18.4103 24.9016 18.4827C25.0782 18.5552 25.2744 18.5642 25.4568 18.5083C25.6393 18.4523 25.7967 18.3349 25.9023 18.1759C26.0079 18.017 26.0551 17.8263 26.036 17.6365C26.0168 17.4466 25.9325 17.2692 25.7973 17.1346C25.6414 16.98 25.4306 16.8935 25.2111 16.894Z" fill="#225354"/>
<path d="M21.5329 17.9565C20.8454 17.9574 20.1735 18.1621 19.6022 18.5448C19.031 18.9274 18.586 19.4709 18.3237 20.1065C18.0613 20.742 17.9932 21.4411 18.1281 22.1153C18.263 22.7895 18.5948 23.4086 19.0816 23.8942C19.5683 24.3799 20.1881 24.7103 20.8626 24.8437C21.5371 24.9771 22.2361 24.9075 22.871 24.6437C23.506 24.3799 24.0485 23.9337 24.4299 23.3616C24.8113 22.7896 25.0145 22.1172 25.0138 21.4296C25.0133 20.973 24.9229 20.521 24.7477 20.0993C24.5725 19.6776 24.316 19.2946 23.9927 18.9721C23.6695 18.6496 23.2859 18.3939 22.8638 18.2196C22.4418 18.0454 21.9895 17.956 21.5329 17.9565ZM21.5329 23.6543C21.0929 23.6543 20.6628 23.5238 20.297 23.2793C19.9312 23.0349 19.646 22.6875 19.4776 22.281C19.3092 21.8745 19.2652 21.4272 19.3511 20.9956C19.4369 20.5641 19.6488 20.1677 19.9599 19.8566C20.271 19.5455 20.6674 19.3336 21.0989 19.2477C21.5305 19.1619 21.9778 19.206 22.3843 19.3743C22.7908 19.5427 23.1382 19.8279 23.3826 20.1937C23.6271 20.5595 23.7576 20.9896 23.7576 21.4296C23.7576 22.0196 23.5232 22.5855 23.106 23.0027C22.6888 23.4199 22.1229 23.6543 21.5329 23.6543Z" fill="#225354"/>
<path d="M24.293 28.4813H18.6588C17.5369 28.4796 16.4615 28.0332 15.6682 27.2399C14.8749 26.4466 14.4284 25.3711 14.4268 24.2492V18.6129C14.4279 17.4902 14.8739 16.4138 15.6671 15.6194C16.4604 14.825 17.5361 14.3773 18.6588 14.3745H24.293C25.4168 14.3756 26.4941 14.8225 27.2887 15.6171C28.0833 16.4117 28.5303 17.4891 28.5314 18.6129V24.2471C28.5291 25.3701 28.0818 26.4464 27.2873 27.2401C26.4928 28.0338 25.416 28.4801 24.293 28.4813ZM18.6588 15.7224C17.8875 15.7235 17.1482 16.0307 16.6032 16.5765C16.0582 17.1223 15.7521 17.862 15.7521 18.6333V24.2471C15.753 25.0181 16.0594 25.7573 16.6042 26.3029C17.149 26.8485 17.8878 27.156 18.6588 27.158H24.293C25.0644 27.156 25.8036 26.8486 26.3491 26.3032C26.8945 25.7577 27.2019 25.0185 27.2039 24.2471V18.6129C27.203 17.8411 26.896 17.1013 26.3503 16.5556C25.8046 16.0099 25.0648 15.7029 24.293 15.702L18.6588 15.7224Z" fill="#225354"/>
</svg>
